G04 #@! TF.GenerationSoftware,KiCad,Pcbnew,(7.0.0)*
G04 #@! TF.CreationDate,2023-03-12T21:45:25+01:00*
G04 #@! TF.ProjectId,tracker,74726163-6b65-4722-9e6b-696361645f70,rev?*
G04 #@! TF.SameCoordinates,Original*
G04 #@! TF.FileFunction,Paste,Top*
G04 #@! TF.FilePolarity,Positive*
%FSLAX46Y46*%
G04 Gerber Fmt 4.6, Leading zero omitted, Abs format (unit mm)*
G04 Created by KiCad (PCBNEW (7.0.0)) date 2023-03-12 21:45:25*
%MOMM*%
%LPD*%
G01*
G04 APERTURE LIST*
G04 Aperture macros list*
%AMRoundRect*
0 Rectangle with rounded corners*
0 $1 Rounding radius*
0 $2 $3 $4 $5 $6 $7 $8 $9 X,Y pos of 4 corners*
0 Add a 4 corners polygon primitive as box body*
4,1,4,$2,$3,$4,$5,$6,$7,$8,$9,$2,$3,0*
0 Add four circle primitives for the rounded corners*
1,1,$1+$1,$2,$3*
1,1,$1+$1,$4,$5*
1,1,$1+$1,$6,$7*
1,1,$1+$1,$8,$9*
0 Add four rect primitives between the rounded corners*
20,1,$1+$1,$2,$3,$4,$5,0*
20,1,$1+$1,$4,$5,$6,$7,0*
20,1,$1+$1,$6,$7,$8,$9,0*
20,1,$1+$1,$8,$9,$2,$3,0*%
G04 Aperture macros list end*
%ADD10RoundRect,0.200000X-0.200000X-0.275000X0.200000X-0.275000X0.200000X0.275000X-0.200000X0.275000X0*%
%ADD11RoundRect,0.200000X0.275000X-0.200000X0.275000X0.200000X-0.275000X0.200000X-0.275000X-0.200000X0*%
%ADD12RoundRect,0.225000X0.250000X-0.225000X0.250000X0.225000X-0.250000X0.225000X-0.250000X-0.225000X0*%
%ADD13RoundRect,0.225000X0.225000X0.250000X-0.225000X0.250000X-0.225000X-0.250000X0.225000X-0.250000X0*%
%ADD14R,1.475000X0.300000*%
%ADD15R,0.300000X1.475000*%
%ADD16R,1.800000X1.500000*%
%ADD17R,1.500000X1.800000*%
%ADD18RoundRect,0.225000X-0.225000X-0.250000X0.225000X-0.250000X0.225000X0.250000X-0.225000X0.250000X0*%
%ADD19RoundRect,0.225000X-0.250000X0.225000X-0.250000X-0.225000X0.250000X-0.225000X0.250000X0.225000X0*%
%ADD20R,1.500000X5.080000*%
%ADD21RoundRect,0.375000X0.375000X-0.875000X0.375000X0.875000X-0.375000X0.875000X-0.375000X-0.875000X0*%
G04 APERTURE END LIST*
D10*
G04 #@! TO.C,R2*
X138850000Y-94700000D03*
X140500000Y-94700000D03*
G04 #@! TD*
D11*
G04 #@! TO.C,R1*
X150600000Y-87025000D03*
X150600000Y-85375000D03*
G04 #@! TD*
D12*
G04 #@! TO.C,C2*
X136400000Y-90175000D03*
X136400000Y-88625000D03*
G04 #@! TD*
D13*
G04 #@! TO.C,C3*
X146025000Y-93200000D03*
X144475000Y-93200000D03*
G04 #@! TD*
D14*
G04 #@! TO.C,U1*
X146737999Y-89749999D03*
X146737999Y-89249999D03*
X146737999Y-88749999D03*
X146737999Y-88249999D03*
X146737999Y-87749999D03*
X146737999Y-87249999D03*
X146737999Y-86749999D03*
X146737999Y-86249999D03*
X146737999Y-85749999D03*
X146737999Y-85249999D03*
X146737999Y-84749999D03*
X146737999Y-84249999D03*
D15*
X145249999Y-82761999D03*
X144749999Y-82761999D03*
X144249999Y-82761999D03*
X143749999Y-82761999D03*
X143249999Y-82761999D03*
X142749999Y-82761999D03*
X142249999Y-82761999D03*
X141749999Y-82761999D03*
X141249999Y-82761999D03*
X140749999Y-82761999D03*
X140249999Y-82761999D03*
X139749999Y-82761999D03*
D14*
X138261999Y-84249999D03*
X138261999Y-84749999D03*
X138261999Y-85249999D03*
X138261999Y-85749999D03*
X138261999Y-86249999D03*
X138261999Y-86749999D03*
X138261999Y-87249999D03*
X138261999Y-87749999D03*
X138261999Y-88249999D03*
X138261999Y-88749999D03*
X138261999Y-89249999D03*
X138261999Y-89749999D03*
D15*
X139749999Y-91237999D03*
X140249999Y-91237999D03*
X140749999Y-91237999D03*
X141249999Y-91237999D03*
X141749999Y-91237999D03*
X142249999Y-91237999D03*
X142749999Y-91237999D03*
X143249999Y-91237999D03*
X143749999Y-91237999D03*
X144249999Y-91237999D03*
X144749999Y-91237999D03*
X145249999Y-91237999D03*
G04 #@! TD*
D16*
G04 #@! TO.C,ANT1*
X135849999Y-100699999D03*
X135849999Y-102599999D03*
X135849999Y-104499999D03*
X135849999Y-106399999D03*
X135849999Y-108299999D03*
D17*
X138649999Y-111099999D03*
X140549999Y-111099999D03*
X142449999Y-111099999D03*
X144349999Y-111099999D03*
X146249999Y-111099999D03*
D16*
X149049999Y-108299999D03*
X149049999Y-106399999D03*
X149049999Y-104499999D03*
X149049999Y-102599999D03*
X149049999Y-100699999D03*
D17*
X146249999Y-97899999D03*
X144349999Y-97899999D03*
X142449999Y-97899999D03*
X140549999Y-97899999D03*
X138649999Y-97899999D03*
G04 #@! TD*
D18*
G04 #@! TO.C,C4*
X139225000Y-81000000D03*
X140775000Y-81000000D03*
G04 #@! TD*
D19*
G04 #@! TO.C,C1*
X148800000Y-85425000D03*
X148800000Y-86975000D03*
G04 #@! TD*
D20*
G04 #@! TO.C,AE1*
X142499999Y-47799999D03*
X138249999Y-47799999D03*
X146749999Y-47799999D03*
G04 #@! TD*
D21*
G04 #@! TO.C,SOM1*
X135595000Y-75500000D03*
X137595000Y-75500000D03*
X139595000Y-75500000D03*
X141595000Y-75500000D03*
X143595000Y-75500000D03*
X145595000Y-75500000D03*
X147595000Y-75500000D03*
X149595000Y-75500000D03*
X149595000Y-59500000D03*
X147595000Y-59500000D03*
X145595000Y-59500000D03*
X143595000Y-59500000D03*
X141595000Y-59500000D03*
X139595000Y-59500000D03*
X137595000Y-59500000D03*
X135595000Y-59500000D03*
G04 #@! TD*
M02*
