G04 #@! TF.GenerationSoftware,KiCad,Pcbnew,(7.0.0)*
G04 #@! TF.CreationDate,2023-03-12T21:45:25+01:00*
G04 #@! TF.ProjectId,tracker,74726163-6b65-4722-9e6b-696361645f70,rev?*
G04 #@! TF.SameCoordinates,Original*
G04 #@! TF.FileFunction,Legend,Top*
G04 #@! TF.FilePolarity,Positive*
%FSLAX46Y46*%
G04 Gerber Fmt 4.6, Leading zero omitted, Abs format (unit mm)*
G04 Created by KiCad (PCBNEW (7.0.0)) date 2023-03-12 21:45:25*
%MOMM*%
%LPD*%
G01*
G04 APERTURE LIST*
%ADD10C,0.150000*%
%ADD11C,0.120000*%
%ADD12C,0.200000*%
%ADD13C,0.250000*%
%ADD14C,0.100000*%
G04 APERTURE END LIST*
D10*
X152109523Y-89582380D02*
X151776190Y-89106190D01*
X151538095Y-89582380D02*
X151538095Y-88582380D01*
X151538095Y-88582380D02*
X151919047Y-88582380D01*
X151919047Y-88582380D02*
X152014285Y-88630000D01*
X152014285Y-88630000D02*
X152061904Y-88677619D01*
X152061904Y-88677619D02*
X152109523Y-88772857D01*
X152109523Y-88772857D02*
X152109523Y-88915714D01*
X152109523Y-88915714D02*
X152061904Y-89010952D01*
X152061904Y-89010952D02*
X152014285Y-89058571D01*
X152014285Y-89058571D02*
X151919047Y-89106190D01*
X151919047Y-89106190D02*
X151538095Y-89106190D01*
X152490476Y-89534761D02*
X152633333Y-89582380D01*
X152633333Y-89582380D02*
X152871428Y-89582380D01*
X152871428Y-89582380D02*
X152966666Y-89534761D01*
X152966666Y-89534761D02*
X153014285Y-89487142D01*
X153014285Y-89487142D02*
X153061904Y-89391904D01*
X153061904Y-89391904D02*
X153061904Y-89296666D01*
X153061904Y-89296666D02*
X153014285Y-89201428D01*
X153014285Y-89201428D02*
X152966666Y-89153809D01*
X152966666Y-89153809D02*
X152871428Y-89106190D01*
X152871428Y-89106190D02*
X152680952Y-89058571D01*
X152680952Y-89058571D02*
X152585714Y-89010952D01*
X152585714Y-89010952D02*
X152538095Y-88963333D01*
X152538095Y-88963333D02*
X152490476Y-88868095D01*
X152490476Y-88868095D02*
X152490476Y-88772857D01*
X152490476Y-88772857D02*
X152538095Y-88677619D01*
X152538095Y-88677619D02*
X152585714Y-88630000D01*
X152585714Y-88630000D02*
X152680952Y-88582380D01*
X152680952Y-88582380D02*
X152919047Y-88582380D01*
X152919047Y-88582380D02*
X153061904Y-88630000D01*
X153347619Y-88582380D02*
X153919047Y-88582380D01*
X153633333Y-89582380D02*
X153633333Y-88582380D01*
X150390476Y-95834761D02*
X150533333Y-95882380D01*
X150533333Y-95882380D02*
X150771428Y-95882380D01*
X150771428Y-95882380D02*
X150866666Y-95834761D01*
X150866666Y-95834761D02*
X150914285Y-95787142D01*
X150914285Y-95787142D02*
X150961904Y-95691904D01*
X150961904Y-95691904D02*
X150961904Y-95596666D01*
X150961904Y-95596666D02*
X150914285Y-95501428D01*
X150914285Y-95501428D02*
X150866666Y-95453809D01*
X150866666Y-95453809D02*
X150771428Y-95406190D01*
X150771428Y-95406190D02*
X150580952Y-95358571D01*
X150580952Y-95358571D02*
X150485714Y-95310952D01*
X150485714Y-95310952D02*
X150438095Y-95263333D01*
X150438095Y-95263333D02*
X150390476Y-95168095D01*
X150390476Y-95168095D02*
X150390476Y-95072857D01*
X150390476Y-95072857D02*
X150438095Y-94977619D01*
X150438095Y-94977619D02*
X150485714Y-94930000D01*
X150485714Y-94930000D02*
X150580952Y-94882380D01*
X150580952Y-94882380D02*
X150819047Y-94882380D01*
X150819047Y-94882380D02*
X150961904Y-94930000D01*
X151961904Y-95787142D02*
X151914285Y-95834761D01*
X151914285Y-95834761D02*
X151771428Y-95882380D01*
X151771428Y-95882380D02*
X151676190Y-95882380D01*
X151676190Y-95882380D02*
X151533333Y-95834761D01*
X151533333Y-95834761D02*
X151438095Y-95739523D01*
X151438095Y-95739523D02*
X151390476Y-95644285D01*
X151390476Y-95644285D02*
X151342857Y-95453809D01*
X151342857Y-95453809D02*
X151342857Y-95310952D01*
X151342857Y-95310952D02*
X151390476Y-95120476D01*
X151390476Y-95120476D02*
X151438095Y-95025238D01*
X151438095Y-95025238D02*
X151533333Y-94930000D01*
X151533333Y-94930000D02*
X151676190Y-94882380D01*
X151676190Y-94882380D02*
X151771428Y-94882380D01*
X151771428Y-94882380D02*
X151914285Y-94930000D01*
X151914285Y-94930000D02*
X151961904Y-94977619D01*
X152866666Y-95882380D02*
X152390476Y-95882380D01*
X152390476Y-95882380D02*
X152390476Y-94882380D01*
X147190476Y-95834761D02*
X147333333Y-95882380D01*
X147333333Y-95882380D02*
X147571428Y-95882380D01*
X147571428Y-95882380D02*
X147666666Y-95834761D01*
X147666666Y-95834761D02*
X147714285Y-95787142D01*
X147714285Y-95787142D02*
X147761904Y-95691904D01*
X147761904Y-95691904D02*
X147761904Y-95596666D01*
X147761904Y-95596666D02*
X147714285Y-95501428D01*
X147714285Y-95501428D02*
X147666666Y-95453809D01*
X147666666Y-95453809D02*
X147571428Y-95406190D01*
X147571428Y-95406190D02*
X147380952Y-95358571D01*
X147380952Y-95358571D02*
X147285714Y-95310952D01*
X147285714Y-95310952D02*
X147238095Y-95263333D01*
X147238095Y-95263333D02*
X147190476Y-95168095D01*
X147190476Y-95168095D02*
X147190476Y-95072857D01*
X147190476Y-95072857D02*
X147238095Y-94977619D01*
X147238095Y-94977619D02*
X147285714Y-94930000D01*
X147285714Y-94930000D02*
X147380952Y-94882380D01*
X147380952Y-94882380D02*
X147619047Y-94882380D01*
X147619047Y-94882380D02*
X147761904Y-94930000D01*
X148190476Y-95882380D02*
X148190476Y-94882380D01*
X148190476Y-94882380D02*
X148428571Y-94882380D01*
X148428571Y-94882380D02*
X148571428Y-94930000D01*
X148571428Y-94930000D02*
X148666666Y-95025238D01*
X148666666Y-95025238D02*
X148714285Y-95120476D01*
X148714285Y-95120476D02*
X148761904Y-95310952D01*
X148761904Y-95310952D02*
X148761904Y-95453809D01*
X148761904Y-95453809D02*
X148714285Y-95644285D01*
X148714285Y-95644285D02*
X148666666Y-95739523D01*
X148666666Y-95739523D02*
X148571428Y-95834761D01*
X148571428Y-95834761D02*
X148428571Y-95882380D01*
X148428571Y-95882380D02*
X148190476Y-95882380D01*
X149142857Y-95596666D02*
X149619047Y-95596666D01*
X149047619Y-95882380D02*
X149380952Y-94882380D01*
X149380952Y-94882380D02*
X149714285Y-95882380D01*
X150295238Y-90082380D02*
X150866666Y-90082380D01*
X150580952Y-91082380D02*
X150580952Y-90082380D01*
X151104762Y-91082380D02*
X151628571Y-90415714D01*
X151104762Y-90415714D02*
X151628571Y-91082380D01*
X149009523Y-91082380D02*
X148676190Y-90606190D01*
X148438095Y-91082380D02*
X148438095Y-90082380D01*
X148438095Y-90082380D02*
X148819047Y-90082380D01*
X148819047Y-90082380D02*
X148914285Y-90130000D01*
X148914285Y-90130000D02*
X148961904Y-90177619D01*
X148961904Y-90177619D02*
X149009523Y-90272857D01*
X149009523Y-90272857D02*
X149009523Y-90415714D01*
X149009523Y-90415714D02*
X148961904Y-90510952D01*
X148961904Y-90510952D02*
X148914285Y-90558571D01*
X148914285Y-90558571D02*
X148819047Y-90606190D01*
X148819047Y-90606190D02*
X148438095Y-90606190D01*
X149342857Y-91082380D02*
X149866666Y-90415714D01*
X149342857Y-90415714D02*
X149866666Y-91082380D01*
X134377380Y-74785714D02*
X134377380Y-75261904D01*
X134377380Y-75261904D02*
X133377380Y-75261904D01*
X134377380Y-74309523D02*
X134329761Y-74404761D01*
X134329761Y-74404761D02*
X134282142Y-74452380D01*
X134282142Y-74452380D02*
X134186904Y-74499999D01*
X134186904Y-74499999D02*
X133901190Y-74499999D01*
X133901190Y-74499999D02*
X133805952Y-74452380D01*
X133805952Y-74452380D02*
X133758333Y-74404761D01*
X133758333Y-74404761D02*
X133710714Y-74309523D01*
X133710714Y-74309523D02*
X133710714Y-74166666D01*
X133710714Y-74166666D02*
X133758333Y-74071428D01*
X133758333Y-74071428D02*
X133805952Y-74023809D01*
X133805952Y-74023809D02*
X133901190Y-73976190D01*
X133901190Y-73976190D02*
X134186904Y-73976190D01*
X134186904Y-73976190D02*
X134282142Y-74023809D01*
X134282142Y-74023809D02*
X134329761Y-74071428D01*
X134329761Y-74071428D02*
X134377380Y-74166666D01*
X134377380Y-74166666D02*
X134377380Y-74309523D01*
X134377380Y-72976190D02*
X133901190Y-73309523D01*
X134377380Y-73547618D02*
X133377380Y-73547618D01*
X133377380Y-73547618D02*
X133377380Y-73166666D01*
X133377380Y-73166666D02*
X133425000Y-73071428D01*
X133425000Y-73071428D02*
X133472619Y-73023809D01*
X133472619Y-73023809D02*
X133567857Y-72976190D01*
X133567857Y-72976190D02*
X133710714Y-72976190D01*
X133710714Y-72976190D02*
X133805952Y-73023809D01*
X133805952Y-73023809D02*
X133853571Y-73071428D01*
X133853571Y-73071428D02*
X133901190Y-73166666D01*
X133901190Y-73166666D02*
X133901190Y-73547618D01*
X134377380Y-72119047D02*
X133853571Y-72119047D01*
X133853571Y-72119047D02*
X133758333Y-72166666D01*
X133758333Y-72166666D02*
X133710714Y-72261904D01*
X133710714Y-72261904D02*
X133710714Y-72452380D01*
X133710714Y-72452380D02*
X133758333Y-72547618D01*
X134329761Y-72119047D02*
X134377380Y-72214285D01*
X134377380Y-72214285D02*
X134377380Y-72452380D01*
X134377380Y-72452380D02*
X134329761Y-72547618D01*
X134329761Y-72547618D02*
X134234523Y-72595237D01*
X134234523Y-72595237D02*
X134139285Y-72595237D01*
X134139285Y-72595237D02*
X134044047Y-72547618D01*
X134044047Y-72547618D02*
X133996428Y-72452380D01*
X133996428Y-72452380D02*
X133996428Y-72214285D01*
X133996428Y-72214285D02*
X133948809Y-72119047D01*
X133330000Y-111638095D02*
X133282380Y-111733333D01*
X133282380Y-111733333D02*
X133282380Y-111876190D01*
X133282380Y-111876190D02*
X133330000Y-112019047D01*
X133330000Y-112019047D02*
X133425238Y-112114285D01*
X133425238Y-112114285D02*
X133520476Y-112161904D01*
X133520476Y-112161904D02*
X133710952Y-112209523D01*
X133710952Y-112209523D02*
X133853809Y-112209523D01*
X133853809Y-112209523D02*
X134044285Y-112161904D01*
X134044285Y-112161904D02*
X134139523Y-112114285D01*
X134139523Y-112114285D02*
X134234761Y-112019047D01*
X134234761Y-112019047D02*
X134282380Y-111876190D01*
X134282380Y-111876190D02*
X134282380Y-111780952D01*
X134282380Y-111780952D02*
X134234761Y-111638095D01*
X134234761Y-111638095D02*
X134187142Y-111590476D01*
X134187142Y-111590476D02*
X133853809Y-111590476D01*
X133853809Y-111590476D02*
X133853809Y-111780952D01*
X134282380Y-111161904D02*
X133282380Y-111161904D01*
X133282380Y-111161904D02*
X134282380Y-110590476D01*
X134282380Y-110590476D02*
X133282380Y-110590476D01*
X134234761Y-110161904D02*
X134282380Y-110019047D01*
X134282380Y-110019047D02*
X134282380Y-109780952D01*
X134282380Y-109780952D02*
X134234761Y-109685714D01*
X134234761Y-109685714D02*
X134187142Y-109638095D01*
X134187142Y-109638095D02*
X134091904Y-109590476D01*
X134091904Y-109590476D02*
X133996666Y-109590476D01*
X133996666Y-109590476D02*
X133901428Y-109638095D01*
X133901428Y-109638095D02*
X133853809Y-109685714D01*
X133853809Y-109685714D02*
X133806190Y-109780952D01*
X133806190Y-109780952D02*
X133758571Y-109971428D01*
X133758571Y-109971428D02*
X133710952Y-110066666D01*
X133710952Y-110066666D02*
X133663333Y-110114285D01*
X133663333Y-110114285D02*
X133568095Y-110161904D01*
X133568095Y-110161904D02*
X133472857Y-110161904D01*
X133472857Y-110161904D02*
X133377619Y-110114285D01*
X133377619Y-110114285D02*
X133330000Y-110066666D01*
X133330000Y-110066666D02*
X133282380Y-109971428D01*
X133282380Y-109971428D02*
X133282380Y-109733333D01*
X133282380Y-109733333D02*
X133330000Y-109590476D01*
X134234761Y-109209523D02*
X134282380Y-109066666D01*
X134282380Y-109066666D02*
X134282380Y-108828571D01*
X134282380Y-108828571D02*
X134234761Y-108733333D01*
X134234761Y-108733333D02*
X134187142Y-108685714D01*
X134187142Y-108685714D02*
X134091904Y-108638095D01*
X134091904Y-108638095D02*
X133996666Y-108638095D01*
X133996666Y-108638095D02*
X133901428Y-108685714D01*
X133901428Y-108685714D02*
X133853809Y-108733333D01*
X133853809Y-108733333D02*
X133806190Y-108828571D01*
X133806190Y-108828571D02*
X133758571Y-109019047D01*
X133758571Y-109019047D02*
X133710952Y-109114285D01*
X133710952Y-109114285D02*
X133663333Y-109161904D01*
X133663333Y-109161904D02*
X133568095Y-109209523D01*
X133568095Y-109209523D02*
X133472857Y-109209523D01*
X133472857Y-109209523D02*
X133377619Y-109161904D01*
X133377619Y-109161904D02*
X133330000Y-109114285D01*
X133330000Y-109114285D02*
X133282380Y-109019047D01*
X133282380Y-109019047D02*
X133282380Y-108780952D01*
X133282380Y-108780952D02*
X133330000Y-108638095D01*
G04 #@! TO.C,R2*
X137233333Y-94967380D02*
X136900000Y-94491190D01*
X136661905Y-94967380D02*
X136661905Y-93967380D01*
X136661905Y-93967380D02*
X137042857Y-93967380D01*
X137042857Y-93967380D02*
X137138095Y-94015000D01*
X137138095Y-94015000D02*
X137185714Y-94062619D01*
X137185714Y-94062619D02*
X137233333Y-94157857D01*
X137233333Y-94157857D02*
X137233333Y-94300714D01*
X137233333Y-94300714D02*
X137185714Y-94395952D01*
X137185714Y-94395952D02*
X137138095Y-94443571D01*
X137138095Y-94443571D02*
X137042857Y-94491190D01*
X137042857Y-94491190D02*
X136661905Y-94491190D01*
X137614286Y-94062619D02*
X137661905Y-94015000D01*
X137661905Y-94015000D02*
X137757143Y-93967380D01*
X137757143Y-93967380D02*
X137995238Y-93967380D01*
X137995238Y-93967380D02*
X138090476Y-94015000D01*
X138090476Y-94015000D02*
X138138095Y-94062619D01*
X138138095Y-94062619D02*
X138185714Y-94157857D01*
X138185714Y-94157857D02*
X138185714Y-94253095D01*
X138185714Y-94253095D02*
X138138095Y-94395952D01*
X138138095Y-94395952D02*
X137566667Y-94967380D01*
X137566667Y-94967380D02*
X138185714Y-94967380D01*
G04 #@! TO.C,R1*
X150967380Y-84066666D02*
X150491190Y-84399999D01*
X150967380Y-84638094D02*
X149967380Y-84638094D01*
X149967380Y-84638094D02*
X149967380Y-84257142D01*
X149967380Y-84257142D02*
X150015000Y-84161904D01*
X150015000Y-84161904D02*
X150062619Y-84114285D01*
X150062619Y-84114285D02*
X150157857Y-84066666D01*
X150157857Y-84066666D02*
X150300714Y-84066666D01*
X150300714Y-84066666D02*
X150395952Y-84114285D01*
X150395952Y-84114285D02*
X150443571Y-84161904D01*
X150443571Y-84161904D02*
X150491190Y-84257142D01*
X150491190Y-84257142D02*
X150491190Y-84638094D01*
X150967380Y-83114285D02*
X150967380Y-83685713D01*
X150967380Y-83399999D02*
X149967380Y-83399999D01*
X149967380Y-83399999D02*
X150110238Y-83495237D01*
X150110238Y-83495237D02*
X150205476Y-83590475D01*
X150205476Y-83590475D02*
X150253095Y-83685713D01*
G04 #@! TO.C,C2*
X136672142Y-91866666D02*
X136719761Y-91914285D01*
X136719761Y-91914285D02*
X136767380Y-92057142D01*
X136767380Y-92057142D02*
X136767380Y-92152380D01*
X136767380Y-92152380D02*
X136719761Y-92295237D01*
X136719761Y-92295237D02*
X136624523Y-92390475D01*
X136624523Y-92390475D02*
X136529285Y-92438094D01*
X136529285Y-92438094D02*
X136338809Y-92485713D01*
X136338809Y-92485713D02*
X136195952Y-92485713D01*
X136195952Y-92485713D02*
X136005476Y-92438094D01*
X136005476Y-92438094D02*
X135910238Y-92390475D01*
X135910238Y-92390475D02*
X135815000Y-92295237D01*
X135815000Y-92295237D02*
X135767380Y-92152380D01*
X135767380Y-92152380D02*
X135767380Y-92057142D01*
X135767380Y-92057142D02*
X135815000Y-91914285D01*
X135815000Y-91914285D02*
X135862619Y-91866666D01*
X135862619Y-91485713D02*
X135815000Y-91438094D01*
X135815000Y-91438094D02*
X135767380Y-91342856D01*
X135767380Y-91342856D02*
X135767380Y-91104761D01*
X135767380Y-91104761D02*
X135815000Y-91009523D01*
X135815000Y-91009523D02*
X135862619Y-90961904D01*
X135862619Y-90961904D02*
X135957857Y-90914285D01*
X135957857Y-90914285D02*
X136053095Y-90914285D01*
X136053095Y-90914285D02*
X136195952Y-90961904D01*
X136195952Y-90961904D02*
X136767380Y-91533332D01*
X136767380Y-91533332D02*
X136767380Y-90914285D01*
G04 #@! TO.C,C3*
X145083333Y-94902142D02*
X145035714Y-94949761D01*
X145035714Y-94949761D02*
X144892857Y-94997380D01*
X144892857Y-94997380D02*
X144797619Y-94997380D01*
X144797619Y-94997380D02*
X144654762Y-94949761D01*
X144654762Y-94949761D02*
X144559524Y-94854523D01*
X144559524Y-94854523D02*
X144511905Y-94759285D01*
X144511905Y-94759285D02*
X144464286Y-94568809D01*
X144464286Y-94568809D02*
X144464286Y-94425952D01*
X144464286Y-94425952D02*
X144511905Y-94235476D01*
X144511905Y-94235476D02*
X144559524Y-94140238D01*
X144559524Y-94140238D02*
X144654762Y-94045000D01*
X144654762Y-94045000D02*
X144797619Y-93997380D01*
X144797619Y-93997380D02*
X144892857Y-93997380D01*
X144892857Y-93997380D02*
X145035714Y-94045000D01*
X145035714Y-94045000D02*
X145083333Y-94092619D01*
X145416667Y-93997380D02*
X146035714Y-93997380D01*
X146035714Y-93997380D02*
X145702381Y-94378333D01*
X145702381Y-94378333D02*
X145845238Y-94378333D01*
X145845238Y-94378333D02*
X145940476Y-94425952D01*
X145940476Y-94425952D02*
X145988095Y-94473571D01*
X145988095Y-94473571D02*
X146035714Y-94568809D01*
X146035714Y-94568809D02*
X146035714Y-94806904D01*
X146035714Y-94806904D02*
X145988095Y-94902142D01*
X145988095Y-94902142D02*
X145940476Y-94949761D01*
X145940476Y-94949761D02*
X145845238Y-94997380D01*
X145845238Y-94997380D02*
X145559524Y-94997380D01*
X145559524Y-94997380D02*
X145464286Y-94949761D01*
X145464286Y-94949761D02*
X145416667Y-94902142D01*
G04 #@! TO.C,U1*
X137538095Y-82567380D02*
X137538095Y-83376904D01*
X137538095Y-83376904D02*
X137585714Y-83472142D01*
X137585714Y-83472142D02*
X137633333Y-83519761D01*
X137633333Y-83519761D02*
X137728571Y-83567380D01*
X137728571Y-83567380D02*
X137919047Y-83567380D01*
X137919047Y-83567380D02*
X138014285Y-83519761D01*
X138014285Y-83519761D02*
X138061904Y-83472142D01*
X138061904Y-83472142D02*
X138109523Y-83376904D01*
X138109523Y-83376904D02*
X138109523Y-82567380D01*
X139109523Y-83567380D02*
X138538095Y-83567380D01*
X138823809Y-83567380D02*
X138823809Y-82567380D01*
X138823809Y-82567380D02*
X138728571Y-82710238D01*
X138728571Y-82710238D02*
X138633333Y-82805476D01*
X138633333Y-82805476D02*
X138538095Y-82853095D01*
G04 #@! TO.C,C4*
X139833333Y-79842142D02*
X139785714Y-79889761D01*
X139785714Y-79889761D02*
X139642857Y-79937380D01*
X139642857Y-79937380D02*
X139547619Y-79937380D01*
X139547619Y-79937380D02*
X139404762Y-79889761D01*
X139404762Y-79889761D02*
X139309524Y-79794523D01*
X139309524Y-79794523D02*
X139261905Y-79699285D01*
X139261905Y-79699285D02*
X139214286Y-79508809D01*
X139214286Y-79508809D02*
X139214286Y-79365952D01*
X139214286Y-79365952D02*
X139261905Y-79175476D01*
X139261905Y-79175476D02*
X139309524Y-79080238D01*
X139309524Y-79080238D02*
X139404762Y-78985000D01*
X139404762Y-78985000D02*
X139547619Y-78937380D01*
X139547619Y-78937380D02*
X139642857Y-78937380D01*
X139642857Y-78937380D02*
X139785714Y-78985000D01*
X139785714Y-78985000D02*
X139833333Y-79032619D01*
X140690476Y-79270714D02*
X140690476Y-79937380D01*
X140452381Y-78889761D02*
X140214286Y-79604047D01*
X140214286Y-79604047D02*
X140833333Y-79604047D01*
G04 #@! TO.C,J1*
X131666666Y-91222380D02*
X131666666Y-91936666D01*
X131666666Y-91936666D02*
X131619047Y-92079523D01*
X131619047Y-92079523D02*
X131523809Y-92174761D01*
X131523809Y-92174761D02*
X131380952Y-92222380D01*
X131380952Y-92222380D02*
X131285714Y-92222380D01*
X132666666Y-92222380D02*
X132095238Y-92222380D01*
X132380952Y-92222380D02*
X132380952Y-91222380D01*
X132380952Y-91222380D02*
X132285714Y-91365238D01*
X132285714Y-91365238D02*
X132190476Y-91460476D01*
X132190476Y-91460476D02*
X132095238Y-91508095D01*
G04 #@! TO.C,C1*
X149172142Y-84166666D02*
X149219761Y-84214285D01*
X149219761Y-84214285D02*
X149267380Y-84357142D01*
X149267380Y-84357142D02*
X149267380Y-84452380D01*
X149267380Y-84452380D02*
X149219761Y-84595237D01*
X149219761Y-84595237D02*
X149124523Y-84690475D01*
X149124523Y-84690475D02*
X149029285Y-84738094D01*
X149029285Y-84738094D02*
X148838809Y-84785713D01*
X148838809Y-84785713D02*
X148695952Y-84785713D01*
X148695952Y-84785713D02*
X148505476Y-84738094D01*
X148505476Y-84738094D02*
X148410238Y-84690475D01*
X148410238Y-84690475D02*
X148315000Y-84595237D01*
X148315000Y-84595237D02*
X148267380Y-84452380D01*
X148267380Y-84452380D02*
X148267380Y-84357142D01*
X148267380Y-84357142D02*
X148315000Y-84214285D01*
X148315000Y-84214285D02*
X148362619Y-84166666D01*
X149267380Y-83214285D02*
X149267380Y-83785713D01*
X149267380Y-83499999D02*
X148267380Y-83499999D01*
X148267380Y-83499999D02*
X148410238Y-83595237D01*
X148410238Y-83595237D02*
X148505476Y-83690475D01*
X148505476Y-83690475D02*
X148553095Y-83785713D01*
D11*
G04 #@! TO.C,R2*
X139437742Y-95222500D02*
X139912258Y-95222500D01*
X139437742Y-94177500D02*
X139912258Y-94177500D01*
G04 #@! TO.C,TP1*
X151500000Y-92000000D02*
G75*
G03*
X151500000Y-92000000I-700000J0D01*
G01*
G04 #@! TO.C,R1*
X150077500Y-86437258D02*
X150077500Y-85962742D01*
X151122500Y-86437258D02*
X151122500Y-85962742D01*
G04 #@! TO.C,C2*
X135890000Y-89540580D02*
X135890000Y-89259420D01*
X136910000Y-89540580D02*
X136910000Y-89259420D01*
G04 #@! TO.C,TP2*
X149700000Y-92000000D02*
G75*
G03*
X149700000Y-92000000I-700000J0D01*
G01*
G04 #@! TO.C,C3*
X145390580Y-93710000D02*
X145109420Y-93710000D01*
X145390580Y-92690000D02*
X145109420Y-92690000D01*
G04 #@! TO.C,TP5*
X151300000Y-89000000D02*
G75*
G03*
X151300000Y-89000000I-700000J0D01*
G01*
G04 #@! TO.C,TP3*
X149700000Y-94000000D02*
G75*
G03*
X149700000Y-94000000I-700000J0D01*
G01*
D12*
G04 #@! TO.C,U1*
X145650000Y-90150000D02*
X139350000Y-90150000D01*
X145650000Y-83850000D02*
X145650000Y-90150000D01*
X139350000Y-90150000D02*
X139350000Y-83850000D01*
X139350000Y-83850000D02*
X145650000Y-83850000D01*
D13*
X147350000Y-90500000D02*
G75*
G03*
X147350000Y-90500000I-125000J0D01*
G01*
D14*
G04 #@! TO.C,ANT1*
X134100000Y-100700000D02*
X134100000Y-100700000D01*
X134200000Y-100700000D02*
X134200000Y-100700000D01*
D12*
X134700000Y-96750000D02*
X137650000Y-96750000D01*
X134700000Y-99700000D02*
X134700000Y-96750000D01*
X134700000Y-109300000D02*
X134700000Y-112250000D01*
X134700000Y-112250000D02*
X137650000Y-112250000D01*
X147250000Y-96750000D02*
X150200000Y-96750000D01*
X150200000Y-96750000D02*
X150200000Y-99700000D01*
X150200000Y-109300000D02*
X150200000Y-112250000D01*
X150200000Y-112250000D02*
X147250000Y-112250000D01*
D14*
X134200000Y-100700000D02*
G75*
G03*
X134100000Y-100700000I-50000J0D01*
G01*
X134100000Y-100700000D02*
G75*
G03*
X134200000Y-100700000I50000J0D01*
G01*
D11*
G04 #@! TO.C,TP4*
X151600000Y-94000000D02*
G75*
G03*
X151600000Y-94000000I-700000J0D01*
G01*
G04 #@! TO.C,C4*
X139859420Y-80490000D02*
X140140580Y-80490000D01*
X139859420Y-81510000D02*
X140140580Y-81510000D01*
G04 #@! TO.C,J1*
X133330000Y-90855000D02*
X132000000Y-90855000D01*
X133330000Y-89525000D02*
X133330000Y-90855000D01*
X133330000Y-88255000D02*
X133330000Y-83115000D01*
X133330000Y-88255000D02*
X130670000Y-88255000D01*
X133330000Y-83115000D02*
X130670000Y-83115000D01*
X130670000Y-88255000D02*
X130670000Y-83115000D01*
G04 #@! TO.C,C1*
X149310000Y-86059420D02*
X149310000Y-86340580D01*
X148290000Y-86059420D02*
X148290000Y-86340580D01*
G04 #@! TO.C,SOM1*
X134595000Y-75500000D02*
X150595000Y-75500000D01*
X150595000Y-75500000D02*
X150595000Y-59500000D01*
X150595000Y-59500000D02*
X134595000Y-59500000D01*
X134595000Y-59500000D02*
X134595000Y-75500000D01*
G04 #@! TD*
M02*
