M48
INCH,TZ
T1C0.0118
T2C0.0157
T3C0.0394
T4C0.1063
%
G90
G05
T1
X53720Y-37972
X53839Y-26791
X53839Y-27569
X53839Y-28346
X53839Y-29035
X54016Y-37874
X54636Y-30915
X54921Y-36811
X55118Y-18504
X55118Y-19291
X55118Y-20079
X55118Y-33307
X55197Y-20866
X55217Y-36811
X55512Y-30906
X55512Y-36811
X55669Y-21654
X55807Y-31890
X55807Y-36811
X56004Y-33169
X56102Y-31791
X56102Y-36811
X56299Y-22126
X56496Y-24409
X56496Y-25197
X56496Y-25984
X56496Y-26772
X56791Y-34941
X56811Y-37087
X57087Y-18504
X57087Y-19291
X57087Y-20079
X57087Y-22441
X57185Y-34941
X57283Y-40079
X57559Y-20551
X57874Y-32441
X57953Y-24173
X58031Y-25827
X58071Y-36220
X58268Y-33386
X58465Y-20866
X58465Y-35630
X58583Y-24488
X58661Y-34646
X58661Y-37894
X59213Y-24488
X59252Y-21457
X59370Y-37598
X59449Y-40000
X59646Y-22244
X59764Y-23228
X59764Y-24094
X59843Y-36890
T2
X52717Y-40394
X53701Y-35906
X54724Y-32165
X55020Y-22441
X55413Y-22441
X56850Y-39134
X57913Y-36496
X58583Y-33228
X60394Y-42165
X60394Y-42598
T3
X51969Y-33246
X51969Y-34246
X51969Y-35246
T4
X52362Y-22047
X52362Y-31496
X59843Y-31496
T0
M30
