G04 #@! TF.GenerationSoftware,KiCad,Pcbnew,(7.0.0)*
G04 #@! TF.CreationDate,2023-03-12T21:45:25+01:00*
G04 #@! TF.ProjectId,tracker,74726163-6b65-4722-9e6b-696361645f70,rev?*
G04 #@! TF.SameCoordinates,Original*
G04 #@! TF.FileFunction,Copper,L1,Top*
G04 #@! TF.FilePolarity,Positive*
%FSLAX46Y46*%
G04 Gerber Fmt 4.6, Leading zero omitted, Abs format (unit mm)*
G04 Created by KiCad (PCBNEW (7.0.0)) date 2023-03-12 21:45:25*
%MOMM*%
%LPD*%
G01*
G04 APERTURE LIST*
G04 Aperture macros list*
%AMRoundRect*
0 Rectangle with rounded corners*
0 $1 Rounding radius*
0 $2 $3 $4 $5 $6 $7 $8 $9 X,Y pos of 4 corners*
0 Add a 4 corners polygon primitive as box body*
4,1,4,$2,$3,$4,$5,$6,$7,$8,$9,$2,$3,0*
0 Add four circle primitives for the rounded corners*
1,1,$1+$1,$2,$3*
1,1,$1+$1,$4,$5*
1,1,$1+$1,$6,$7*
1,1,$1+$1,$8,$9*
0 Add four rect primitives between the rounded corners*
20,1,$1+$1,$2,$3,$4,$5,0*
20,1,$1+$1,$4,$5,$6,$7,0*
20,1,$1+$1,$6,$7,$8,$9,0*
20,1,$1+$1,$8,$9,$2,$3,0*%
G04 Aperture macros list end*
G04 #@! TA.AperFunction,SMDPad,CuDef*
%ADD10RoundRect,0.200000X-0.200000X-0.275000X0.200000X-0.275000X0.200000X0.275000X-0.200000X0.275000X0*%
G04 #@! TD*
G04 #@! TA.AperFunction,SMDPad,CuDef*
%ADD11C,1.000000*%
G04 #@! TD*
G04 #@! TA.AperFunction,SMDPad,CuDef*
%ADD12RoundRect,0.200000X0.275000X-0.200000X0.275000X0.200000X-0.275000X0.200000X-0.275000X-0.200000X0*%
G04 #@! TD*
G04 #@! TA.AperFunction,SMDPad,CuDef*
%ADD13RoundRect,0.225000X0.250000X-0.225000X0.250000X0.225000X-0.250000X0.225000X-0.250000X-0.225000X0*%
G04 #@! TD*
G04 #@! TA.AperFunction,SMDPad,CuDef*
%ADD14RoundRect,0.225000X0.225000X0.250000X-0.225000X0.250000X-0.225000X-0.250000X0.225000X-0.250000X0*%
G04 #@! TD*
G04 #@! TA.AperFunction,ComponentPad*
%ADD15C,3.100000*%
G04 #@! TD*
G04 #@! TA.AperFunction,ConnectorPad*
%ADD16C,4.700000*%
G04 #@! TD*
G04 #@! TA.AperFunction,SMDPad,CuDef*
%ADD17R,1.475000X0.300000*%
G04 #@! TD*
G04 #@! TA.AperFunction,SMDPad,CuDef*
%ADD18R,0.300000X1.475000*%
G04 #@! TD*
G04 #@! TA.AperFunction,SMDPad,CuDef*
%ADD19R,1.800000X1.500000*%
G04 #@! TD*
G04 #@! TA.AperFunction,SMDPad,CuDef*
%ADD20R,1.500000X1.800000*%
G04 #@! TD*
G04 #@! TA.AperFunction,SMDPad,CuDef*
%ADD21RoundRect,0.225000X-0.225000X-0.250000X0.225000X-0.250000X0.225000X0.250000X-0.225000X0.250000X0*%
G04 #@! TD*
G04 #@! TA.AperFunction,ComponentPad*
%ADD22R,1.700000X1.700000*%
G04 #@! TD*
G04 #@! TA.AperFunction,ComponentPad*
%ADD23O,1.700000X1.700000*%
G04 #@! TD*
G04 #@! TA.AperFunction,SMDPad,CuDef*
%ADD24RoundRect,0.225000X-0.250000X0.225000X-0.250000X-0.225000X0.250000X-0.225000X0.250000X0.225000X0*%
G04 #@! TD*
G04 #@! TA.AperFunction,SMDPad,CuDef*
%ADD25R,1.500000X5.080000*%
G04 #@! TD*
G04 #@! TA.AperFunction,SMDPad,CuDef*
%ADD26RoundRect,0.375000X0.375000X-0.875000X0.375000X0.875000X-0.375000X0.875000X-0.375000X-0.875000X0*%
G04 #@! TD*
G04 #@! TA.AperFunction,ViaPad*
%ADD27C,0.450000*%
G04 #@! TD*
G04 #@! TA.AperFunction,ViaPad*
%ADD28C,0.600000*%
G04 #@! TD*
G04 #@! TA.AperFunction,Conductor*
%ADD29C,0.200000*%
G04 #@! TD*
G04 #@! TA.AperFunction,Conductor*
%ADD30C,0.300000*%
G04 #@! TD*
G04 #@! TA.AperFunction,Conductor*
%ADD31C,0.500000*%
G04 #@! TD*
G04 #@! TA.AperFunction,Conductor*
%ADD32C,1.000000*%
G04 #@! TD*
G04 APERTURE END LIST*
D10*
G04 #@! TO.P,R2,1*
G04 #@! TO.N,GND*
X138850000Y-94700000D03*
G04 #@! TO.P,R2,2*
G04 #@! TO.N,/BOOT0*
X140500000Y-94700000D03*
G04 #@! TD*
D11*
G04 #@! TO.P,TP1,1,1*
G04 #@! TO.N,/TP_TX*
X150800000Y-92000000D03*
G04 #@! TD*
D12*
G04 #@! TO.P,R1,1*
G04 #@! TO.N,/RESET_N*
X150600000Y-87025000D03*
G04 #@! TO.P,R1,2*
G04 #@! TO.N,+3.3V*
X150600000Y-85375000D03*
G04 #@! TD*
D13*
G04 #@! TO.P,C2,1*
G04 #@! TO.N,+3.3V*
X136400000Y-90175000D03*
G04 #@! TO.P,C2,2*
G04 #@! TO.N,GND*
X136400000Y-88625000D03*
G04 #@! TD*
D11*
G04 #@! TO.P,TP2,1,1*
G04 #@! TO.N,/TP_RX*
X149000000Y-92000000D03*
G04 #@! TD*
D14*
G04 #@! TO.P,C3,1*
G04 #@! TO.N,+3.3V*
X146025000Y-93200000D03*
G04 #@! TO.P,C3,2*
G04 #@! TO.N,GND*
X144475000Y-93200000D03*
G04 #@! TD*
D11*
G04 #@! TO.P,TP5,1,1*
G04 #@! TO.N,/RESET_N*
X150600000Y-89000000D03*
G04 #@! TD*
G04 #@! TO.P,TP3,1,1*
G04 #@! TO.N,/I2C_SCL*
X149000000Y-94000000D03*
G04 #@! TD*
D15*
G04 #@! TO.P,H1,1,1*
G04 #@! TO.N,GND*
X133000000Y-56000000D03*
D16*
X133000000Y-56000000D03*
G04 #@! TD*
D17*
G04 #@! TO.P,U1,1,PC0*
G04 #@! TO.N,unconnected-(U1A-PC0-Pad1)*
X146737999Y-89749999D03*
G04 #@! TO.P,U1,2,PC13*
G04 #@! TO.N,unconnected-(U1A-PC13-Pad2)*
X146737999Y-89249999D03*
G04 #@! TO.P,U1,3,PC14-OSC32_IN*
G04 #@! TO.N,unconnected-(U1A-PC14-OSC32_IN-Pad3)*
X146737999Y-88749999D03*
G04 #@! TO.P,U1,4,PC15-OSC32_OUT*
G04 #@! TO.N,unconnected-(U1A-PC15-OSC32_OUT-Pad4)*
X146737999Y-88249999D03*
G04 #@! TO.P,U1,5,PH0-OSC_IN*
G04 #@! TO.N,unconnected-(U1A-PH0-OSC_IN-Pad5)*
X146737999Y-87749999D03*
G04 #@! TO.P,U1,6,PH1-OSC_OUT*
G04 #@! TO.N,unconnected-(U1A-PH1-OSC_OUT-Pad6)*
X146737999Y-87249999D03*
G04 #@! TO.P,U1,7,NRST*
G04 #@! TO.N,/RESET_N*
X146737999Y-86749999D03*
G04 #@! TO.P,U1,8,VSSA*
G04 #@! TO.N,GND*
X146737999Y-86249999D03*
G04 #@! TO.P,U1,9,VDDA*
G04 #@! TO.N,+3.3V*
X146737999Y-85749999D03*
G04 #@! TO.P,U1,10,PA0*
G04 #@! TO.N,/ADC_0*
X146737999Y-85249999D03*
G04 #@! TO.P,U1,11,PA1*
G04 #@! TO.N,/ADC_1*
X146737999Y-84749999D03*
G04 #@! TO.P,U1,12,PA2*
G04 #@! TO.N,/MCU_TX*
X146737999Y-84249999D03*
D18*
G04 #@! TO.P,U1,13,PA3*
G04 #@! TO.N,/MCU_RX*
X145249999Y-82761999D03*
G04 #@! TO.P,U1,14,PA4*
G04 #@! TO.N,/SPI_NSS*
X144749999Y-82761999D03*
G04 #@! TO.P,U1,15,PA5*
G04 #@! TO.N,/SPI_SCK*
X144249999Y-82761999D03*
G04 #@! TO.P,U1,16,PA6*
G04 #@! TO.N,/SPI_MISO*
X143749999Y-82761999D03*
G04 #@! TO.P,U1,17,PA7*
G04 #@! TO.N,/SPI_MOSI*
X143249999Y-82761999D03*
G04 #@! TO.P,U1,18,PB0*
G04 #@! TO.N,/ID_0*
X142749999Y-82761999D03*
G04 #@! TO.P,U1,19,PB1*
G04 #@! TO.N,/ID_1*
X142249999Y-82761999D03*
G04 #@! TO.P,U1,20,PB2*
G04 #@! TO.N,/ID_2*
X141749999Y-82761999D03*
G04 #@! TO.P,U1,21,PB10*
G04 #@! TO.N,/TP_TX*
X141249999Y-82761999D03*
G04 #@! TO.P,U1,22,PB11*
G04 #@! TO.N,/TP_RX*
X140749999Y-82761999D03*
G04 #@! TO.P,U1,23,VSS_1*
G04 #@! TO.N,GND*
X140249999Y-82761999D03*
G04 #@! TO.P,U1,24,VDD_1*
G04 #@! TO.N,+3.3V*
X139749999Y-82761999D03*
D17*
G04 #@! TO.P,U1,25,PB12*
G04 #@! TO.N,unconnected-(U1A-PB12-Pad25)*
X138261999Y-84249999D03*
G04 #@! TO.P,U1,26,PB13*
G04 #@! TO.N,/SWDIO*
X138261999Y-84749999D03*
G04 #@! TO.P,U1,27,PB14*
G04 #@! TO.N,/SWCLK*
X138261999Y-85249999D03*
G04 #@! TO.P,U1,28,PB15*
G04 #@! TO.N,unconnected-(U1A-PB15-Pad28)*
X138261999Y-85749999D03*
G04 #@! TO.P,U1,29,PA8*
G04 #@! TO.N,unconnected-(U1A-PA8-Pad29)*
X138261999Y-86249999D03*
G04 #@! TO.P,U1,30,PA9*
G04 #@! TO.N,/I2C_SCL*
X138261999Y-86749999D03*
G04 #@! TO.P,U1,31,PA10*
G04 #@! TO.N,/I2C_SDA*
X138261999Y-87249999D03*
G04 #@! TO.P,U1,32,PA11*
G04 #@! TO.N,unconnected-(U1A-PA11-Pad32)*
X138261999Y-87749999D03*
G04 #@! TO.P,U1,33,PA12*
G04 #@! TO.N,unconnected-(U1A-PA12-Pad33)*
X138261999Y-88249999D03*
G04 #@! TO.P,U1,34,PA13*
G04 #@! TO.N,unconnected-(U1A-PA13-Pad34)*
X138261999Y-88749999D03*
G04 #@! TO.P,U1,35,VSS_2*
G04 #@! TO.N,GND*
X138261999Y-89249999D03*
G04 #@! TO.P,U1,36,VDD_2*
G04 #@! TO.N,+3.3V*
X138261999Y-89749999D03*
D18*
G04 #@! TO.P,U1,37,PA14*
G04 #@! TO.N,unconnected-(U1A-PA14-Pad37)*
X139749999Y-91237999D03*
G04 #@! TO.P,U1,38,PA15*
G04 #@! TO.N,unconnected-(U1A-PA15-Pad38)*
X140249999Y-91237999D03*
G04 #@! TO.P,U1,39,PB3*
G04 #@! TO.N,/ID_3*
X140749999Y-91237999D03*
G04 #@! TO.P,U1,40,PB4*
G04 #@! TO.N,/ID_4*
X141249999Y-91237999D03*
G04 #@! TO.P,U1,41,PB5*
G04 #@! TO.N,/ID_5*
X141749999Y-91237999D03*
G04 #@! TO.P,U1,42,PB6*
G04 #@! TO.N,/ID_6*
X142249999Y-91237999D03*
G04 #@! TO.P,U1,43,PB7*
G04 #@! TO.N,/ID_7*
X142749999Y-91237999D03*
G04 #@! TO.P,U1,44,BOOT0*
G04 #@! TO.N,/BOOT0*
X143249999Y-91237999D03*
G04 #@! TO.P,U1,45,PB8*
G04 #@! TO.N,/LORA_INT*
X143749999Y-91237999D03*
G04 #@! TO.P,U1,46,PB9*
G04 #@! TO.N,/GNSS_INT*
X144249999Y-91237999D03*
G04 #@! TO.P,U1,47,VSS_3*
G04 #@! TO.N,GND*
X144749999Y-91237999D03*
G04 #@! TO.P,U1,48,VDD_3*
G04 #@! TO.N,+3.3V*
X145249999Y-91237999D03*
G04 #@! TD*
D19*
G04 #@! TO.P,ANT1,1,GND_1*
G04 #@! TO.N,GND*
X135849999Y-100699999D03*
G04 #@! TO.P,ANT1,2,V_IO*
G04 #@! TO.N,+3.3V*
X135849999Y-102599999D03*
G04 #@! TO.P,ANT1,3,V_BCKP*
X135849999Y-104499999D03*
G04 #@! TO.P,ANT1,4,GND_2*
G04 #@! TO.N,GND*
X135849999Y-106399999D03*
G04 #@! TO.P,ANT1,5,GND_3*
X135849999Y-108299999D03*
D20*
G04 #@! TO.P,ANT1,6,GND_4*
X138649999Y-111099999D03*
G04 #@! TO.P,ANT1,7,TIMEPULSE*
G04 #@! TO.N,unconnected-(ANT1-TIMEPULSE-Pad7)*
X140549999Y-111099999D03*
G04 #@! TO.P,ANT1,8,SAFEBOOT_N*
G04 #@! TO.N,unconnected-(ANT1-SAFEBOOT_N-Pad8)*
X142449999Y-111099999D03*
G04 #@! TO.P,ANT1,9,SDA*
G04 #@! TO.N,unconnected-(ANT1-SDA-Pad9)*
X144349999Y-111099999D03*
G04 #@! TO.P,ANT1,10,GND_5*
G04 #@! TO.N,GND*
X146249999Y-111099999D03*
D19*
G04 #@! TO.P,ANT1,11,GND_6*
X149049999Y-108299999D03*
G04 #@! TO.P,ANT1,12,SCL*
G04 #@! TO.N,unconnected-(ANT1-SCL-Pad12)*
X149049999Y-106399999D03*
G04 #@! TO.P,ANT1,13,TXD*
G04 #@! TO.N,/MCU_RX*
X149049999Y-104499999D03*
G04 #@! TO.P,ANT1,14,RXD*
G04 #@! TO.N,/MCU_TX*
X149049999Y-102599999D03*
G04 #@! TO.P,ANT1,15,GND_7*
G04 #@! TO.N,GND*
X149049999Y-100699999D03*
D20*
G04 #@! TO.P,ANT1,16,GND_8*
X146249999Y-97899999D03*
G04 #@! TO.P,ANT1,17,VCC*
G04 #@! TO.N,+3.3V*
X144349999Y-97899999D03*
G04 #@! TO.P,ANT1,18,RESET_N*
G04 #@! TO.N,/RESET_N*
X142449999Y-97899999D03*
G04 #@! TO.P,ANT1,19,EXTINT*
G04 #@! TO.N,/GNSS_INT*
X140549999Y-97899999D03*
G04 #@! TO.P,ANT1,20,GND_9*
G04 #@! TO.N,GND*
X138649999Y-97899999D03*
G04 #@! TD*
D11*
G04 #@! TO.P,TP4,1,1*
G04 #@! TO.N,/I2C_SDA*
X150900000Y-94000000D03*
G04 #@! TD*
D21*
G04 #@! TO.P,C4,1*
G04 #@! TO.N,+3.3V*
X139225000Y-81000000D03*
G04 #@! TO.P,C4,2*
G04 #@! TO.N,GND*
X140775000Y-81000000D03*
G04 #@! TD*
D15*
G04 #@! TO.P,H2,1,1*
G04 #@! TO.N,GND*
X152000000Y-80000000D03*
D16*
X152000000Y-80000000D03*
G04 #@! TD*
D22*
G04 #@! TO.P,J1,1,Pin_1*
G04 #@! TO.N,GND*
X131999999Y-89524999D03*
D23*
G04 #@! TO.P,J1,2,Pin_2*
G04 #@! TO.N,/SWCLK*
X131999999Y-86984999D03*
G04 #@! TO.P,J1,3,Pin_3*
G04 #@! TO.N,/SWDIO*
X131999999Y-84444999D03*
G04 #@! TD*
D24*
G04 #@! TO.P,C1,1*
G04 #@! TO.N,+3.3V*
X148800000Y-85425000D03*
G04 #@! TO.P,C1,2*
G04 #@! TO.N,GND*
X148800000Y-86975000D03*
G04 #@! TD*
D25*
G04 #@! TO.P,AE1,1,A*
G04 #@! TO.N,Net-(AE1-A)*
X142499999Y-47799999D03*
G04 #@! TO.P,AE1,2,Shield*
G04 #@! TO.N,GND*
X138249999Y-47799999D03*
X146749999Y-47799999D03*
G04 #@! TD*
D15*
G04 #@! TO.P,H3,1,1*
G04 #@! TO.N,GND*
X133000000Y-80000000D03*
D16*
X133000000Y-80000000D03*
G04 #@! TD*
D26*
G04 #@! TO.P,SOM1,1,GND*
G04 #@! TO.N,GND*
X135595000Y-75500000D03*
G04 #@! TO.P,SOM1,2,MISO*
G04 #@! TO.N,/SPI_MISO*
X137595000Y-75500000D03*
G04 #@! TO.P,SOM1,3,MOSI*
G04 #@! TO.N,/SPI_MOSI*
X139595000Y-75500000D03*
G04 #@! TO.P,SOM1,4,SCK*
G04 #@! TO.N,/SPI_SCK*
X141595000Y-75500000D03*
G04 #@! TO.P,SOM1,5,NSS*
G04 #@! TO.N,/SPI_NSS*
X143595000Y-75500000D03*
G04 #@! TO.P,SOM1,6,RESET*
G04 #@! TO.N,/RESET_N*
X145595000Y-75500000D03*
G04 #@! TO.P,SOM1,7,DIO5*
G04 #@! TO.N,unconnected-(SOM1-DIO5-Pad7)*
X147595000Y-75500000D03*
G04 #@! TO.P,SOM1,8,GND*
G04 #@! TO.N,GND*
X149595000Y-75500000D03*
G04 #@! TO.P,SOM1,9,ANT*
G04 #@! TO.N,Net-(AE1-A)*
X149595000Y-59500000D03*
G04 #@! TO.P,SOM1,10,GND*
G04 #@! TO.N,GND*
X147595000Y-59500000D03*
G04 #@! TO.P,SOM1,11,DIO3*
G04 #@! TO.N,unconnected-(SOM1-DIO3-Pad11)*
X145595000Y-59500000D03*
G04 #@! TO.P,SOM1,12,DIO4*
G04 #@! TO.N,unconnected-(SOM1-DIO4-Pad12)*
X143595000Y-59500000D03*
G04 #@! TO.P,SOM1,13,3V3*
G04 #@! TO.N,+3.3V*
X141595000Y-59500000D03*
G04 #@! TO.P,SOM1,14,DIO0*
G04 #@! TO.N,/LORA_INT*
X139595000Y-59500000D03*
G04 #@! TO.P,SOM1,15,DIO1*
G04 #@! TO.N,unconnected-(SOM1-DIO1-Pad15)*
X137595000Y-59500000D03*
G04 #@! TO.P,SOM1,16,DIO2*
G04 #@! TO.N,unconnected-(SOM1-DIO2-Pad16)*
X135595000Y-59500000D03*
G04 #@! TD*
D27*
G04 #@! TO.N,/ADC_0*
X151000000Y-101600000D03*
X152000000Y-93700000D03*
X148000000Y-84800000D03*
G04 #@! TO.N,GND*
X145500000Y-101800000D03*
G04 #@! TO.N,/RESET_N*
X149000000Y-88000000D03*
G04 #@! TO.N,/LORA_INT*
X147400000Y-65600000D03*
X140000000Y-84600000D03*
D28*
G04 #@! TO.N,GND*
X153400000Y-107100000D03*
X153400000Y-108200000D03*
G04 #@! TO.N,+3.3V*
X144400000Y-99400000D03*
X147100000Y-92700000D03*
X133900000Y-102600000D03*
X140750000Y-57000000D03*
D27*
X136750000Y-68050000D03*
X136750000Y-70025000D03*
G04 #@! TO.N,GND*
X143000000Y-56200000D03*
X150500000Y-54500000D03*
X147200000Y-61400000D03*
X146200000Y-52200000D03*
X143500000Y-62000000D03*
X148800000Y-62200000D03*
X145000000Y-47000000D03*
X145000000Y-49000000D03*
X143500000Y-66000000D03*
X140000000Y-47000000D03*
X140000000Y-49000000D03*
X145000000Y-51000000D03*
X140000000Y-51000000D03*
X145000000Y-57000000D03*
X140200000Y-53000000D03*
X143500000Y-68000000D03*
X151800000Y-61200000D03*
X151500000Y-56500000D03*
X150400000Y-62200000D03*
X148500000Y-53000000D03*
X143500000Y-64000000D03*
X141400000Y-55000000D03*
X151800000Y-59000000D03*
D28*
G04 #@! TO.N,+3.3V*
X139750000Y-57000000D03*
X139000000Y-81700000D03*
X148800000Y-84400000D03*
X136400000Y-91200000D03*
D27*
X136750000Y-72000000D03*
X136750000Y-73750000D03*
G04 #@! TO.N,/SPI_MISO*
X138775000Y-78525000D03*
X141000000Y-78500000D03*
G04 #@! TO.N,/TP_TX*
X148500000Y-90500000D03*
X145250000Y-88750000D03*
G04 #@! TO.N,/TP_RX*
X144250000Y-88750000D03*
X147500000Y-92000000D03*
G04 #@! TO.N,/I2C_SDA*
X150800000Y-95500000D03*
X137200000Y-96200000D03*
G04 #@! TO.N,/I2C_SCL*
X149000000Y-96250000D03*
X136450000Y-96450000D03*
G04 #@! TO.N,/RESET_N*
X147000000Y-82400000D03*
X144300000Y-94200000D03*
G04 #@! TO.N,/ID_0*
X142500000Y-80750000D03*
G04 #@! TO.N,/ID_1*
X141750000Y-81000000D03*
G04 #@! TO.N,/ID_2*
X142250000Y-84250000D03*
G04 #@! TO.N,/ID_3*
X139500000Y-93500000D03*
G04 #@! TO.N,/ID_4*
X140250000Y-93500000D03*
G04 #@! TO.N,/ID_5*
X141000000Y-93500000D03*
G04 #@! TO.N,/ID_6*
X141750000Y-93500000D03*
G04 #@! TO.N,/ID_7*
X142500000Y-93500000D03*
G04 #@! TD*
D29*
G04 #@! TO.N,/ADC_0*
X152000000Y-100600000D02*
X151000000Y-101600000D01*
X152000000Y-93700000D02*
X152000000Y-100600000D01*
D30*
G04 #@! TO.N,/I2C_SDA*
X150900000Y-95400000D02*
X150900000Y-94000000D01*
X150800000Y-95500000D02*
X150900000Y-95400000D01*
G04 #@! TO.N,/TP_TX*
X148500000Y-90500000D02*
X149300000Y-90500000D01*
X149300000Y-90500000D02*
X150800000Y-92000000D01*
D29*
G04 #@! TO.N,/ADC_0*
X147550000Y-85250000D02*
X148000000Y-84800000D01*
X146738000Y-85250000D02*
X147550000Y-85250000D01*
D31*
G04 #@! TO.N,+3.3V*
X135850000Y-102600000D02*
X135850000Y-104500000D01*
G04 #@! TO.N,GND*
X144475000Y-93275000D02*
X145200000Y-94000000D01*
X144475000Y-93200000D02*
X144475000Y-93275000D01*
D29*
G04 #@! TO.N,/BOOT0*
X143250000Y-93650000D02*
X142200000Y-94700000D01*
X143250000Y-91238000D02*
X143250000Y-93650000D01*
X142200000Y-94700000D02*
X140500000Y-94700000D01*
G04 #@! TO.N,/GNSS_INT*
X140550000Y-97050000D02*
X140550000Y-97900000D01*
X144250000Y-92050000D02*
X143700000Y-92600000D01*
X143700000Y-93900000D02*
X140550000Y-97050000D01*
X144250000Y-91238000D02*
X144250000Y-92050000D01*
X143700000Y-92600000D02*
X143700000Y-93900000D01*
G04 #@! TO.N,/ID_7*
X142750000Y-93250000D02*
X142750000Y-91238000D01*
X142500000Y-93500000D02*
X142750000Y-93250000D01*
D30*
G04 #@! TO.N,/RESET_N*
X142450000Y-96650000D02*
X142450000Y-97900000D01*
X144300000Y-94800000D02*
X142450000Y-96650000D01*
X144300000Y-94200000D02*
X144300000Y-94800000D01*
G04 #@! TO.N,/MCU_TX*
X152600000Y-101200000D02*
X152600000Y-85900000D01*
G04 #@! TO.N,unconnected-(ANT1-SDA-Pad9)*
X144300000Y-111150000D02*
X144350000Y-111100000D01*
G04 #@! TO.N,/I2C_SCL*
X133750000Y-87750000D02*
X134750000Y-86750000D01*
X133750000Y-93750000D02*
X133750000Y-87750000D01*
X136450000Y-96450000D02*
X133750000Y-93750000D01*
X134750000Y-86750000D02*
X138262000Y-86750000D01*
G04 #@! TO.N,/I2C_SDA*
X134250000Y-93250000D02*
X134250000Y-88250000D01*
X134250000Y-88250000D02*
X135250000Y-87250000D01*
X137200000Y-96200000D02*
X134250000Y-93250000D01*
X135250000Y-87250000D02*
X138262000Y-87250000D01*
G04 #@! TO.N,/RESET_N*
X147000000Y-80500000D02*
X145595000Y-79095000D01*
X147000000Y-82400000D02*
X147000000Y-80500000D01*
X145595000Y-79095000D02*
X145595000Y-75500000D01*
G04 #@! TO.N,/MCU_TX*
X148400000Y-83600000D02*
X147750000Y-84250000D01*
X150300000Y-83600000D02*
X148400000Y-83600000D01*
X151200000Y-102600000D02*
X152600000Y-101200000D01*
X149050000Y-102600000D02*
X151200000Y-102600000D01*
X152600000Y-85900000D02*
X150300000Y-83600000D01*
X147750000Y-84250000D02*
X146738000Y-84250000D01*
G04 #@! TO.N,/MCU_RX*
X153100000Y-102700000D02*
X151300000Y-104500000D01*
X153100000Y-85600000D02*
X153100000Y-102700000D01*
X151300000Y-104500000D02*
X149050000Y-104500000D01*
X145538000Y-83050000D02*
X150550000Y-83050000D01*
X145250000Y-82762000D02*
X145538000Y-83050000D01*
X150550000Y-83050000D02*
X153100000Y-85600000D01*
D29*
G04 #@! TO.N,/LORA_INT*
X142300000Y-63000000D02*
X139595000Y-60295000D01*
X144800000Y-63000000D02*
X142300000Y-63000000D01*
X147400000Y-65600000D02*
X144800000Y-63000000D01*
X139595000Y-60295000D02*
X139595000Y-59500000D01*
X140100000Y-85600000D02*
X140100000Y-84700000D01*
X143750000Y-89250000D02*
X140100000Y-85600000D01*
X140100000Y-84700000D02*
X140000000Y-84600000D01*
X143750000Y-91238000D02*
X143750000Y-89250000D01*
D30*
G04 #@! TO.N,/RESET_N*
X150600000Y-88000000D02*
X150600000Y-88900000D01*
X149000000Y-88000000D02*
X150600000Y-88000000D01*
X150600000Y-87225000D02*
X150400000Y-87025000D01*
X150500000Y-89000000D02*
X150600000Y-88900000D01*
X150600000Y-88900000D02*
X150600000Y-87225000D01*
G04 #@! TO.N,/SPI_MOSI*
X139595000Y-77945000D02*
X139595000Y-75500000D01*
X142150000Y-79400000D02*
X141050000Y-79400000D01*
X141050000Y-79400000D02*
X139595000Y-77945000D01*
X143250000Y-80500000D02*
X142150000Y-79400000D01*
X143250000Y-82762000D02*
X143250000Y-80500000D01*
G04 #@! TO.N,/SPI_MISO*
X138700000Y-78450000D02*
X138700000Y-77700000D01*
X138775000Y-78525000D02*
X138700000Y-78450000D01*
X138700000Y-77700000D02*
X137595000Y-76595000D01*
X137595000Y-76595000D02*
X137595000Y-75500000D01*
X142000000Y-78500000D02*
X143750000Y-80250000D01*
X141000000Y-78500000D02*
X142000000Y-78500000D01*
X143750000Y-80250000D02*
X143750000Y-82762000D01*
D31*
G04 #@! TO.N,+3.3V*
X139000000Y-81225000D02*
X139225000Y-81000000D01*
X139000000Y-81700000D02*
X139000000Y-81225000D01*
D32*
X144350000Y-99350000D02*
X144400000Y-99400000D01*
X144350000Y-97900000D02*
X144350000Y-99350000D01*
D31*
X146800000Y-93000000D02*
X147100000Y-92700000D01*
X146025000Y-93000000D02*
X146800000Y-93000000D01*
D32*
X135850000Y-102600000D02*
X133900000Y-102600000D01*
D29*
G04 #@! TO.N,/ID_6*
X142250000Y-93000000D02*
X142250000Y-91238000D01*
X141750000Y-93500000D02*
X142250000Y-93000000D01*
G04 #@! TO.N,/ID_5*
X141750000Y-92750000D02*
X141000000Y-93500000D01*
X141750000Y-91238000D02*
X141750000Y-92750000D01*
G04 #@! TO.N,/ID_4*
X141250000Y-92500000D02*
X141250000Y-91238000D01*
X140250000Y-93500000D02*
X141250000Y-92500000D01*
G04 #@! TO.N,/ID_3*
X140750000Y-92250000D02*
X140750000Y-91238000D01*
X139500000Y-93500000D02*
X140750000Y-92250000D01*
D30*
G04 #@! TO.N,+3.3V*
X145250000Y-92225000D02*
X145250000Y-91238000D01*
X146025000Y-93000000D02*
X145250000Y-92225000D01*
G04 #@! TO.N,GND*
X144750000Y-92725000D02*
X144475000Y-93000000D01*
X144750000Y-91238000D02*
X144750000Y-92725000D01*
G04 #@! TO.N,/TP_RX*
X140750000Y-85250000D02*
X140750000Y-82762000D01*
X144250000Y-88750000D02*
X140750000Y-85250000D01*
G04 #@! TO.N,/TP_TX*
X141250000Y-84750000D02*
X141250000Y-82762000D01*
X145250000Y-88750000D02*
X141250000Y-84750000D01*
D32*
G04 #@! TO.N,+3.3V*
X141595000Y-57845000D02*
X141595000Y-59500000D01*
X140750000Y-57000000D02*
X141595000Y-57845000D01*
X139750000Y-57000000D02*
X140750000Y-57000000D01*
D31*
X136750000Y-70025000D02*
X136750000Y-68050000D01*
X136750000Y-72000000D02*
X136750000Y-70025000D01*
X136750000Y-73750000D02*
X136750000Y-72000000D01*
D32*
G04 #@! TO.N,Net-(AE1-A)*
X147237095Y-55169166D02*
X144857904Y-54330833D01*
X142500000Y-51000000D02*
X142500000Y-48362500D01*
X149595000Y-58500000D02*
X149595000Y-59500000D01*
X149594974Y-58499999D02*
G75*
G03*
X147237095Y-55169166I-3531574J-1D01*
G01*
X142500027Y-51000000D02*
G75*
G03*
X144857904Y-54330833I3531573J0D01*
G01*
D30*
G04 #@! TO.N,GND*
X140250000Y-82762000D02*
X140250000Y-81525000D01*
X138262000Y-89250000D02*
X137025000Y-89250000D01*
X148075000Y-86250000D02*
X148800000Y-86975000D01*
X137025000Y-89250000D02*
X136400000Y-88625000D01*
X140250000Y-81525000D02*
X140775000Y-81000000D01*
X146738000Y-86250000D02*
X148075000Y-86250000D01*
G04 #@! TO.N,+3.3V*
X148475000Y-85750000D02*
X146738000Y-85750000D01*
D31*
X136400000Y-91200000D02*
X136400000Y-90175000D01*
X148850000Y-85375000D02*
X148800000Y-85425000D01*
X150400000Y-85375000D02*
X148850000Y-85375000D01*
D30*
X136825000Y-89750000D02*
X136400000Y-90175000D01*
D31*
X148800000Y-84400000D02*
X148800000Y-85425000D01*
D30*
X148800000Y-85425000D02*
X148475000Y-85750000D01*
X139750000Y-81525000D02*
X139750000Y-82762000D01*
X139225000Y-81000000D02*
X139750000Y-81525000D01*
X138262000Y-89750000D02*
X136825000Y-89750000D01*
G04 #@! TO.N,/SPI_NSS*
X143595000Y-75500000D02*
X143595000Y-78595000D01*
X144750000Y-79750000D02*
X144750000Y-82762000D01*
X143595000Y-78595000D02*
X144750000Y-79750000D01*
G04 #@! TO.N,/SPI_SCK*
X141595000Y-77345000D02*
X144250000Y-80000000D01*
X141595000Y-75500000D02*
X141595000Y-77345000D01*
X144250000Y-80000000D02*
X144250000Y-82762000D01*
G04 #@! TO.N,/TP_RX*
X147500000Y-92000000D02*
X149000000Y-92000000D01*
G04 #@! TO.N,/SWDIO*
X132305000Y-84750000D02*
X132000000Y-84445000D01*
X138262000Y-84750000D02*
X132305000Y-84750000D01*
G04 #@! TO.N,/SWCLK*
X138262000Y-85250000D02*
X133735000Y-85250000D01*
X133735000Y-85250000D02*
X132000000Y-86985000D01*
G04 #@! TO.N,unconnected-(ANT1-SDA-Pad9)*
X144250000Y-111200000D02*
X144350000Y-111100000D01*
G04 #@! TO.N,/I2C_SCL*
X149000000Y-96250000D02*
X149000000Y-94000000D01*
G04 #@! TO.N,/RESET_N*
X147692894Y-86750000D02*
X147900000Y-86957106D01*
X147900000Y-86957106D02*
X147900000Y-87500000D01*
X146738000Y-86750000D02*
X147692894Y-86750000D01*
X147900000Y-87500000D02*
X148400000Y-88000000D01*
X148400000Y-88000000D02*
X149000000Y-88000000D01*
D29*
G04 #@! TO.N,/ID_0*
X142750000Y-82762000D02*
X142750000Y-81000000D01*
X142750000Y-81000000D02*
X142500000Y-80750000D01*
G04 #@! TO.N,/ID_1*
X141750000Y-81000000D02*
X142250000Y-81500000D01*
X142250000Y-81500000D02*
X142250000Y-82762000D01*
G04 #@! TO.N,/ID_2*
X141750000Y-82762000D02*
X141750000Y-83750000D01*
X141750000Y-83750000D02*
X142250000Y-84250000D01*
G04 #@! TD*
G04 #@! TA.AperFunction,Conductor*
G04 #@! TO.N,GND*
G36*
X141483500Y-45416613D02*
G01*
X141528887Y-45462000D01*
X141545500Y-45524000D01*
X141545500Y-50354048D01*
X141545500Y-50354058D01*
X141545501Y-50360138D01*
X141546687Y-50366102D01*
X141546688Y-50366109D01*
X141546690Y-50366118D01*
X141557366Y-50419792D01*
X141602564Y-50487436D01*
X141670208Y-50532634D01*
X141695686Y-50537702D01*
X141695691Y-50537703D01*
X141746986Y-50560944D01*
X141782712Y-50604476D01*
X141795500Y-50659320D01*
X141795500Y-50920618D01*
X141795499Y-50920622D01*
X141795499Y-51000000D01*
X141795500Y-51000000D01*
X141795500Y-51042611D01*
X141795508Y-51042685D01*
X141795515Y-51042910D01*
X141795481Y-51183764D01*
X141795481Y-51183779D01*
X141795481Y-51186511D01*
X141795721Y-51189237D01*
X141795722Y-51189248D01*
X141828024Y-51555364D01*
X141828025Y-51555376D01*
X141828265Y-51558089D01*
X141828743Y-51560780D01*
X141828744Y-51560783D01*
X141840695Y-51627986D01*
X141893579Y-51925349D01*
X141990917Y-52285447D01*
X141991848Y-52287983D01*
X141991852Y-52287994D01*
X142068113Y-52495620D01*
X142119527Y-52635597D01*
X142120682Y-52638051D01*
X142120684Y-52638055D01*
X142277249Y-52970617D01*
X142277255Y-52970629D01*
X142278413Y-52973088D01*
X142466345Y-53295310D01*
X142467910Y-53297521D01*
X142467916Y-53297530D01*
X142536510Y-53394428D01*
X142681869Y-53599768D01*
X142923317Y-53884106D01*
X143188821Y-54146124D01*
X143313940Y-54249556D01*
X143474211Y-54382047D01*
X143474219Y-54382053D01*
X143476325Y-54383794D01*
X143783604Y-54595276D01*
X144108281Y-54778933D01*
X144447843Y-54933345D01*
X144450414Y-54934250D01*
X144450416Y-54934251D01*
X144621685Y-54994554D01*
X144658067Y-55007374D01*
X144698634Y-55021669D01*
X144697348Y-55025317D01*
X144697350Y-55025317D01*
X144698636Y-55021669D01*
X146999689Y-55832469D01*
X147006142Y-55834947D01*
X147168153Y-55902451D01*
X147288672Y-55952667D01*
X147301166Y-55958715D01*
X147565697Y-56105569D01*
X147577435Y-56112974D01*
X147823908Y-56288483D01*
X147834737Y-56297147D01*
X147985517Y-56432297D01*
X148060051Y-56499105D01*
X148069850Y-56508932D01*
X148148222Y-56596859D01*
X148271167Y-56734792D01*
X148279809Y-56745655D01*
X148454632Y-56992618D01*
X148462005Y-57004378D01*
X148608121Y-57269316D01*
X148614134Y-57281827D01*
X148729727Y-57561442D01*
X148734304Y-57574547D01*
X148817922Y-57865335D01*
X148821005Y-57878869D01*
X148856815Y-58090013D01*
X148849987Y-58156054D01*
X148817337Y-58199446D01*
X148818891Y-58201000D01*
X148813139Y-58206751D01*
X148806696Y-58211696D01*
X148801752Y-58218138D01*
X148801750Y-58218141D01*
X148718755Y-58326302D01*
X148718752Y-58326305D01*
X148713808Y-58332750D01*
X148710699Y-58340254D01*
X148710698Y-58340257D01*
X148658526Y-58466210D01*
X148658524Y-58466215D01*
X148655416Y-58473720D01*
X148654356Y-58481771D01*
X148654354Y-58481779D01*
X148641029Y-58582999D01*
X148640500Y-58587020D01*
X148640500Y-60412980D01*
X148641028Y-60416996D01*
X148641029Y-60417000D01*
X148654354Y-60518220D01*
X148654355Y-60518226D01*
X148655416Y-60526280D01*
X148713808Y-60667250D01*
X148806696Y-60788304D01*
X148927750Y-60881192D01*
X149068720Y-60939584D01*
X149182020Y-60954500D01*
X150003927Y-60954500D01*
X150007980Y-60954500D01*
X150121280Y-60939584D01*
X150262250Y-60881192D01*
X150383304Y-60788304D01*
X150476192Y-60667250D01*
X150534584Y-60526280D01*
X150549500Y-60412980D01*
X150549500Y-58587020D01*
X150534584Y-58473720D01*
X150476192Y-58332750D01*
X150383304Y-58211696D01*
X150327043Y-58168525D01*
X150293839Y-58129832D01*
X150279011Y-58081049D01*
X150266736Y-57941909D01*
X150201422Y-57574650D01*
X150104083Y-57214552D01*
X149975473Y-56864402D01*
X149816587Y-56526910D01*
X149628655Y-56204688D01*
X149413131Y-55900230D01*
X149411375Y-55898162D01*
X149411368Y-55898153D01*
X149173448Y-55617972D01*
X149171682Y-55615892D01*
X148906179Y-55353874D01*
X148830480Y-55291296D01*
X148620788Y-55117951D01*
X148620777Y-55117943D01*
X148618675Y-55116205D01*
X148311395Y-54904723D01*
X147986718Y-54721065D01*
X147984240Y-54719938D01*
X147984228Y-54719932D01*
X147649660Y-54567791D01*
X147649647Y-54567785D01*
X147647156Y-54566653D01*
X147471231Y-54504711D01*
X147396375Y-54478333D01*
X147396368Y-54478331D01*
X147396365Y-54478330D01*
X147396363Y-54478329D01*
X147396348Y-54478325D01*
X145095316Y-53667531D01*
X145088833Y-53665041D01*
X144806327Y-53547331D01*
X144793833Y-53541283D01*
X144529301Y-53394428D01*
X144517561Y-53387022D01*
X144271096Y-53211519D01*
X144260257Y-53202847D01*
X144034948Y-53000893D01*
X144025147Y-52991064D01*
X144011228Y-52975448D01*
X143823827Y-52765199D01*
X143815190Y-52754343D01*
X143640367Y-52507380D01*
X143632994Y-52495620D01*
X143515634Y-52282824D01*
X143486876Y-52230680D01*
X143480865Y-52218172D01*
X143365272Y-51938555D01*
X143360695Y-51925450D01*
X143277078Y-51634664D01*
X143273995Y-51621130D01*
X143223403Y-51322829D01*
X143221851Y-51309035D01*
X143204694Y-51002979D01*
X143204500Y-50996039D01*
X143204500Y-50659320D01*
X143217288Y-50604476D01*
X143253015Y-50560943D01*
X143304311Y-50537702D01*
X143329792Y-50532634D01*
X143397436Y-50487436D01*
X143442634Y-50419792D01*
X143454500Y-50360139D01*
X143454499Y-45523999D01*
X143471112Y-45462000D01*
X143516499Y-45416613D01*
X143578499Y-45400000D01*
X149376000Y-45400000D01*
X149438000Y-45416613D01*
X149483387Y-45462000D01*
X149500000Y-45524000D01*
X149500000Y-50500000D01*
X149508638Y-50508637D01*
X149508638Y-50508638D01*
X153963681Y-54963681D01*
X153990561Y-55003909D01*
X154000000Y-55051362D01*
X154000000Y-62876000D01*
X153983387Y-62938000D01*
X153938000Y-62983387D01*
X153876000Y-63000000D01*
X151400000Y-63000000D01*
X151400000Y-62400000D01*
X149400000Y-62400000D01*
X149400000Y-63000000D01*
X147260832Y-63000000D01*
X147206218Y-62987325D01*
X147162769Y-62951892D01*
X145771660Y-61154392D01*
X145746358Y-61091037D01*
X145758398Y-61023886D01*
X145804134Y-60973267D01*
X145869723Y-60954500D01*
X146003927Y-60954500D01*
X146007980Y-60954500D01*
X146121280Y-60939584D01*
X146262250Y-60881192D01*
X146383304Y-60788304D01*
X146476192Y-60667250D01*
X146534584Y-60526280D01*
X146549500Y-60412980D01*
X146549500Y-58587020D01*
X146534584Y-58473720D01*
X146476192Y-58332750D01*
X146383304Y-58211696D01*
X146367339Y-58199446D01*
X146268697Y-58123755D01*
X146262250Y-58118808D01*
X146254742Y-58115698D01*
X146128789Y-58063526D01*
X146128786Y-58063525D01*
X146121280Y-58060416D01*
X146113226Y-58059355D01*
X146113220Y-58059354D01*
X146012000Y-58046029D01*
X146011996Y-58046028D01*
X146007980Y-58045500D01*
X145182020Y-58045500D01*
X145178004Y-58046028D01*
X145177999Y-58046029D01*
X145076779Y-58059354D01*
X145076771Y-58059356D01*
X145068720Y-58060416D01*
X145061215Y-58063524D01*
X145061210Y-58063526D01*
X144935257Y-58115698D01*
X144935254Y-58115699D01*
X144927750Y-58118808D01*
X144921305Y-58123752D01*
X144921302Y-58123755D01*
X144813142Y-58206749D01*
X144813140Y-58206751D01*
X144806696Y-58211696D01*
X144801752Y-58218138D01*
X144801749Y-58218142D01*
X144718755Y-58326302D01*
X144718752Y-58326305D01*
X144713808Y-58332750D01*
X144710699Y-58340254D01*
X144710698Y-58340257D01*
X144709561Y-58343003D01*
X144707380Y-58346004D01*
X144706634Y-58347297D01*
X144706498Y-58347218D01*
X144675531Y-58389841D01*
X144623947Y-58416124D01*
X144566053Y-58416124D01*
X144514469Y-58389841D01*
X144483501Y-58347218D01*
X144483366Y-58347297D01*
X144482619Y-58346004D01*
X144480439Y-58343003D01*
X144480347Y-58342781D01*
X144476192Y-58332750D01*
X144383304Y-58211696D01*
X144367339Y-58199446D01*
X144268697Y-58123755D01*
X144262250Y-58118808D01*
X144254742Y-58115698D01*
X144128789Y-58063526D01*
X144128786Y-58063525D01*
X144121280Y-58060416D01*
X144113226Y-58059355D01*
X144113220Y-58059354D01*
X144012000Y-58046029D01*
X144011996Y-58046028D01*
X144007980Y-58045500D01*
X143426480Y-58045500D01*
X143371866Y-58032825D01*
X143328417Y-57997392D01*
X142752405Y-57253108D01*
X142750000Y-57250000D01*
X141250000Y-55750000D01*
X141248251Y-55748494D01*
X135543100Y-50837103D01*
X135511289Y-50794821D01*
X135500000Y-50743128D01*
X135500000Y-45524000D01*
X135516613Y-45462000D01*
X135562000Y-45416613D01*
X135624000Y-45400000D01*
X141421500Y-45400000D01*
X141483500Y-45416613D01*
G37*
G04 #@! TD.AperFunction*
G04 #@! TD*
G04 #@! TA.AperFunction,Conductor*
G04 #@! TO.N,GND*
G36*
X135031912Y-51057842D02*
G01*
X135087642Y-51091293D01*
X139790269Y-55989864D01*
X139822465Y-56051699D01*
X139816209Y-56121133D01*
X139773478Y-56176218D01*
X139707895Y-56199500D01*
X139705046Y-56199500D01*
X139701610Y-56199887D01*
X139701594Y-56199888D01*
X139577666Y-56213852D01*
X139577664Y-56213852D01*
X139570745Y-56214632D01*
X139564176Y-56216930D01*
X139564174Y-56216931D01*
X139407043Y-56271913D01*
X139407036Y-56271915D01*
X139400478Y-56274211D01*
X139394590Y-56277910D01*
X139394587Y-56277912D01*
X139253638Y-56366476D01*
X139253633Y-56366479D01*
X139247738Y-56370184D01*
X139242813Y-56375108D01*
X139242809Y-56375112D01*
X139125112Y-56492809D01*
X139125108Y-56492813D01*
X139120184Y-56497738D01*
X139116479Y-56503633D01*
X139116476Y-56503638D01*
X139027912Y-56644587D01*
X139027910Y-56644590D01*
X139024211Y-56650478D01*
X139021915Y-56657036D01*
X139021913Y-56657043D01*
X138966930Y-56814175D01*
X138966928Y-56814182D01*
X138964632Y-56820745D01*
X138944435Y-57000000D01*
X138964632Y-57179255D01*
X138966928Y-57185819D01*
X138966930Y-57185824D01*
X139021837Y-57342738D01*
X139024211Y-57349522D01*
X139120184Y-57502262D01*
X139247738Y-57629816D01*
X139253638Y-57633523D01*
X139392070Y-57720506D01*
X139435292Y-57766740D01*
X139450067Y-57828282D01*
X139432546Y-57889100D01*
X139387293Y-57933348D01*
X139326098Y-57949500D01*
X139165406Y-57949500D01*
X139162603Y-57949754D01*
X139162596Y-57949755D01*
X139103876Y-57955091D01*
X139103872Y-57955091D01*
X139097343Y-57955685D01*
X139091089Y-57957633D01*
X139091078Y-57957636D01*
X138947890Y-58002256D01*
X138947883Y-58002258D01*
X138940730Y-58004488D01*
X138934317Y-58008364D01*
X138934312Y-58008367D01*
X138806763Y-58085472D01*
X138806755Y-58085478D01*
X138800347Y-58089352D01*
X138795047Y-58094651D01*
X138795043Y-58094655D01*
X138684352Y-58205347D01*
X138683026Y-58204021D01*
X138649272Y-58231290D01*
X138595000Y-58243798D01*
X138540728Y-58231290D01*
X138506973Y-58204021D01*
X138505648Y-58205347D01*
X138389653Y-58089352D01*
X138383240Y-58085475D01*
X138383236Y-58085472D01*
X138255687Y-58008367D01*
X138255685Y-58008366D01*
X138249270Y-58004488D01*
X138242112Y-58002257D01*
X138242109Y-58002256D01*
X138098921Y-57957636D01*
X138098912Y-57957634D01*
X138092657Y-57955685D01*
X138086125Y-57955091D01*
X138086123Y-57955091D01*
X138027403Y-57949755D01*
X138027397Y-57949754D01*
X138024594Y-57949500D01*
X137165406Y-57949500D01*
X137162603Y-57949754D01*
X137162596Y-57949755D01*
X137103876Y-57955091D01*
X137103872Y-57955091D01*
X137097343Y-57955685D01*
X137091089Y-57957633D01*
X137091078Y-57957636D01*
X136947890Y-58002256D01*
X136947883Y-58002258D01*
X136940730Y-58004488D01*
X136934317Y-58008364D01*
X136934312Y-58008367D01*
X136806763Y-58085472D01*
X136806755Y-58085478D01*
X136800347Y-58089352D01*
X136795047Y-58094651D01*
X136795043Y-58094655D01*
X136684352Y-58205347D01*
X136683026Y-58204021D01*
X136649272Y-58231290D01*
X136595000Y-58243798D01*
X136540728Y-58231290D01*
X136506973Y-58204021D01*
X136505648Y-58205347D01*
X136389653Y-58089352D01*
X136383240Y-58085475D01*
X136383236Y-58085472D01*
X136255687Y-58008367D01*
X136255685Y-58008366D01*
X136249270Y-58004488D01*
X136242112Y-58002257D01*
X136242109Y-58002256D01*
X136098921Y-57957636D01*
X136098912Y-57957634D01*
X136092657Y-57955685D01*
X136086125Y-57955091D01*
X136086123Y-57955091D01*
X136027403Y-57949755D01*
X136027397Y-57949754D01*
X136024594Y-57949500D01*
X135165406Y-57949500D01*
X135162608Y-57949754D01*
X135162591Y-57949755D01*
X135099928Y-57955449D01*
X135043338Y-57947360D01*
X134996390Y-57914744D01*
X134969063Y-57864533D01*
X134967164Y-57807399D01*
X134991097Y-57755485D01*
X135182584Y-57511070D01*
X135186831Y-57504918D01*
X135348810Y-57236973D01*
X135352284Y-57230353D01*
X135480786Y-56944831D01*
X135483436Y-56937843D01*
X135576584Y-56638922D01*
X135578373Y-56631666D01*
X135634811Y-56323690D01*
X135635713Y-56316267D01*
X135654618Y-56003736D01*
X135654618Y-55996264D01*
X135635713Y-55683732D01*
X135634811Y-55676309D01*
X135578373Y-55368333D01*
X135576584Y-55361077D01*
X135483436Y-55062156D01*
X135480786Y-55055168D01*
X135352284Y-54769646D01*
X135348810Y-54763026D01*
X135186831Y-54495081D01*
X135182584Y-54488929D01*
X135053758Y-54324496D01*
X135042557Y-54316426D01*
X135030464Y-54323087D01*
X133000000Y-56353553D01*
X131323087Y-58030464D01*
X131316426Y-58042557D01*
X131324496Y-58053758D01*
X131488929Y-58182584D01*
X131495081Y-58186831D01*
X131763026Y-58348810D01*
X131769646Y-58352284D01*
X132055168Y-58480786D01*
X132062156Y-58483436D01*
X132361077Y-58576584D01*
X132368333Y-58578373D01*
X132676309Y-58634811D01*
X132683732Y-58635713D01*
X132996264Y-58654618D01*
X133003736Y-58654618D01*
X133316267Y-58635713D01*
X133323690Y-58634811D01*
X133631666Y-58578373D01*
X133638922Y-58576584D01*
X133937843Y-58483436D01*
X133944831Y-58480786D01*
X134230353Y-58352284D01*
X134236973Y-58348810D01*
X134402637Y-58248662D01*
X134459300Y-58231005D01*
X134517678Y-58241703D01*
X134564398Y-58278306D01*
X134588756Y-58332427D01*
X134585172Y-58391669D01*
X134552637Y-58496075D01*
X134552634Y-58496085D01*
X134550685Y-58502343D01*
X134544500Y-58570406D01*
X134544500Y-60429594D01*
X134550685Y-60497657D01*
X134552634Y-60503912D01*
X134552636Y-60503921D01*
X134597256Y-60647109D01*
X134597257Y-60647112D01*
X134599488Y-60654270D01*
X134603366Y-60660685D01*
X134603367Y-60660687D01*
X134680472Y-60788236D01*
X134680475Y-60788240D01*
X134684352Y-60794653D01*
X134800347Y-60910648D01*
X134806760Y-60914525D01*
X134806763Y-60914527D01*
X134839907Y-60934563D01*
X134940730Y-60995512D01*
X135002302Y-61014698D01*
X135091078Y-61042363D01*
X135091080Y-61042363D01*
X135097343Y-61044315D01*
X135165406Y-61050500D01*
X136021775Y-61050500D01*
X136024594Y-61050500D01*
X136092657Y-61044315D01*
X136249270Y-60995512D01*
X136389653Y-60910648D01*
X136505648Y-60794653D01*
X136506976Y-60795981D01*
X136540715Y-60768715D01*
X136595000Y-60756201D01*
X136649285Y-60768715D01*
X136683023Y-60795981D01*
X136684352Y-60794653D01*
X136800347Y-60910648D01*
X136806760Y-60914525D01*
X136806763Y-60914527D01*
X136839907Y-60934563D01*
X136940730Y-60995512D01*
X137002302Y-61014698D01*
X137091078Y-61042363D01*
X137091080Y-61042363D01*
X137097343Y-61044315D01*
X137165406Y-61050500D01*
X138021775Y-61050500D01*
X138024594Y-61050500D01*
X138092657Y-61044315D01*
X138249270Y-60995512D01*
X138389653Y-60910648D01*
X138505648Y-60794653D01*
X138506976Y-60795981D01*
X138540715Y-60768715D01*
X138595000Y-60756201D01*
X138649285Y-60768715D01*
X138683023Y-60795981D01*
X138684352Y-60794653D01*
X138800347Y-60910648D01*
X138806760Y-60914525D01*
X138806763Y-60914527D01*
X138839907Y-60934563D01*
X138940730Y-60995512D01*
X139002302Y-61014698D01*
X139091078Y-61042363D01*
X139091080Y-61042363D01*
X139097343Y-61044315D01*
X139165406Y-61050500D01*
X139732745Y-61050500D01*
X139780198Y-61059939D01*
X139820426Y-61086818D01*
X142039091Y-63305484D01*
X142039094Y-63305486D01*
X142061658Y-63328050D01*
X142070353Y-63332480D01*
X142070354Y-63332481D01*
X142081396Y-63338107D01*
X142097980Y-63348269D01*
X142115911Y-63361296D01*
X142136982Y-63368142D01*
X142154951Y-63375585D01*
X142174696Y-63385646D01*
X142196576Y-63389111D01*
X142215501Y-63393655D01*
X142236567Y-63400500D01*
X142268481Y-63400500D01*
X142363433Y-63400500D01*
X144582745Y-63400500D01*
X144630198Y-63409939D01*
X144670426Y-63436819D01*
X146845713Y-65612105D01*
X146869244Y-65644942D01*
X146880971Y-65683599D01*
X146888026Y-65737183D01*
X146940976Y-65865018D01*
X146945922Y-65871464D01*
X146945924Y-65871467D01*
X147020261Y-65968343D01*
X147025209Y-65974791D01*
X147134982Y-66059024D01*
X147262817Y-66111974D01*
X147400000Y-66130035D01*
X147537183Y-66111974D01*
X147665018Y-66059024D01*
X147774791Y-65974791D01*
X147859024Y-65865018D01*
X147911974Y-65737183D01*
X147930035Y-65600000D01*
X147911974Y-65462817D01*
X147859024Y-65334983D01*
X147774791Y-65225209D01*
X147763689Y-65216690D01*
X147671467Y-65145924D01*
X147671464Y-65145922D01*
X147665018Y-65140976D01*
X147632040Y-65127316D01*
X147544697Y-65091138D01*
X147544694Y-65091137D01*
X147537183Y-65088026D01*
X147529123Y-65086964D01*
X147529120Y-65086964D01*
X147483599Y-65080971D01*
X147444942Y-65069244D01*
X147412105Y-65045713D01*
X145060916Y-62694523D01*
X145060915Y-62694522D01*
X145060909Y-62694516D01*
X145060905Y-62694513D01*
X145038342Y-62671950D01*
X145029649Y-62667520D01*
X145029647Y-62667519D01*
X145018598Y-62661889D01*
X145002015Y-62651726D01*
X144991987Y-62644440D01*
X144991980Y-62644436D01*
X144984090Y-62638704D01*
X144963019Y-62631857D01*
X144945044Y-62624412D01*
X144933999Y-62618784D01*
X144933996Y-62618783D01*
X144925304Y-62614354D01*
X144915667Y-62612827D01*
X144915666Y-62612827D01*
X144903418Y-62610887D01*
X144884506Y-62606346D01*
X144872717Y-62602516D01*
X144872714Y-62602515D01*
X144863433Y-62599500D01*
X144853673Y-62599500D01*
X142517255Y-62599500D01*
X142469802Y-62590061D01*
X142429574Y-62563181D01*
X141128574Y-61262181D01*
X141098324Y-61212818D01*
X141093782Y-61155102D01*
X141115937Y-61101615D01*
X141159960Y-61064015D01*
X141216255Y-61050500D01*
X142021775Y-61050500D01*
X142024594Y-61050500D01*
X142092657Y-61044315D01*
X142249270Y-60995512D01*
X142389653Y-60910648D01*
X142505648Y-60794653D01*
X142506976Y-60795981D01*
X142540715Y-60768715D01*
X142595000Y-60756201D01*
X142649285Y-60768715D01*
X142683023Y-60795981D01*
X142684352Y-60794653D01*
X142800347Y-60910648D01*
X142806760Y-60914525D01*
X142806763Y-60914527D01*
X142839907Y-60934563D01*
X142940730Y-60995512D01*
X143002302Y-61014698D01*
X143091078Y-61042363D01*
X143091080Y-61042363D01*
X143097343Y-61044315D01*
X143165406Y-61050500D01*
X144021775Y-61050500D01*
X144024594Y-61050500D01*
X144092657Y-61044315D01*
X144249270Y-60995512D01*
X144383579Y-60914319D01*
X144436103Y-60896983D01*
X144490940Y-60904210D01*
X144537180Y-60934563D01*
X145795133Y-62244930D01*
X147000000Y-63500000D01*
X147012530Y-63500000D01*
X149383674Y-63500000D01*
X149400000Y-63500000D01*
X149400000Y-62400000D01*
X151400000Y-62400000D01*
X151400000Y-63500000D01*
X154376000Y-63500000D01*
X154438000Y-63516613D01*
X154483387Y-63562000D01*
X154500000Y-63624000D01*
X154500000Y-78568315D01*
X154483636Y-78629882D01*
X154438863Y-78675199D01*
X154377498Y-78692306D01*
X154315738Y-78676687D01*
X154269883Y-78632465D01*
X154186831Y-78495081D01*
X154182584Y-78488929D01*
X154053758Y-78324496D01*
X154042557Y-78316426D01*
X154030464Y-78323087D01*
X152365095Y-79988457D01*
X152358431Y-80000000D01*
X152365095Y-80011542D01*
X154030464Y-81676911D01*
X154042557Y-81683572D01*
X154053758Y-81675503D01*
X154182579Y-81511076D01*
X154186834Y-81504913D01*
X154269883Y-81367535D01*
X154315738Y-81323313D01*
X154377498Y-81307694D01*
X154438863Y-81324801D01*
X154483636Y-81370118D01*
X154500000Y-81431685D01*
X154500000Y-114376000D01*
X154483387Y-114438000D01*
X154438000Y-114483387D01*
X154376000Y-114500000D01*
X130624000Y-114500000D01*
X130562000Y-114483387D01*
X130516613Y-114438000D01*
X130500000Y-114376000D01*
X130500000Y-112041214D01*
X137600001Y-112041214D01*
X137600413Y-112048349D01*
X137601835Y-112060606D01*
X137606677Y-112078407D01*
X137643572Y-112161967D01*
X137656338Y-112180603D01*
X137719396Y-112243661D01*
X137738032Y-112256427D01*
X137821598Y-112293325D01*
X137839384Y-112298164D01*
X137851659Y-112299588D01*
X137858781Y-112300000D01*
X138383674Y-112300000D01*
X138396549Y-112296549D01*
X138400000Y-112283674D01*
X138400000Y-112283673D01*
X138900000Y-112283673D01*
X138903450Y-112296548D01*
X138916326Y-112299999D01*
X139441214Y-112299999D01*
X139448349Y-112299586D01*
X139460606Y-112298164D01*
X139478410Y-112293321D01*
X139549294Y-112262023D01*
X139599381Y-112251457D01*
X139649467Y-112262023D01*
X139721472Y-112293816D01*
X139721474Y-112293816D01*
X139730009Y-112297585D01*
X139755135Y-112300500D01*
X141344864Y-112300499D01*
X141369991Y-112297585D01*
X141449913Y-112262295D01*
X141500000Y-112251730D01*
X141550087Y-112262296D01*
X141621474Y-112293817D01*
X141621477Y-112293817D01*
X141630009Y-112297585D01*
X141655135Y-112300500D01*
X143244864Y-112300499D01*
X143269991Y-112297585D01*
X143349913Y-112262295D01*
X143400000Y-112251730D01*
X143450087Y-112262296D01*
X143521474Y-112293817D01*
X143521477Y-112293817D01*
X143530009Y-112297585D01*
X143555135Y-112300500D01*
X145144864Y-112300499D01*
X145169991Y-112297585D01*
X145250532Y-112262022D01*
X145300618Y-112251457D01*
X145350704Y-112262023D01*
X145421592Y-112293323D01*
X145439384Y-112298164D01*
X145451659Y-112299588D01*
X145458781Y-112300000D01*
X145983674Y-112300000D01*
X145996549Y-112296549D01*
X146000000Y-112283674D01*
X146000000Y-112283673D01*
X146500000Y-112283673D01*
X146503450Y-112296548D01*
X146516326Y-112299999D01*
X147041214Y-112299999D01*
X147048349Y-112299586D01*
X147060606Y-112298164D01*
X147078407Y-112293322D01*
X147161967Y-112256427D01*
X147180603Y-112243661D01*
X147243661Y-112180603D01*
X147256427Y-112161967D01*
X147293325Y-112078401D01*
X147298164Y-112060615D01*
X147299588Y-112048340D01*
X147300000Y-112041219D01*
X147300000Y-111366326D01*
X147296549Y-111353450D01*
X147283674Y-111350000D01*
X146516326Y-111350000D01*
X146503450Y-111353450D01*
X146500000Y-111366326D01*
X146500000Y-112283673D01*
X146000000Y-112283673D01*
X146000000Y-110833674D01*
X146500000Y-110833674D01*
X146503450Y-110846549D01*
X146516326Y-110850000D01*
X147283673Y-110850000D01*
X147296548Y-110846549D01*
X147299999Y-110833674D01*
X147299999Y-110158786D01*
X147299586Y-110151650D01*
X147298164Y-110139393D01*
X147293322Y-110121592D01*
X147256427Y-110038032D01*
X147243661Y-110019396D01*
X147180603Y-109956338D01*
X147161967Y-109943572D01*
X147078401Y-109906674D01*
X147060615Y-109901835D01*
X147048340Y-109900411D01*
X147041219Y-109900000D01*
X146516326Y-109900000D01*
X146503450Y-109903450D01*
X146500000Y-109916326D01*
X146500000Y-110833674D01*
X146000000Y-110833674D01*
X146000000Y-109916327D01*
X145996549Y-109903451D01*
X145983674Y-109900001D01*
X145458786Y-109900001D01*
X145451650Y-109900413D01*
X145439393Y-109901835D01*
X145421589Y-109906678D01*
X145350703Y-109937977D01*
X145300618Y-109948542D01*
X145250532Y-109937977D01*
X145178522Y-109906181D01*
X145178517Y-109906179D01*
X145169991Y-109902415D01*
X145160726Y-109901340D01*
X145148414Y-109899911D01*
X145148401Y-109899910D01*
X145144865Y-109899500D01*
X145141290Y-109899500D01*
X143558714Y-109899500D01*
X143558696Y-109899500D01*
X143555136Y-109899501D01*
X143551589Y-109899912D01*
X143551577Y-109899913D01*
X143539277Y-109901340D01*
X143539275Y-109901340D01*
X143530009Y-109902415D01*
X143521479Y-109906180D01*
X143521476Y-109906182D01*
X143450086Y-109937704D01*
X143400000Y-109948269D01*
X143349914Y-109937704D01*
X143278522Y-109906181D01*
X143278517Y-109906179D01*
X143269991Y-109902415D01*
X143260726Y-109901340D01*
X143248414Y-109899911D01*
X143248401Y-109899910D01*
X143244865Y-109899500D01*
X143241290Y-109899500D01*
X141658714Y-109899500D01*
X141658696Y-109899500D01*
X141655136Y-109899501D01*
X141651589Y-109899912D01*
X141651577Y-109899913D01*
X141639277Y-109901340D01*
X141639275Y-109901340D01*
X141630009Y-109902415D01*
X141621479Y-109906180D01*
X141621476Y-109906182D01*
X141550086Y-109937704D01*
X141500000Y-109948269D01*
X141449914Y-109937704D01*
X141378522Y-109906181D01*
X141378517Y-109906179D01*
X141369991Y-109902415D01*
X141360726Y-109901340D01*
X141348414Y-109899911D01*
X141348401Y-109899910D01*
X141344865Y-109899500D01*
X141341290Y-109899500D01*
X139758714Y-109899500D01*
X139758696Y-109899500D01*
X139755136Y-109899501D01*
X139751589Y-109899912D01*
X139751577Y-109899913D01*
X139739277Y-109901340D01*
X139739275Y-109901340D01*
X139730009Y-109902415D01*
X139721478Y-109906181D01*
X139721473Y-109906183D01*
X139649466Y-109937977D01*
X139599381Y-109948542D01*
X139549295Y-109937977D01*
X139478401Y-109906674D01*
X139460615Y-109901835D01*
X139448340Y-109900411D01*
X139441219Y-109900000D01*
X138916326Y-109900000D01*
X138903450Y-109903450D01*
X138900000Y-109916326D01*
X138900000Y-112283673D01*
X138400000Y-112283673D01*
X138400000Y-111366326D01*
X138396549Y-111353450D01*
X138383674Y-111350000D01*
X137616327Y-111350000D01*
X137603451Y-111353450D01*
X137600001Y-111366326D01*
X137600001Y-112041214D01*
X130500000Y-112041214D01*
X130500000Y-110833674D01*
X137600000Y-110833674D01*
X137603450Y-110846549D01*
X137616326Y-110850000D01*
X138383674Y-110850000D01*
X138396549Y-110846549D01*
X138400000Y-110833674D01*
X138400000Y-109916327D01*
X138396549Y-109903451D01*
X138383674Y-109900001D01*
X137858786Y-109900001D01*
X137851650Y-109900413D01*
X137839393Y-109901835D01*
X137821592Y-109906677D01*
X137738032Y-109943572D01*
X137719396Y-109956338D01*
X137656338Y-110019396D01*
X137643572Y-110038032D01*
X137606674Y-110121598D01*
X137601835Y-110139384D01*
X137600411Y-110151659D01*
X137600000Y-110158781D01*
X137600000Y-110833674D01*
X130500000Y-110833674D01*
X130500000Y-109091214D01*
X134650001Y-109091214D01*
X134650413Y-109098349D01*
X134651835Y-109110606D01*
X134656677Y-109128407D01*
X134693572Y-109211967D01*
X134706338Y-109230603D01*
X134769396Y-109293661D01*
X134788032Y-109306427D01*
X134871598Y-109343325D01*
X134889384Y-109348164D01*
X134901659Y-109349588D01*
X134908781Y-109350000D01*
X135583674Y-109350000D01*
X135596549Y-109346549D01*
X135600000Y-109333674D01*
X135600000Y-109333673D01*
X136100000Y-109333673D01*
X136103450Y-109346548D01*
X136116326Y-109349999D01*
X136791214Y-109349999D01*
X136798349Y-109349586D01*
X136810606Y-109348164D01*
X136828407Y-109343322D01*
X136911967Y-109306427D01*
X136930603Y-109293661D01*
X136993661Y-109230603D01*
X137006427Y-109211967D01*
X137043325Y-109128401D01*
X137048164Y-109110615D01*
X137049588Y-109098340D01*
X137050000Y-109091219D01*
X137050000Y-109091214D01*
X147850001Y-109091214D01*
X147850413Y-109098349D01*
X147851835Y-109110606D01*
X147856677Y-109128407D01*
X147893572Y-109211967D01*
X147906338Y-109230603D01*
X147969396Y-109293661D01*
X147988032Y-109306427D01*
X148071598Y-109343325D01*
X148089384Y-109348164D01*
X148101659Y-109349588D01*
X148108781Y-109350000D01*
X148783674Y-109350000D01*
X148796549Y-109346549D01*
X148800000Y-109333674D01*
X148800000Y-109333673D01*
X149300000Y-109333673D01*
X149303450Y-109346548D01*
X149316326Y-109349999D01*
X149991214Y-109349999D01*
X149998349Y-109349586D01*
X150010606Y-109348164D01*
X150028407Y-109343322D01*
X150111967Y-109306427D01*
X150130603Y-109293661D01*
X150193661Y-109230603D01*
X150206427Y-109211967D01*
X150243325Y-109128401D01*
X150248164Y-109110615D01*
X150249588Y-109098340D01*
X150250000Y-109091219D01*
X150250000Y-108566326D01*
X150246549Y-108553450D01*
X150233674Y-108550000D01*
X149316326Y-108550000D01*
X149303450Y-108553450D01*
X149300000Y-108566326D01*
X149300000Y-109333673D01*
X148800000Y-109333673D01*
X148800000Y-108566326D01*
X148796549Y-108553450D01*
X148783674Y-108550000D01*
X147866327Y-108550000D01*
X147853451Y-108553450D01*
X147850001Y-108566326D01*
X147850001Y-109091214D01*
X137050000Y-109091214D01*
X137050000Y-108566326D01*
X137046549Y-108553450D01*
X137033674Y-108550000D01*
X136116326Y-108550000D01*
X136103450Y-108553450D01*
X136100000Y-108566326D01*
X136100000Y-109333673D01*
X135600000Y-109333673D01*
X135600000Y-108566326D01*
X135596549Y-108553450D01*
X135583674Y-108550000D01*
X134666327Y-108550000D01*
X134653451Y-108553450D01*
X134650001Y-108566326D01*
X134650001Y-109091214D01*
X130500000Y-109091214D01*
X130500000Y-108033674D01*
X134650000Y-108033674D01*
X134653450Y-108046549D01*
X134666326Y-108050000D01*
X135583674Y-108050000D01*
X135596549Y-108046549D01*
X135600000Y-108033674D01*
X136100000Y-108033674D01*
X136103450Y-108046549D01*
X136116326Y-108050000D01*
X137033673Y-108050000D01*
X137046548Y-108046549D01*
X137049999Y-108033674D01*
X137049999Y-107508786D01*
X137049586Y-107501650D01*
X137048164Y-107489393D01*
X137043322Y-107471592D01*
X137011749Y-107400085D01*
X137001184Y-107349998D01*
X137011750Y-107299912D01*
X137043324Y-107228404D01*
X137048164Y-107210615D01*
X137049588Y-107198340D01*
X137050000Y-107191219D01*
X137050000Y-106666326D01*
X137046549Y-106653450D01*
X137033674Y-106650000D01*
X136116326Y-106650000D01*
X136103450Y-106653450D01*
X136100000Y-106666326D01*
X136100000Y-108033674D01*
X135600000Y-108033674D01*
X135600000Y-106666326D01*
X135596549Y-106653450D01*
X135583674Y-106650000D01*
X134666327Y-106650000D01*
X134653451Y-106653450D01*
X134650001Y-106666326D01*
X134650001Y-107191214D01*
X134650413Y-107198349D01*
X134651835Y-107210606D01*
X134656678Y-107228410D01*
X134688250Y-107299915D01*
X134698815Y-107350000D01*
X134688250Y-107400085D01*
X134656675Y-107471595D01*
X134651835Y-107489384D01*
X134650411Y-107501659D01*
X134650000Y-107508781D01*
X134650000Y-108033674D01*
X130500000Y-108033674D01*
X130500000Y-102600000D01*
X133094435Y-102600000D01*
X133095215Y-102606923D01*
X133101001Y-102658280D01*
X133114632Y-102779255D01*
X133116928Y-102785819D01*
X133116930Y-102785824D01*
X133171913Y-102942956D01*
X133174211Y-102949522D01*
X133270184Y-103102262D01*
X133397738Y-103229816D01*
X133550478Y-103325789D01*
X133720745Y-103385368D01*
X133855046Y-103400500D01*
X134563010Y-103400500D01*
X134609580Y-103409577D01*
X134649331Y-103435480D01*
X134676445Y-103474415D01*
X134687704Y-103499915D01*
X134698269Y-103550000D01*
X134687704Y-103600086D01*
X134656181Y-103671477D01*
X134656179Y-103671484D01*
X134652415Y-103680009D01*
X134651340Y-103689271D01*
X134651340Y-103689273D01*
X134649911Y-103701585D01*
X134649910Y-103701599D01*
X134649500Y-103705135D01*
X134649500Y-103708708D01*
X134649500Y-103708709D01*
X134649500Y-105291285D01*
X134649500Y-105291302D01*
X134649501Y-105294864D01*
X134649912Y-105298411D01*
X134649913Y-105298422D01*
X134651340Y-105310722D01*
X134652415Y-105319991D01*
X134656181Y-105328521D01*
X134656182Y-105328523D01*
X134687977Y-105400532D01*
X134698542Y-105450618D01*
X134687977Y-105500703D01*
X134656675Y-105571595D01*
X134651835Y-105589384D01*
X134650411Y-105601659D01*
X134650000Y-105608781D01*
X134650000Y-106133674D01*
X134653450Y-106146549D01*
X134666326Y-106150000D01*
X137033673Y-106150000D01*
X137046548Y-106146549D01*
X137049999Y-106133674D01*
X137049999Y-105608786D01*
X137049586Y-105601650D01*
X137048164Y-105589393D01*
X137043320Y-105571586D01*
X137012023Y-105500704D01*
X137001457Y-105450618D01*
X137012023Y-105400531D01*
X137043817Y-105328525D01*
X137043818Y-105328523D01*
X137047585Y-105319991D01*
X137050500Y-105294865D01*
X137050499Y-103705136D01*
X137047585Y-103680009D01*
X137012296Y-103600086D01*
X137012296Y-103600085D01*
X137001730Y-103549998D01*
X137012295Y-103499914D01*
X137047585Y-103419991D01*
X137050500Y-103394865D01*
X137050499Y-101805136D01*
X137047585Y-101780009D01*
X137040746Y-101764520D01*
X137012023Y-101699467D01*
X137001457Y-101649381D01*
X137012023Y-101599294D01*
X137043324Y-101528404D01*
X137048164Y-101510615D01*
X137049588Y-101498340D01*
X137050000Y-101491219D01*
X137050000Y-100966326D01*
X137046549Y-100953450D01*
X137033674Y-100950000D01*
X134666327Y-100950000D01*
X134653451Y-100953450D01*
X134650001Y-100966326D01*
X134650001Y-101491214D01*
X134650413Y-101498349D01*
X134651835Y-101510606D01*
X134656677Y-101528407D01*
X134687977Y-101599295D01*
X134698542Y-101649380D01*
X134687978Y-101699465D01*
X134676446Y-101725584D01*
X134649332Y-101764520D01*
X134609580Y-101790423D01*
X134563010Y-101799500D01*
X133855046Y-101799500D01*
X133851588Y-101799889D01*
X133851581Y-101799890D01*
X133727666Y-101813852D01*
X133727664Y-101813852D01*
X133720745Y-101814632D01*
X133714176Y-101816930D01*
X133714174Y-101816931D01*
X133557043Y-101871913D01*
X133557036Y-101871915D01*
X133550478Y-101874211D01*
X133544590Y-101877910D01*
X133544587Y-101877912D01*
X133403638Y-101966476D01*
X133403633Y-101966479D01*
X133397738Y-101970184D01*
X133392813Y-101975108D01*
X133392809Y-101975112D01*
X133275112Y-102092809D01*
X133275108Y-102092813D01*
X133270184Y-102097738D01*
X133266479Y-102103633D01*
X133266476Y-102103638D01*
X133177912Y-102244587D01*
X133177910Y-102244590D01*
X133174211Y-102250478D01*
X133171915Y-102257036D01*
X133171913Y-102257043D01*
X133116930Y-102414175D01*
X133116928Y-102414182D01*
X133114632Y-102420745D01*
X133113852Y-102427662D01*
X133113852Y-102427665D01*
X133095215Y-102593077D01*
X133094435Y-102600000D01*
X130500000Y-102600000D01*
X130500000Y-100433674D01*
X134650000Y-100433674D01*
X134653450Y-100446549D01*
X134666326Y-100450000D01*
X135583674Y-100450000D01*
X135596549Y-100446549D01*
X135600000Y-100433674D01*
X136100000Y-100433674D01*
X136103450Y-100446549D01*
X136116326Y-100450000D01*
X137033673Y-100450000D01*
X137046548Y-100446549D01*
X137049999Y-100433674D01*
X147850000Y-100433674D01*
X147853450Y-100446549D01*
X147866326Y-100450000D01*
X148783674Y-100450000D01*
X148796549Y-100446549D01*
X148800000Y-100433674D01*
X149300000Y-100433674D01*
X149303450Y-100446549D01*
X149316326Y-100450000D01*
X150233673Y-100450000D01*
X150246548Y-100446549D01*
X150249999Y-100433674D01*
X150249999Y-99908786D01*
X150249586Y-99901650D01*
X150248164Y-99889393D01*
X150243322Y-99871592D01*
X150206427Y-99788032D01*
X150193661Y-99769396D01*
X150130603Y-99706338D01*
X150111967Y-99693572D01*
X150028401Y-99656674D01*
X150010615Y-99651835D01*
X149998340Y-99650411D01*
X149991219Y-99650000D01*
X149316326Y-99650000D01*
X149303450Y-99653450D01*
X149300000Y-99666326D01*
X149300000Y-100433674D01*
X148800000Y-100433674D01*
X148800000Y-99666327D01*
X148796549Y-99653451D01*
X148783674Y-99650001D01*
X148108786Y-99650001D01*
X148101650Y-99650413D01*
X148089393Y-99651835D01*
X148071592Y-99656677D01*
X147988032Y-99693572D01*
X147969396Y-99706338D01*
X147906338Y-99769396D01*
X147893572Y-99788032D01*
X147856674Y-99871598D01*
X147851835Y-99889384D01*
X147850411Y-99901659D01*
X147850000Y-99908781D01*
X147850000Y-100433674D01*
X137049999Y-100433674D01*
X137049999Y-99908786D01*
X137049586Y-99901650D01*
X137048164Y-99889393D01*
X137043322Y-99871592D01*
X137006427Y-99788032D01*
X136993661Y-99769396D01*
X136930603Y-99706338D01*
X136911967Y-99693572D01*
X136828401Y-99656674D01*
X136810615Y-99651835D01*
X136798340Y-99650411D01*
X136791219Y-99650000D01*
X136116326Y-99650000D01*
X136103450Y-99653450D01*
X136100000Y-99666326D01*
X136100000Y-100433674D01*
X135600000Y-100433674D01*
X135600000Y-99666327D01*
X135596549Y-99653451D01*
X135583674Y-99650001D01*
X134908786Y-99650001D01*
X134901650Y-99650413D01*
X134889393Y-99651835D01*
X134871592Y-99656677D01*
X134788032Y-99693572D01*
X134769396Y-99706338D01*
X134706338Y-99769396D01*
X134693572Y-99788032D01*
X134656674Y-99871598D01*
X134651835Y-99889384D01*
X134650411Y-99901659D01*
X134650000Y-99908781D01*
X134650000Y-100433674D01*
X130500000Y-100433674D01*
X130500000Y-98841214D01*
X137600001Y-98841214D01*
X137600413Y-98848349D01*
X137601835Y-98860606D01*
X137606677Y-98878407D01*
X137643572Y-98961967D01*
X137656338Y-98980603D01*
X137719396Y-99043661D01*
X137738032Y-99056427D01*
X137821598Y-99093325D01*
X137839384Y-99098164D01*
X137851659Y-99099588D01*
X137858781Y-99100000D01*
X138383674Y-99100000D01*
X138396549Y-99096549D01*
X138400000Y-99083674D01*
X138400000Y-98166326D01*
X138396549Y-98153450D01*
X138383674Y-98150000D01*
X137616327Y-98150000D01*
X137603451Y-98153450D01*
X137600001Y-98166326D01*
X137600001Y-98841214D01*
X130500000Y-98841214D01*
X130500000Y-97633674D01*
X137600000Y-97633674D01*
X137603450Y-97646549D01*
X137616326Y-97650000D01*
X138383674Y-97650000D01*
X138396549Y-97646549D01*
X138400000Y-97633674D01*
X138400000Y-96716327D01*
X138396549Y-96703451D01*
X138383674Y-96700001D01*
X137858786Y-96700001D01*
X137851650Y-96700413D01*
X137839393Y-96701835D01*
X137821586Y-96706679D01*
X137739050Y-96743121D01*
X137680214Y-96752114D01*
X137659668Y-96814534D01*
X137643573Y-96838029D01*
X137606674Y-96921598D01*
X137601835Y-96939384D01*
X137600411Y-96951659D01*
X137600000Y-96958781D01*
X137600000Y-97633674D01*
X130500000Y-97633674D01*
X130500000Y-90416214D01*
X130850001Y-90416214D01*
X130850413Y-90423349D01*
X130851835Y-90435606D01*
X130856677Y-90453407D01*
X130893572Y-90536967D01*
X130906338Y-90555603D01*
X130969396Y-90618661D01*
X130988032Y-90631427D01*
X131071598Y-90668325D01*
X131089384Y-90673164D01*
X131101659Y-90674588D01*
X131108781Y-90675000D01*
X131733674Y-90675000D01*
X131746549Y-90671549D01*
X131750000Y-90658674D01*
X131750000Y-89791326D01*
X131746549Y-89778450D01*
X131733674Y-89775000D01*
X130866327Y-89775000D01*
X130853451Y-89778450D01*
X130850001Y-89791326D01*
X130850001Y-90416214D01*
X130500000Y-90416214D01*
X130500000Y-86985000D01*
X130844571Y-86985000D01*
X130845100Y-86990709D01*
X130861064Y-87163000D01*
X130864244Y-87197310D01*
X130865812Y-87202821D01*
X130865814Y-87202831D01*
X130921024Y-87396870D01*
X130921026Y-87396876D01*
X130922595Y-87402389D01*
X131017634Y-87593255D01*
X131021086Y-87597826D01*
X131111274Y-87717254D01*
X131146128Y-87763407D01*
X131303698Y-87907052D01*
X131484981Y-88019298D01*
X131683802Y-88096321D01*
X131859217Y-88129111D01*
X131914168Y-88154394D01*
X131950622Y-88202666D01*
X131959901Y-88262441D01*
X131939797Y-88319493D01*
X131895094Y-88360245D01*
X131836430Y-88375000D01*
X131108786Y-88375000D01*
X131101650Y-88375413D01*
X131089393Y-88376835D01*
X131071592Y-88381677D01*
X130988032Y-88418572D01*
X130969396Y-88431338D01*
X130906338Y-88494396D01*
X130893572Y-88513032D01*
X130856674Y-88596598D01*
X130851835Y-88614384D01*
X130850411Y-88626659D01*
X130850000Y-88633781D01*
X130850000Y-89258674D01*
X130853450Y-89271549D01*
X130866326Y-89275000D01*
X132126000Y-89275000D01*
X132188000Y-89291613D01*
X132233387Y-89337000D01*
X132250000Y-89399000D01*
X132250000Y-90658673D01*
X132253450Y-90671548D01*
X132266326Y-90674999D01*
X132891214Y-90674999D01*
X132898349Y-90674586D01*
X132910606Y-90673164D01*
X132928407Y-90668322D01*
X133011967Y-90631427D01*
X133030603Y-90618661D01*
X133087819Y-90561446D01*
X133137182Y-90531196D01*
X133194898Y-90526654D01*
X133248385Y-90548809D01*
X133285985Y-90592832D01*
X133299500Y-90649127D01*
X133299500Y-93717739D01*
X133298720Y-93731622D01*
X133295770Y-93757800D01*
X133295770Y-93757803D01*
X133294730Y-93767035D01*
X133296457Y-93776162D01*
X133305356Y-93823197D01*
X133306132Y-93827765D01*
X133313267Y-93875101D01*
X133314652Y-93884287D01*
X133318379Y-93892026D01*
X133319977Y-93900472D01*
X133324321Y-93908691D01*
X133346687Y-93951010D01*
X133348777Y-93955149D01*
X133369544Y-93998273D01*
X133369546Y-93998276D01*
X133373575Y-94006642D01*
X133379417Y-94012939D01*
X133383434Y-94020538D01*
X133390004Y-94027108D01*
X133423846Y-94060950D01*
X133427064Y-94064290D01*
X133465945Y-94106194D01*
X133471950Y-94109661D01*
X133477653Y-94114757D01*
X134703586Y-95340690D01*
X135912061Y-96549164D01*
X135938941Y-96589393D01*
X135960555Y-96641574D01*
X135990976Y-96715018D01*
X135995922Y-96721464D01*
X135995924Y-96721467D01*
X136040052Y-96778974D01*
X136075209Y-96824791D01*
X136184982Y-96909024D01*
X136312817Y-96961974D01*
X136450000Y-96980035D01*
X136587183Y-96961974D01*
X136715018Y-96909024D01*
X136824791Y-96824791D01*
X136889968Y-96739850D01*
X136931085Y-96705351D01*
X136982933Y-96691459D01*
X137035789Y-96700779D01*
X137062817Y-96711974D01*
X137200000Y-96730035D01*
X137337183Y-96711974D01*
X137465018Y-96659024D01*
X137481879Y-96646085D01*
X137546301Y-96620953D01*
X137567483Y-96625097D01*
X137565954Y-96614067D01*
X137590588Y-96554203D01*
X137659024Y-96465018D01*
X137711974Y-96337183D01*
X137730035Y-96200000D01*
X137711974Y-96062817D01*
X137688759Y-96006770D01*
X137662135Y-95942493D01*
X137662133Y-95942491D01*
X137659024Y-95934983D01*
X137574791Y-95825209D01*
X137563689Y-95816690D01*
X137471467Y-95745924D01*
X137471464Y-95745922D01*
X137465018Y-95740976D01*
X137421005Y-95722745D01*
X137339395Y-95688942D01*
X137299166Y-95662062D01*
X136656622Y-95019518D01*
X138150000Y-95019518D01*
X138150353Y-95026114D01*
X138155573Y-95074667D01*
X138159111Y-95089641D01*
X138203547Y-95208777D01*
X138211962Y-95224189D01*
X138287498Y-95325092D01*
X138299907Y-95337501D01*
X138400810Y-95413037D01*
X138416222Y-95421452D01*
X138535359Y-95465888D01*
X138550331Y-95469426D01*
X138582649Y-95472900D01*
X138596202Y-95470538D01*
X138600000Y-95457314D01*
X139100000Y-95457314D01*
X139103797Y-95470538D01*
X139117350Y-95472900D01*
X139149668Y-95469426D01*
X139164640Y-95465888D01*
X139283777Y-95421452D01*
X139299189Y-95413037D01*
X139400092Y-95337501D01*
X139412501Y-95325092D01*
X139488037Y-95224189D01*
X139496452Y-95208777D01*
X139540888Y-95089641D01*
X139544426Y-95074667D01*
X139549646Y-95026114D01*
X139550000Y-95019518D01*
X139550000Y-94966326D01*
X139546549Y-94953450D01*
X139533674Y-94950000D01*
X139116326Y-94950000D01*
X139103450Y-94953450D01*
X139100000Y-94966326D01*
X139100000Y-95457314D01*
X138600000Y-95457314D01*
X138600000Y-94966326D01*
X138596549Y-94953450D01*
X138583674Y-94950000D01*
X138166326Y-94950000D01*
X138153450Y-94953450D01*
X138150000Y-94966326D01*
X138150000Y-95019518D01*
X136656622Y-95019518D01*
X136070778Y-94433674D01*
X138150000Y-94433674D01*
X138153450Y-94446549D01*
X138166326Y-94450000D01*
X138583674Y-94450000D01*
X138596549Y-94446549D01*
X138600000Y-94433674D01*
X138600000Y-93942686D01*
X138596202Y-93929461D01*
X138582649Y-93927099D01*
X138550331Y-93930573D01*
X138535359Y-93934111D01*
X138416222Y-93978547D01*
X138400810Y-93986962D01*
X138299907Y-94062498D01*
X138287498Y-94074907D01*
X138211962Y-94175810D01*
X138203547Y-94191222D01*
X138159111Y-94310358D01*
X138155573Y-94325332D01*
X138150353Y-94373885D01*
X138150000Y-94380482D01*
X138150000Y-94433674D01*
X136070778Y-94433674D01*
X136028465Y-94391361D01*
X134736818Y-93099715D01*
X134709939Y-93059488D01*
X134700500Y-93012035D01*
X134700500Y-88487966D01*
X134709939Y-88440513D01*
X134736819Y-88400285D01*
X135400284Y-87736819D01*
X135440512Y-87709939D01*
X135487965Y-87700500D01*
X135841619Y-87700500D01*
X135903863Y-87717254D01*
X135949287Y-87762989D01*
X135965616Y-87825346D01*
X135948438Y-87887474D01*
X135902394Y-87932585D01*
X135883516Y-87943199D01*
X135782036Y-88020154D01*
X135770154Y-88032036D01*
X135693199Y-88133516D01*
X135684965Y-88148160D01*
X135638047Y-88267136D01*
X135634183Y-88282424D01*
X135625441Y-88355220D01*
X135625192Y-88359390D01*
X135628450Y-88371549D01*
X135641326Y-88375000D01*
X136526000Y-88375000D01*
X136588000Y-88391613D01*
X136633387Y-88437000D01*
X136650000Y-88499000D01*
X136650000Y-88751000D01*
X136633387Y-88813000D01*
X136588000Y-88858387D01*
X136526000Y-88875000D01*
X135641326Y-88875000D01*
X135628450Y-88878450D01*
X135625192Y-88890609D01*
X135625441Y-88894779D01*
X135634183Y-88967575D01*
X135638047Y-88982863D01*
X135684965Y-89101839D01*
X135693199Y-89116483D01*
X135770154Y-89217963D01*
X135782035Y-89229844D01*
X135875711Y-89300881D01*
X135911842Y-89344525D01*
X135924786Y-89399684D01*
X135911842Y-89454844D01*
X135875712Y-89498488D01*
X135781679Y-89569796D01*
X135781670Y-89569804D01*
X135774922Y-89574922D01*
X135769804Y-89581670D01*
X135769801Y-89581674D01*
X135733294Y-89629816D01*
X135687636Y-89690025D01*
X135684523Y-89697916D01*
X135684522Y-89697920D01*
X135637558Y-89817011D01*
X135637556Y-89817016D01*
X135634641Y-89824410D01*
X135633693Y-89832298D01*
X135633692Y-89832305D01*
X135624941Y-89905178D01*
X135624940Y-89905189D01*
X135624500Y-89908856D01*
X135624500Y-90441144D01*
X135624940Y-90444811D01*
X135624941Y-90444821D01*
X135633692Y-90517694D01*
X135633693Y-90517699D01*
X135634641Y-90525590D01*
X135637557Y-90532985D01*
X135637558Y-90532988D01*
X135675468Y-90629120D01*
X135687636Y-90659975D01*
X135774922Y-90775078D01*
X135800427Y-90794419D01*
X135836556Y-90838063D01*
X135849500Y-90893222D01*
X135849500Y-90935177D01*
X135840061Y-90982630D01*
X135818066Y-91035728D01*
X135818064Y-91035733D01*
X135814956Y-91043238D01*
X135813896Y-91051289D01*
X135813894Y-91051297D01*
X135803757Y-91128302D01*
X135794318Y-91200000D01*
X135795379Y-91208059D01*
X135813894Y-91348702D01*
X135813895Y-91348708D01*
X135814956Y-91356762D01*
X135818065Y-91364268D01*
X135818066Y-91364271D01*
X135869327Y-91488026D01*
X135875464Y-91502841D01*
X135971718Y-91628282D01*
X136097159Y-91724536D01*
X136243238Y-91785044D01*
X136400000Y-91805682D01*
X136556762Y-91785044D01*
X136702841Y-91724536D01*
X136828282Y-91628282D01*
X136924536Y-91502841D01*
X136985044Y-91356762D01*
X137005682Y-91200000D01*
X136985044Y-91043238D01*
X136959938Y-90982629D01*
X136950500Y-90935177D01*
X136950500Y-90893222D01*
X136963444Y-90838063D01*
X136999573Y-90794419D01*
X137025078Y-90775078D01*
X137112364Y-90659975D01*
X137165359Y-90525590D01*
X137175500Y-90441144D01*
X137175500Y-90324500D01*
X137192113Y-90262500D01*
X137237500Y-90217113D01*
X137299500Y-90200500D01*
X138295756Y-90200500D01*
X138295762Y-90200500D01*
X138295764Y-90200499D01*
X138295768Y-90200499D01*
X139040786Y-90200499D01*
X139044364Y-90200499D01*
X139069491Y-90197585D01*
X139172265Y-90152206D01*
X139251706Y-90072765D01*
X139297085Y-89969991D01*
X139300000Y-89944865D01*
X139299999Y-89555136D01*
X139297085Y-89530009D01*
X139296067Y-89527703D01*
X139296070Y-89466471D01*
X139297664Y-89460610D01*
X139299088Y-89448340D01*
X139299500Y-89441219D01*
X139299500Y-89416326D01*
X139296049Y-89403450D01*
X139283174Y-89400000D01*
X139275833Y-89400000D01*
X139228380Y-89390561D01*
X139188152Y-89363681D01*
X139180388Y-89355917D01*
X139172265Y-89347794D01*
X139170334Y-89346941D01*
X139135489Y-89307820D01*
X139121183Y-89250000D01*
X139135489Y-89192180D01*
X139170334Y-89153058D01*
X139172265Y-89152206D01*
X139188151Y-89136319D01*
X139228380Y-89109439D01*
X139275833Y-89100000D01*
X139283173Y-89100000D01*
X139296048Y-89096549D01*
X139299499Y-89083674D01*
X139299499Y-89058786D01*
X139299086Y-89051650D01*
X139297664Y-89039393D01*
X139296067Y-89033520D01*
X139296068Y-88972292D01*
X139297085Y-88969991D01*
X139300000Y-88944865D01*
X139299999Y-88555136D01*
X139297085Y-88530009D01*
X139296331Y-88528301D01*
X139296331Y-88471696D01*
X139297085Y-88469991D01*
X139300000Y-88444865D01*
X139299999Y-88055136D01*
X139297085Y-88030009D01*
X139296331Y-88028301D01*
X139296331Y-87971696D01*
X139297085Y-87969991D01*
X139300000Y-87944865D01*
X139299999Y-87555136D01*
X139297085Y-87530009D01*
X139296331Y-87528301D01*
X139296331Y-87471696D01*
X139297085Y-87469991D01*
X139300000Y-87444865D01*
X139299999Y-87055136D01*
X139297085Y-87030009D01*
X139296331Y-87028301D01*
X139296331Y-86971696D01*
X139297085Y-86969991D01*
X139300000Y-86944865D01*
X139299999Y-86555136D01*
X139297085Y-86530009D01*
X139296331Y-86528301D01*
X139296331Y-86471696D01*
X139297085Y-86469991D01*
X139300000Y-86444865D01*
X139299999Y-86055136D01*
X139297085Y-86030009D01*
X139296331Y-86028301D01*
X139296331Y-85971696D01*
X139297085Y-85969991D01*
X139300000Y-85944865D01*
X139299999Y-85555136D01*
X139297085Y-85530009D01*
X139296331Y-85528301D01*
X139296331Y-85471696D01*
X139297085Y-85469991D01*
X139300000Y-85444865D01*
X139299999Y-85055136D01*
X139297085Y-85030009D01*
X139296331Y-85028301D01*
X139296331Y-84971696D01*
X139297085Y-84969991D01*
X139300000Y-84944865D01*
X139299999Y-84906638D01*
X139318269Y-84841854D01*
X139367698Y-84796157D01*
X139433719Y-84783021D01*
X139496875Y-84806314D01*
X139532352Y-84851307D01*
X139533802Y-84850470D01*
X139537865Y-84857508D01*
X139540976Y-84865018D01*
X139545922Y-84871464D01*
X139545924Y-84871467D01*
X139619568Y-84967440D01*
X139625209Y-84974791D01*
X139650987Y-84994571D01*
X139686712Y-85038102D01*
X139699500Y-85092946D01*
X139699500Y-85536567D01*
X139699500Y-85663433D01*
X139702515Y-85672714D01*
X139702516Y-85672717D01*
X139706346Y-85684506D01*
X139710887Y-85703418D01*
X139714354Y-85725304D01*
X139718783Y-85733996D01*
X139718784Y-85733999D01*
X139724412Y-85745044D01*
X139731857Y-85763019D01*
X139738704Y-85784090D01*
X139744436Y-85791980D01*
X139744440Y-85791987D01*
X139751726Y-85802015D01*
X139761889Y-85818598D01*
X139764896Y-85824500D01*
X139771950Y-85838342D01*
X139778850Y-85845242D01*
X139794513Y-85860905D01*
X139794516Y-85860909D01*
X143313181Y-89379574D01*
X143340061Y-89419802D01*
X143349500Y-89467255D01*
X143349500Y-90076000D01*
X143332887Y-90138000D01*
X143287500Y-90183387D01*
X143225501Y-90200000D01*
X143058714Y-90200000D01*
X143058696Y-90200000D01*
X143055136Y-90200001D01*
X143051589Y-90200412D01*
X143051577Y-90200413D01*
X143039274Y-90201840D01*
X143039270Y-90201840D01*
X143030009Y-90202915D01*
X143028299Y-90203669D01*
X142971698Y-90203669D01*
X142969991Y-90202915D01*
X142960729Y-90201840D01*
X142960724Y-90201839D01*
X142948414Y-90200411D01*
X142948401Y-90200410D01*
X142944865Y-90200000D01*
X142941290Y-90200000D01*
X142558714Y-90200000D01*
X142558696Y-90200000D01*
X142555136Y-90200001D01*
X142551589Y-90200412D01*
X142551577Y-90200413D01*
X142539274Y-90201840D01*
X142539270Y-90201840D01*
X142530009Y-90202915D01*
X142528299Y-90203669D01*
X142471698Y-90203669D01*
X142469991Y-90202915D01*
X142460729Y-90201840D01*
X142460724Y-90201839D01*
X142448414Y-90200411D01*
X142448401Y-90200410D01*
X142444865Y-90200000D01*
X142441290Y-90200000D01*
X142058714Y-90200000D01*
X142058696Y-90200000D01*
X142055136Y-90200001D01*
X142051589Y-90200412D01*
X142051577Y-90200413D01*
X142039274Y-90201840D01*
X142039270Y-90201840D01*
X142030009Y-90202915D01*
X142028299Y-90203669D01*
X141971698Y-90203669D01*
X141969991Y-90202915D01*
X141960729Y-90201840D01*
X141960724Y-90201839D01*
X141948414Y-90200411D01*
X141948401Y-90200410D01*
X141944865Y-90200000D01*
X141941290Y-90200000D01*
X141558714Y-90200000D01*
X141558696Y-90200000D01*
X141555136Y-90200001D01*
X141551589Y-90200412D01*
X141551577Y-90200413D01*
X141539274Y-90201840D01*
X141539270Y-90201840D01*
X141530009Y-90202915D01*
X141528299Y-90203669D01*
X141471698Y-90203669D01*
X141469991Y-90202915D01*
X141460729Y-90201840D01*
X141460724Y-90201839D01*
X141448414Y-90200411D01*
X141448401Y-90200410D01*
X141444865Y-90200000D01*
X141441290Y-90200000D01*
X141058714Y-90200000D01*
X141058696Y-90200000D01*
X141055136Y-90200001D01*
X141051589Y-90200412D01*
X141051577Y-90200413D01*
X141039274Y-90201840D01*
X141039270Y-90201840D01*
X141030009Y-90202915D01*
X141028299Y-90203669D01*
X140971698Y-90203669D01*
X140969991Y-90202915D01*
X140960729Y-90201840D01*
X140960724Y-90201839D01*
X140948414Y-90200411D01*
X140948401Y-90200410D01*
X140944865Y-90200000D01*
X140941290Y-90200000D01*
X140558714Y-90200000D01*
X140558696Y-90200000D01*
X140555136Y-90200001D01*
X140551589Y-90200412D01*
X140551577Y-90200413D01*
X140539274Y-90201840D01*
X140539270Y-90201840D01*
X140530009Y-90202915D01*
X140528299Y-90203669D01*
X140471698Y-90203669D01*
X140469991Y-90202915D01*
X140460729Y-90201840D01*
X140460724Y-90201839D01*
X140448414Y-90200411D01*
X140448401Y-90200410D01*
X140444865Y-90200000D01*
X140441290Y-90200000D01*
X140058714Y-90200000D01*
X140058696Y-90200000D01*
X140055136Y-90200001D01*
X140051589Y-90200412D01*
X140051577Y-90200413D01*
X140039274Y-90201840D01*
X140039270Y-90201840D01*
X140030009Y-90202915D01*
X140028299Y-90203669D01*
X139971698Y-90203669D01*
X139969991Y-90202915D01*
X139960729Y-90201840D01*
X139960724Y-90201839D01*
X139948414Y-90200411D01*
X139948401Y-90200410D01*
X139944865Y-90200000D01*
X139941290Y-90200000D01*
X139558714Y-90200000D01*
X139558696Y-90200000D01*
X139555136Y-90200001D01*
X139551589Y-90200412D01*
X139551577Y-90200413D01*
X139539277Y-90201840D01*
X139539275Y-90201840D01*
X139530009Y-90202915D01*
X139521479Y-90206680D01*
X139521476Y-90206682D01*
X139437745Y-90243653D01*
X139437743Y-90243654D01*
X139427235Y-90248294D01*
X139419112Y-90256416D01*
X139419109Y-90256419D01*
X139355919Y-90319609D01*
X139355916Y-90319612D01*
X139347794Y-90327735D01*
X139343154Y-90338243D01*
X139343153Y-90338245D01*
X139306181Y-90421977D01*
X139306179Y-90421984D01*
X139302415Y-90430509D01*
X139301340Y-90439771D01*
X139301340Y-90439773D01*
X139299911Y-90452085D01*
X139299910Y-90452099D01*
X139299500Y-90455635D01*
X139299500Y-90459208D01*
X139299500Y-90459209D01*
X139299500Y-92016785D01*
X139299500Y-92016802D01*
X139299501Y-92020364D01*
X139299912Y-92023911D01*
X139299913Y-92023922D01*
X139301139Y-92034488D01*
X139302415Y-92045491D01*
X139347794Y-92148265D01*
X139427235Y-92227706D01*
X139498111Y-92259001D01*
X139521477Y-92269318D01*
X139521478Y-92269318D01*
X139530009Y-92273085D01*
X139555135Y-92276000D01*
X139858244Y-92275999D01*
X139914539Y-92289514D01*
X139958562Y-92327113D01*
X139980717Y-92380601D01*
X139976175Y-92438317D01*
X139945925Y-92487680D01*
X139487892Y-92945713D01*
X139455056Y-92969244D01*
X139416399Y-92980971D01*
X139370878Y-92986964D01*
X139370873Y-92986965D01*
X139362817Y-92988026D01*
X139355307Y-92991136D01*
X139355302Y-92991138D01*
X139242493Y-93037864D01*
X139242485Y-93037868D01*
X139234983Y-93040976D01*
X139228541Y-93045919D01*
X139228536Y-93045922D01*
X139131651Y-93120265D01*
X139131647Y-93120268D01*
X139125209Y-93125209D01*
X139120268Y-93131647D01*
X139120265Y-93131651D01*
X139045922Y-93228536D01*
X139045919Y-93228541D01*
X139040976Y-93234983D01*
X139037868Y-93242485D01*
X139037864Y-93242493D01*
X138991138Y-93355302D01*
X138991136Y-93355307D01*
X138988026Y-93362817D01*
X138986965Y-93370874D01*
X138986964Y-93370879D01*
X138981917Y-93409217D01*
X138969965Y-93500000D01*
X138971026Y-93508059D01*
X138980131Y-93577222D01*
X138988026Y-93637183D01*
X139040976Y-93765018D01*
X139045922Y-93771464D01*
X139045924Y-93771467D01*
X139049527Y-93776162D01*
X139081880Y-93818325D01*
X139082985Y-93819764D01*
X139106438Y-93872145D01*
X139103793Y-93929476D01*
X139100000Y-93942685D01*
X139100000Y-94433674D01*
X139103450Y-94446549D01*
X139116326Y-94450000D01*
X139533674Y-94450000D01*
X139546549Y-94446549D01*
X139550000Y-94433674D01*
X139550000Y-94380482D01*
X139549646Y-94373885D01*
X139544426Y-94325332D01*
X139540888Y-94310358D01*
X139493746Y-94183965D01*
X139486455Y-94129212D01*
X139503665Y-94076725D01*
X139541960Y-94036919D01*
X139593742Y-94017693D01*
X139637183Y-94011974D01*
X139722260Y-93976734D01*
X139785599Y-93968318D01*
X139844723Y-93992560D01*
X139883926Y-94043022D01*
X139892796Y-94106305D01*
X139868979Y-94165601D01*
X139861522Y-94175562D01*
X139861515Y-94175573D01*
X139856204Y-94182669D01*
X139853104Y-94190978D01*
X139853104Y-94190980D01*
X139808620Y-94310247D01*
X139808619Y-94310250D01*
X139805909Y-94317517D01*
X139805079Y-94325227D01*
X139805079Y-94325232D01*
X139799855Y-94373819D01*
X139799854Y-94373831D01*
X139799500Y-94377127D01*
X139799500Y-94380448D01*
X139799500Y-94380449D01*
X139799500Y-95019560D01*
X139799500Y-95019578D01*
X139799501Y-95022872D01*
X139799853Y-95026150D01*
X139799854Y-95026161D01*
X139805079Y-95074768D01*
X139805080Y-95074773D01*
X139805909Y-95082483D01*
X139808619Y-95089749D01*
X139808620Y-95089753D01*
X139842217Y-95179831D01*
X139856204Y-95217331D01*
X139861518Y-95224430D01*
X139861519Y-95224431D01*
X139890255Y-95262818D01*
X139942454Y-95332546D01*
X140057669Y-95418796D01*
X140192517Y-95469091D01*
X140252127Y-95475500D01*
X140747872Y-95475499D01*
X140807483Y-95469091D01*
X140942331Y-95418796D01*
X141057546Y-95332546D01*
X141143796Y-95217331D01*
X141157283Y-95181168D01*
X141183722Y-95138931D01*
X141224653Y-95110512D01*
X141273466Y-95100500D01*
X141633745Y-95100500D01*
X141690040Y-95114015D01*
X141734063Y-95151615D01*
X141756218Y-95205102D01*
X141751676Y-95262818D01*
X141721426Y-95312181D01*
X140370424Y-96663181D01*
X140330196Y-96690061D01*
X140282743Y-96699500D01*
X139758714Y-96699500D01*
X139758696Y-96699500D01*
X139755136Y-96699501D01*
X139751589Y-96699912D01*
X139751577Y-96699913D01*
X139739277Y-96701340D01*
X139739275Y-96701340D01*
X139730009Y-96702415D01*
X139721478Y-96706181D01*
X139721473Y-96706183D01*
X139649466Y-96737977D01*
X139599381Y-96748542D01*
X139549295Y-96737977D01*
X139478401Y-96706674D01*
X139460615Y-96701835D01*
X139448340Y-96700411D01*
X139441219Y-96700000D01*
X138916326Y-96700000D01*
X138903450Y-96703450D01*
X138900000Y-96716326D01*
X138900000Y-99083673D01*
X138903450Y-99096548D01*
X138916326Y-99099999D01*
X139441214Y-99099999D01*
X139448349Y-99099586D01*
X139460606Y-99098164D01*
X139478410Y-99093321D01*
X139549294Y-99062023D01*
X139599381Y-99051457D01*
X139649467Y-99062023D01*
X139721472Y-99093816D01*
X139721474Y-99093816D01*
X139730009Y-99097585D01*
X139755135Y-99100500D01*
X141344864Y-99100499D01*
X141369991Y-99097585D01*
X141449913Y-99062295D01*
X141500000Y-99051730D01*
X141550086Y-99062295D01*
X141561795Y-99067465D01*
X141621474Y-99093817D01*
X141621477Y-99093817D01*
X141630009Y-99097585D01*
X141655135Y-99100500D01*
X143244864Y-99100499D01*
X143269991Y-99097585D01*
X143349913Y-99062295D01*
X143400001Y-99051730D01*
X143450089Y-99062297D01*
X143475589Y-99073557D01*
X143514522Y-99100671D01*
X143540423Y-99140422D01*
X143549500Y-99186990D01*
X143549500Y-99259806D01*
X143549500Y-99440194D01*
X143551049Y-99446983D01*
X143551050Y-99446988D01*
X143558017Y-99477518D01*
X143560345Y-99491218D01*
X143560995Y-99496982D01*
X143564632Y-99529255D01*
X143566929Y-99535821D01*
X143566930Y-99535823D01*
X143577272Y-99565379D01*
X143581119Y-99578735D01*
X143588088Y-99609267D01*
X143588091Y-99609276D01*
X143589640Y-99616061D01*
X143592658Y-99622329D01*
X143592661Y-99622336D01*
X143606250Y-99650554D01*
X143611568Y-99663393D01*
X143624211Y-99699522D01*
X143627912Y-99705412D01*
X143627913Y-99705414D01*
X143644572Y-99731927D01*
X143651296Y-99744093D01*
X143664888Y-99772315D01*
X143667909Y-99778587D01*
X143691771Y-99808509D01*
X143699818Y-99819850D01*
X143720184Y-99852262D01*
X143847738Y-99979816D01*
X143847740Y-99979817D01*
X143865749Y-99997826D01*
X143971414Y-100082092D01*
X144133939Y-100160360D01*
X144309806Y-100200500D01*
X144483233Y-100200500D01*
X144490195Y-100200500D01*
X144666061Y-100160360D01*
X144828587Y-100082092D01*
X144969621Y-99969621D01*
X145082092Y-99828587D01*
X145160360Y-99666061D01*
X145200500Y-99490195D01*
X145200500Y-99309806D01*
X145176462Y-99204487D01*
X145176772Y-99147982D01*
X145202125Y-99097478D01*
X145247255Y-99063469D01*
X145250523Y-99062026D01*
X145300612Y-99051457D01*
X145350704Y-99062023D01*
X145421592Y-99093323D01*
X145439384Y-99098164D01*
X145451659Y-99099588D01*
X145458781Y-99100000D01*
X145983674Y-99100000D01*
X145996549Y-99096549D01*
X146000000Y-99083674D01*
X146000000Y-99083673D01*
X146500000Y-99083673D01*
X146503450Y-99096548D01*
X146516326Y-99099999D01*
X147041214Y-99099999D01*
X147048349Y-99099586D01*
X147060606Y-99098164D01*
X147078407Y-99093322D01*
X147161967Y-99056427D01*
X147180603Y-99043661D01*
X147243661Y-98980603D01*
X147256427Y-98961967D01*
X147293325Y-98878401D01*
X147298164Y-98860615D01*
X147299588Y-98848340D01*
X147300000Y-98841219D01*
X147300000Y-98166326D01*
X147296549Y-98153450D01*
X147283674Y-98150000D01*
X146516326Y-98150000D01*
X146503450Y-98153450D01*
X146500000Y-98166326D01*
X146500000Y-99083673D01*
X146000000Y-99083673D01*
X146000000Y-97633674D01*
X146500000Y-97633674D01*
X146503450Y-97646549D01*
X146516326Y-97650000D01*
X147283673Y-97650000D01*
X147296548Y-97646549D01*
X147299999Y-97633674D01*
X147299999Y-96958786D01*
X147299586Y-96951650D01*
X147298164Y-96939393D01*
X147293322Y-96921592D01*
X147256427Y-96838032D01*
X147243661Y-96819396D01*
X147180603Y-96756338D01*
X147161967Y-96743572D01*
X147078401Y-96706674D01*
X147060615Y-96701835D01*
X147048340Y-96700411D01*
X147041219Y-96700000D01*
X146516326Y-96700000D01*
X146503450Y-96703450D01*
X146500000Y-96716326D01*
X146500000Y-97633674D01*
X146000000Y-97633674D01*
X146000000Y-96716327D01*
X145996549Y-96703451D01*
X145983674Y-96700001D01*
X145458786Y-96700001D01*
X145451650Y-96700413D01*
X145439393Y-96701835D01*
X145421589Y-96706678D01*
X145350703Y-96737977D01*
X145300618Y-96748542D01*
X145250532Y-96737977D01*
X145178522Y-96706181D01*
X145178517Y-96706179D01*
X145169991Y-96702415D01*
X145160726Y-96701340D01*
X145148414Y-96699911D01*
X145148401Y-96699910D01*
X145144865Y-96699500D01*
X145141290Y-96699500D01*
X143558714Y-96699500D01*
X143558696Y-96699500D01*
X143555136Y-96699501D01*
X143551589Y-96699912D01*
X143551577Y-96699913D01*
X143539277Y-96701340D01*
X143539275Y-96701340D01*
X143530009Y-96702415D01*
X143521479Y-96706180D01*
X143521476Y-96706182D01*
X143450086Y-96737704D01*
X143399999Y-96748269D01*
X143349913Y-96737703D01*
X143272354Y-96703457D01*
X143225239Y-96667015D01*
X143200552Y-96612808D01*
X143203990Y-96553343D01*
X143234758Y-96502344D01*
X144595744Y-95141357D01*
X144606093Y-95132109D01*
X144633970Y-95109879D01*
X144666191Y-95062618D01*
X144668830Y-95058898D01*
X144702793Y-95012882D01*
X144705629Y-95004775D01*
X144710472Y-94997673D01*
X144727325Y-94943030D01*
X144728762Y-94938662D01*
X144747646Y-94884699D01*
X144747967Y-94876113D01*
X144750500Y-94867902D01*
X144750500Y-94810738D01*
X144750587Y-94806101D01*
X144752376Y-94758280D01*
X144752724Y-94748990D01*
X144750928Y-94742287D01*
X144750500Y-94734658D01*
X144750500Y-94510261D01*
X144759939Y-94462809D01*
X144761338Y-94459430D01*
X144811974Y-94337183D01*
X144830035Y-94200000D01*
X144813021Y-94070772D01*
X144817913Y-94016631D01*
X144827705Y-94000000D01*
X148194435Y-94000000D01*
X148195215Y-94006923D01*
X148213339Y-94167784D01*
X148214632Y-94179255D01*
X148216928Y-94185819D01*
X148216930Y-94185824D01*
X148267072Y-94329120D01*
X148274211Y-94349522D01*
X148300500Y-94391361D01*
X148337345Y-94450000D01*
X148370184Y-94502262D01*
X148497738Y-94629816D01*
X148503035Y-94633144D01*
X148537221Y-94676013D01*
X148549500Y-94729813D01*
X148549500Y-95939740D01*
X148540061Y-95987192D01*
X148491138Y-96105302D01*
X148491136Y-96105307D01*
X148488026Y-96112817D01*
X148486965Y-96120874D01*
X148486964Y-96120879D01*
X148477609Y-96191941D01*
X148469965Y-96250000D01*
X148471026Y-96258059D01*
X148480381Y-96329120D01*
X148488026Y-96387183D01*
X148540976Y-96515018D01*
X148545922Y-96521464D01*
X148545924Y-96521467D01*
X148601557Y-96593968D01*
X148625209Y-96624791D01*
X148631656Y-96629738D01*
X148727717Y-96703450D01*
X148734982Y-96709024D01*
X148862817Y-96761974D01*
X149000000Y-96780035D01*
X149137183Y-96761974D01*
X149265018Y-96709024D01*
X149374791Y-96624791D01*
X149459024Y-96515018D01*
X149511974Y-96387183D01*
X149530035Y-96250000D01*
X149511974Y-96112817D01*
X149459939Y-95987192D01*
X149450500Y-95939740D01*
X149450500Y-94729813D01*
X149462779Y-94676013D01*
X149496964Y-94633144D01*
X149502262Y-94629816D01*
X149629816Y-94502262D01*
X149725789Y-94349522D01*
X149785368Y-94179255D01*
X149805565Y-94000000D01*
X149785368Y-93820745D01*
X149725789Y-93650478D01*
X149629816Y-93497738D01*
X149502262Y-93370184D01*
X149493424Y-93364631D01*
X149355412Y-93277912D01*
X149349522Y-93274211D01*
X149342959Y-93271914D01*
X149342956Y-93271913D01*
X149185824Y-93216930D01*
X149185819Y-93216928D01*
X149179255Y-93214632D01*
X149172335Y-93213852D01*
X149172334Y-93213852D01*
X149006923Y-93195215D01*
X149000000Y-93194435D01*
X148993077Y-93195215D01*
X148827665Y-93213852D01*
X148827662Y-93213852D01*
X148820745Y-93214632D01*
X148814182Y-93216928D01*
X148814175Y-93216930D01*
X148657043Y-93271913D01*
X148657036Y-93271915D01*
X148650478Y-93274211D01*
X148644590Y-93277910D01*
X148644587Y-93277912D01*
X148503638Y-93366476D01*
X148503633Y-93366479D01*
X148497738Y-93370184D01*
X148492813Y-93375108D01*
X148492809Y-93375112D01*
X148375112Y-93492809D01*
X148375108Y-93492813D01*
X148370184Y-93497738D01*
X148366479Y-93503633D01*
X148366476Y-93503638D01*
X148277912Y-93644587D01*
X148277910Y-93644590D01*
X148274211Y-93650478D01*
X148271915Y-93657036D01*
X148271913Y-93657043D01*
X148216930Y-93814175D01*
X148216928Y-93814182D01*
X148214632Y-93820745D01*
X148213852Y-93827662D01*
X148213852Y-93827665D01*
X148199488Y-93955149D01*
X148194435Y-94000000D01*
X144827705Y-94000000D01*
X144845497Y-93969782D01*
X144890471Y-93939235D01*
X144951837Y-93915035D01*
X144966483Y-93906800D01*
X145067963Y-93829845D01*
X145079844Y-93817964D01*
X145150881Y-93724288D01*
X145194524Y-93688158D01*
X145249684Y-93675213D01*
X145304845Y-93688157D01*
X145348488Y-93724287D01*
X145419796Y-93818320D01*
X145419801Y-93818325D01*
X145424922Y-93825078D01*
X145540025Y-93912364D01*
X145674410Y-93965359D01*
X145758856Y-93975500D01*
X146287444Y-93975500D01*
X146291144Y-93975500D01*
X146375590Y-93965359D01*
X146509975Y-93912364D01*
X146625078Y-93825078D01*
X146712364Y-93709975D01*
X146743692Y-93630532D01*
X146784119Y-93577222D01*
X146846365Y-93552676D01*
X146848346Y-93552472D01*
X146856826Y-93552762D01*
X146865068Y-93550753D01*
X146865071Y-93550753D01*
X146896739Y-93543035D01*
X146909196Y-93540666D01*
X146949920Y-93535070D01*
X146966380Y-93527919D01*
X146986423Y-93521179D01*
X147003852Y-93516933D01*
X147039688Y-93496783D01*
X147051023Y-93491153D01*
X147088720Y-93474780D01*
X147102637Y-93463456D01*
X147120120Y-93451558D01*
X147135759Y-93442766D01*
X147164812Y-93413711D01*
X147174227Y-93405213D01*
X147206108Y-93379278D01*
X147216455Y-93364617D01*
X147230070Y-93348452D01*
X147302005Y-93276518D01*
X147342232Y-93249641D01*
X147351210Y-93245922D01*
X147402841Y-93224536D01*
X147528282Y-93128282D01*
X147624536Y-93002841D01*
X147685044Y-92856762D01*
X147705682Y-92700000D01*
X147691290Y-92590683D01*
X147701847Y-92522096D01*
X147747604Y-92469920D01*
X147814229Y-92450500D01*
X148270187Y-92450500D01*
X148323987Y-92462779D01*
X148366855Y-92496964D01*
X148370184Y-92502262D01*
X148497738Y-92629816D01*
X148650478Y-92725789D01*
X148820745Y-92785368D01*
X149000000Y-92805565D01*
X149179255Y-92785368D01*
X149349522Y-92725789D01*
X149502262Y-92629816D01*
X149629816Y-92502262D01*
X149725789Y-92349522D01*
X149782958Y-92186141D01*
X149816341Y-92135570D01*
X149869702Y-92106856D01*
X149930298Y-92106856D01*
X149983659Y-92135570D01*
X150017042Y-92186142D01*
X150066369Y-92327113D01*
X150074211Y-92349522D01*
X150093739Y-92380601D01*
X150161021Y-92487680D01*
X150170184Y-92502262D01*
X150297738Y-92629816D01*
X150450478Y-92725789D01*
X150620745Y-92785368D01*
X150800000Y-92805565D01*
X150979255Y-92785368D01*
X151149522Y-92725789D01*
X151302262Y-92629816D01*
X151429816Y-92502262D01*
X151525789Y-92349522D01*
X151585368Y-92179255D01*
X151605565Y-92000000D01*
X151585368Y-91820745D01*
X151525789Y-91650478D01*
X151429816Y-91497738D01*
X151302262Y-91370184D01*
X151149522Y-91274211D01*
X151142959Y-91271914D01*
X151142956Y-91271913D01*
X150985824Y-91216930D01*
X150985819Y-91216928D01*
X150979255Y-91214632D01*
X150972335Y-91213852D01*
X150972334Y-91213852D01*
X150806923Y-91195215D01*
X150800000Y-91194435D01*
X150793077Y-91195215D01*
X150793075Y-91195215D01*
X150707934Y-91204807D01*
X150653097Y-91198628D01*
X150606371Y-91169268D01*
X149641368Y-90204265D01*
X149632102Y-90193896D01*
X149615676Y-90173298D01*
X149615672Y-90173294D01*
X149609879Y-90166030D01*
X149562643Y-90133825D01*
X149558870Y-90131148D01*
X149520356Y-90102723D01*
X149520355Y-90102722D01*
X149512882Y-90097207D01*
X149504775Y-90094370D01*
X149497673Y-90089528D01*
X149488798Y-90086790D01*
X149488795Y-90086789D01*
X149443049Y-90072679D01*
X149438644Y-90071230D01*
X149393465Y-90055421D01*
X149393463Y-90055420D01*
X149384699Y-90052354D01*
X149376113Y-90052032D01*
X149367902Y-90049500D01*
X149358612Y-90049500D01*
X149310738Y-90049500D01*
X149306101Y-90049413D01*
X149258280Y-90047623D01*
X149258275Y-90047623D01*
X149248990Y-90047276D01*
X149242287Y-90049071D01*
X149234658Y-90049500D01*
X148810261Y-90049500D01*
X148762809Y-90040061D01*
X148644697Y-89991138D01*
X148644694Y-89991137D01*
X148637183Y-89988026D01*
X148629123Y-89986964D01*
X148629120Y-89986964D01*
X148508059Y-89971026D01*
X148500000Y-89969965D01*
X148491941Y-89971026D01*
X148370879Y-89986964D01*
X148370874Y-89986965D01*
X148362817Y-89988026D01*
X148355307Y-89991136D01*
X148355302Y-89991138D01*
X148242493Y-90037864D01*
X148242485Y-90037868D01*
X148234983Y-90040976D01*
X148228541Y-90045919D01*
X148228536Y-90045922D01*
X148131651Y-90120265D01*
X148131647Y-90120268D01*
X148125209Y-90125209D01*
X148120268Y-90131647D01*
X148120265Y-90131651D01*
X148045922Y-90228536D01*
X148045919Y-90228541D01*
X148040976Y-90234983D01*
X148037868Y-90242485D01*
X148037864Y-90242493D01*
X147991138Y-90355302D01*
X147991136Y-90355307D01*
X147988026Y-90362817D01*
X147986965Y-90370874D01*
X147986964Y-90370879D01*
X147976274Y-90452077D01*
X147969965Y-90500000D01*
X147971026Y-90508059D01*
X147972294Y-90517694D01*
X147988026Y-90637183D01*
X147991137Y-90644694D01*
X147991138Y-90644697D01*
X148003690Y-90675000D01*
X148040976Y-90765018D01*
X148045922Y-90771464D01*
X148045924Y-90771467D01*
X148092092Y-90831633D01*
X148125209Y-90874791D01*
X148234982Y-90959024D01*
X148362817Y-91011974D01*
X148500000Y-91030035D01*
X148637183Y-91011974D01*
X148762808Y-90959939D01*
X148810261Y-90950500D01*
X148956962Y-90950500D01*
X149016943Y-90965972D01*
X149061956Y-91008528D01*
X149080767Y-91067547D01*
X149068682Y-91128302D01*
X149028717Y-91175630D01*
X148970845Y-91197720D01*
X148827665Y-91213852D01*
X148827662Y-91213852D01*
X148820745Y-91214632D01*
X148814182Y-91216928D01*
X148814175Y-91216930D01*
X148657043Y-91271913D01*
X148657036Y-91271915D01*
X148650478Y-91274211D01*
X148644590Y-91277910D01*
X148644587Y-91277912D01*
X148503638Y-91366476D01*
X148503633Y-91366479D01*
X148497738Y-91370184D01*
X148492813Y-91375108D01*
X148492809Y-91375112D01*
X148375107Y-91492814D01*
X148375103Y-91492818D01*
X148370184Y-91497738D01*
X148366855Y-91503035D01*
X148323987Y-91537221D01*
X148270187Y-91549500D01*
X147810261Y-91549500D01*
X147762809Y-91540061D01*
X147644697Y-91491138D01*
X147644694Y-91491137D01*
X147637183Y-91488026D01*
X147629123Y-91486964D01*
X147629120Y-91486964D01*
X147508059Y-91471026D01*
X147500000Y-91469965D01*
X147491941Y-91471026D01*
X147370879Y-91486964D01*
X147370874Y-91486965D01*
X147362817Y-91488026D01*
X147355307Y-91491136D01*
X147355302Y-91491138D01*
X147242493Y-91537864D01*
X147242485Y-91537868D01*
X147234983Y-91540976D01*
X147228541Y-91545919D01*
X147228536Y-91545922D01*
X147131651Y-91620265D01*
X147131647Y-91620268D01*
X147125209Y-91625209D01*
X147120268Y-91631647D01*
X147120265Y-91631651D01*
X147045922Y-91728536D01*
X147045919Y-91728541D01*
X147040976Y-91734983D01*
X147037868Y-91742485D01*
X147037864Y-91742493D01*
X146991138Y-91855302D01*
X146991136Y-91855307D01*
X146988026Y-91862817D01*
X146986965Y-91870874D01*
X146986964Y-91870879D01*
X146971672Y-91987035D01*
X146969965Y-92000000D01*
X146971026Y-92008059D01*
X146971026Y-92016185D01*
X146969465Y-92016185D01*
X146965837Y-92057651D01*
X146938999Y-92104136D01*
X146895030Y-92134924D01*
X146804664Y-92172355D01*
X146804662Y-92172356D01*
X146797159Y-92175464D01*
X146790714Y-92180408D01*
X146790711Y-92180411D01*
X146678164Y-92266771D01*
X146678160Y-92266774D01*
X146671718Y-92271718D01*
X146666774Y-92278160D01*
X146666771Y-92278164D01*
X146575464Y-92397159D01*
X146573845Y-92395916D01*
X146536884Y-92432884D01*
X146474879Y-92449500D01*
X146436838Y-92449500D01*
X146391349Y-92440855D01*
X146382986Y-92437557D01*
X146382981Y-92437555D01*
X146375590Y-92434641D01*
X146367696Y-92433693D01*
X146294821Y-92424941D01*
X146294811Y-92424940D01*
X146291144Y-92424500D01*
X146287444Y-92424500D01*
X146137965Y-92424500D01*
X146090512Y-92415061D01*
X146050284Y-92388181D01*
X145736819Y-92074716D01*
X145709939Y-92034488D01*
X145700500Y-91987035D01*
X145700500Y-91204246D01*
X145700499Y-91204230D01*
X145700499Y-90459214D01*
X145700499Y-90459209D01*
X145700499Y-90455636D01*
X145697585Y-90430509D01*
X145652206Y-90327735D01*
X145572765Y-90248294D01*
X145557833Y-90241701D01*
X145478522Y-90206681D01*
X145478517Y-90206679D01*
X145469991Y-90202915D01*
X145460726Y-90201840D01*
X145448414Y-90200411D01*
X145448401Y-90200410D01*
X145444865Y-90200000D01*
X145441290Y-90200000D01*
X145058714Y-90200000D01*
X145058696Y-90200000D01*
X145055136Y-90200001D01*
X145051589Y-90200412D01*
X145051577Y-90200413D01*
X145039274Y-90201840D01*
X145039270Y-90201840D01*
X145030009Y-90202915D01*
X145027703Y-90203932D01*
X144966482Y-90203932D01*
X144960613Y-90202335D01*
X144948340Y-90200911D01*
X144941219Y-90200500D01*
X144916326Y-90200500D01*
X144903450Y-90203950D01*
X144900000Y-90216826D01*
X144900000Y-90224167D01*
X144890561Y-90271620D01*
X144863681Y-90311848D01*
X144855918Y-90319610D01*
X144855915Y-90319613D01*
X144847794Y-90327735D01*
X144846940Y-90329667D01*
X144807819Y-90364511D01*
X144750000Y-90378816D01*
X144692181Y-90364511D01*
X144653059Y-90329667D01*
X144652206Y-90327735D01*
X144636319Y-90311848D01*
X144609439Y-90271620D01*
X144600000Y-90224167D01*
X144600000Y-90216827D01*
X144596549Y-90203951D01*
X144583674Y-90200501D01*
X144558786Y-90200501D01*
X144551650Y-90200913D01*
X144539393Y-90202335D01*
X144533515Y-90203934D01*
X144472294Y-90203932D01*
X144469991Y-90202915D01*
X144460733Y-90201841D01*
X144460730Y-90201840D01*
X144448414Y-90200411D01*
X144448401Y-90200410D01*
X144444865Y-90200000D01*
X144441290Y-90200000D01*
X144436616Y-90200000D01*
X144274499Y-90200000D01*
X144212500Y-90183388D01*
X144167113Y-90138001D01*
X144150500Y-90076001D01*
X144150500Y-89401879D01*
X144164511Y-89344622D01*
X144203376Y-89300304D01*
X144258313Y-89278940D01*
X144387183Y-89261974D01*
X144515018Y-89209024D01*
X144624791Y-89124791D01*
X144651626Y-89089819D01*
X144695156Y-89054095D01*
X144750000Y-89041307D01*
X144804844Y-89054095D01*
X144848373Y-89089819D01*
X144875209Y-89124791D01*
X144881656Y-89129738D01*
X144970074Y-89197585D01*
X144984982Y-89209024D01*
X145112817Y-89261974D01*
X145250000Y-89280035D01*
X145387183Y-89261974D01*
X145515018Y-89209024D01*
X145516841Y-89207624D01*
X145575997Y-89191773D01*
X145637998Y-89208385D01*
X145683386Y-89253772D01*
X145700000Y-89315772D01*
X145700000Y-89441285D01*
X145700000Y-89441302D01*
X145700001Y-89444864D01*
X145700412Y-89448411D01*
X145700413Y-89448422D01*
X145701839Y-89460720D01*
X145701840Y-89460725D01*
X145702915Y-89469991D01*
X145703669Y-89471700D01*
X145703669Y-89528301D01*
X145702915Y-89530009D01*
X145701840Y-89539268D01*
X145701840Y-89539271D01*
X145700411Y-89551585D01*
X145700410Y-89551599D01*
X145700000Y-89555135D01*
X145700000Y-89558708D01*
X145700000Y-89558709D01*
X145700000Y-89941285D01*
X145700000Y-89941302D01*
X145700001Y-89944864D01*
X145700412Y-89948411D01*
X145700413Y-89948422D01*
X145701840Y-89960722D01*
X145702915Y-89969991D01*
X145748294Y-90072765D01*
X145827735Y-90152206D01*
X145898353Y-90183387D01*
X145921977Y-90193818D01*
X145921978Y-90193818D01*
X145930509Y-90197585D01*
X145955635Y-90200500D01*
X147520364Y-90200499D01*
X147545491Y-90197585D01*
X147648265Y-90152206D01*
X147727706Y-90072765D01*
X147773085Y-89969991D01*
X147776000Y-89944865D01*
X147775999Y-89555136D01*
X147773085Y-89530009D01*
X147772331Y-89528301D01*
X147772331Y-89471696D01*
X147773085Y-89469991D01*
X147776000Y-89444865D01*
X147775999Y-89055136D01*
X147773085Y-89030009D01*
X147772331Y-89028301D01*
X147772331Y-88971696D01*
X147773085Y-88969991D01*
X147776000Y-88944865D01*
X147775999Y-88555136D01*
X147773085Y-88530009D01*
X147772331Y-88528301D01*
X147772331Y-88471696D01*
X147773085Y-88469991D01*
X147776000Y-88444865D01*
X147775999Y-88312462D01*
X147789514Y-88256170D01*
X147827113Y-88212146D01*
X147880601Y-88189991D01*
X147938317Y-88194533D01*
X147987680Y-88224783D01*
X148058630Y-88295733D01*
X148067896Y-88306101D01*
X148082159Y-88323987D01*
X148090121Y-88333970D01*
X148097798Y-88339204D01*
X148097799Y-88339205D01*
X148137363Y-88366179D01*
X148141127Y-88368849D01*
X148187118Y-88402793D01*
X148195224Y-88405629D01*
X148202327Y-88410472D01*
X148211209Y-88413211D01*
X148211210Y-88413212D01*
X148256979Y-88427329D01*
X148261355Y-88428769D01*
X148315301Y-88447646D01*
X148323887Y-88447967D01*
X148332098Y-88450500D01*
X148389246Y-88450500D01*
X148393883Y-88450586D01*
X148451010Y-88452725D01*
X148457714Y-88450928D01*
X148465350Y-88450500D01*
X148689739Y-88450500D01*
X148737191Y-88459939D01*
X148862817Y-88511974D01*
X149000000Y-88530035D01*
X149137183Y-88511974D01*
X149262808Y-88459939D01*
X149310261Y-88450500D01*
X149775504Y-88450500D01*
X149838505Y-88467697D01*
X149884031Y-88514518D01*
X149899455Y-88577976D01*
X149880499Y-88640471D01*
X149877911Y-88644588D01*
X149877907Y-88644594D01*
X149874211Y-88650478D01*
X149871915Y-88657036D01*
X149871913Y-88657043D01*
X149816930Y-88814175D01*
X149816928Y-88814182D01*
X149814632Y-88820745D01*
X149813852Y-88827662D01*
X149813852Y-88827665D01*
X149797816Y-88969991D01*
X149794435Y-89000000D01*
X149795215Y-89006923D01*
X149802633Y-89072765D01*
X149814632Y-89179255D01*
X149816928Y-89185819D01*
X149816930Y-89185824D01*
X149863872Y-89319976D01*
X149874211Y-89349522D01*
X149877912Y-89355412D01*
X149936302Y-89448340D01*
X149970184Y-89502262D01*
X150097738Y-89629816D01*
X150250478Y-89725789D01*
X150420745Y-89785368D01*
X150600000Y-89805565D01*
X150779255Y-89785368D01*
X150949522Y-89725789D01*
X151102262Y-89629816D01*
X151229816Y-89502262D01*
X151325789Y-89349522D01*
X151385368Y-89179255D01*
X151405565Y-89000000D01*
X151385368Y-88820745D01*
X151325789Y-88650478D01*
X151229816Y-88497738D01*
X151102262Y-88370184D01*
X151096964Y-88366855D01*
X151062779Y-88323987D01*
X151050500Y-88270187D01*
X151050500Y-88064731D01*
X151051889Y-88052397D01*
X151051553Y-88052372D01*
X151052247Y-88043106D01*
X151054315Y-88034046D01*
X151050847Y-87987770D01*
X151050500Y-87978503D01*
X151050500Y-87777423D01*
X151067859Y-87714149D01*
X151113303Y-87670297D01*
X151117331Y-87668796D01*
X151232546Y-87582546D01*
X151318796Y-87467331D01*
X151369091Y-87332483D01*
X151375500Y-87272873D01*
X151375499Y-86777128D01*
X151369091Y-86717517D01*
X151318796Y-86582669D01*
X151232546Y-86467454D01*
X151223398Y-86460606D01*
X151124431Y-86386519D01*
X151124430Y-86386518D01*
X151117331Y-86381204D01*
X151039817Y-86352293D01*
X150989752Y-86333620D01*
X150989750Y-86333619D01*
X150982483Y-86330909D01*
X150974770Y-86330079D01*
X150974767Y-86330079D01*
X150926180Y-86324855D01*
X150926169Y-86324854D01*
X150922873Y-86324500D01*
X150919550Y-86324500D01*
X150280439Y-86324500D01*
X150280420Y-86324500D01*
X150277128Y-86324501D01*
X150273850Y-86324853D01*
X150273838Y-86324854D01*
X150225231Y-86330079D01*
X150225225Y-86330080D01*
X150217517Y-86330909D01*
X150210252Y-86333618D01*
X150210246Y-86333620D01*
X150090980Y-86378104D01*
X150090978Y-86378104D01*
X150082669Y-86381204D01*
X150075572Y-86386516D01*
X150075568Y-86386519D01*
X149974550Y-86462141D01*
X149974546Y-86462144D01*
X149967454Y-86467454D01*
X149962144Y-86474546D01*
X149962141Y-86474550D01*
X149886519Y-86575568D01*
X149886516Y-86575572D01*
X149881204Y-86582669D01*
X149878104Y-86590978D01*
X149878104Y-86590980D01*
X149833620Y-86710247D01*
X149833619Y-86710250D01*
X149830909Y-86717517D01*
X149830079Y-86725227D01*
X149830079Y-86725232D01*
X149824855Y-86773819D01*
X149824854Y-86773831D01*
X149824500Y-86777127D01*
X149824500Y-86780448D01*
X149824500Y-86780449D01*
X149824500Y-87269560D01*
X149824500Y-87269578D01*
X149824501Y-87272872D01*
X149824853Y-87276150D01*
X149824854Y-87276161D01*
X149830079Y-87324768D01*
X149830080Y-87324773D01*
X149830909Y-87332483D01*
X149833619Y-87339749D01*
X149833620Y-87339753D01*
X149849440Y-87382167D01*
X149856291Y-87440954D01*
X149835114Y-87496220D01*
X149790733Y-87535376D01*
X149733258Y-87549500D01*
X149658715Y-87549500D01*
X149600729Y-87535107D01*
X149556205Y-87495268D01*
X149535478Y-87439233D01*
X149543361Y-87380010D01*
X149561950Y-87332870D01*
X149565816Y-87317575D01*
X149574558Y-87244779D01*
X149574807Y-87240609D01*
X149571549Y-87228450D01*
X149558674Y-87225000D01*
X148674000Y-87225000D01*
X148612000Y-87208387D01*
X148566613Y-87163000D01*
X148550000Y-87101000D01*
X148550000Y-86849000D01*
X148566613Y-86787000D01*
X148612000Y-86741613D01*
X148674000Y-86725000D01*
X149558674Y-86725000D01*
X149571549Y-86721549D01*
X149574807Y-86709390D01*
X149574558Y-86705220D01*
X149565816Y-86632424D01*
X149561952Y-86617136D01*
X149515034Y-86498160D01*
X149506800Y-86483516D01*
X149429845Y-86382036D01*
X149417963Y-86370154D01*
X149324288Y-86299118D01*
X149288157Y-86255474D01*
X149275213Y-86200314D01*
X149288157Y-86145154D01*
X149324288Y-86101510D01*
X149359055Y-86075145D01*
X149425078Y-86025078D01*
X149433873Y-86013480D01*
X149463378Y-85974574D01*
X149507021Y-85938444D01*
X149562181Y-85925500D01*
X149916770Y-85925500D01*
X149955930Y-85931846D01*
X149991080Y-85950232D01*
X150082669Y-86018796D01*
X150217517Y-86069091D01*
X150277127Y-86075500D01*
X150922872Y-86075499D01*
X150982483Y-86069091D01*
X151117331Y-86018796D01*
X151232546Y-85932546D01*
X151318796Y-85817331D01*
X151369091Y-85682483D01*
X151375500Y-85622873D01*
X151375499Y-85611970D01*
X151389010Y-85555677D01*
X151426608Y-85511650D01*
X151480097Y-85489491D01*
X151537815Y-85494032D01*
X151587180Y-85524283D01*
X152113181Y-86050284D01*
X152140061Y-86090512D01*
X152149500Y-86137965D01*
X152149500Y-93048252D01*
X152130081Y-93114876D01*
X152077906Y-93160633D01*
X152016186Y-93170135D01*
X152016186Y-93171026D01*
X152010395Y-93171026D01*
X152009318Y-93171191D01*
X152000000Y-93169965D01*
X151991941Y-93171026D01*
X151870879Y-93186964D01*
X151870874Y-93186965D01*
X151862817Y-93188026D01*
X151855307Y-93191136D01*
X151855302Y-93191138D01*
X151742493Y-93237864D01*
X151742485Y-93237868D01*
X151734983Y-93240976D01*
X151728541Y-93245919D01*
X151728536Y-93245922D01*
X151631651Y-93320265D01*
X151631647Y-93320268D01*
X151625209Y-93325209D01*
X151620268Y-93331647D01*
X151620259Y-93331657D01*
X151594957Y-93364631D01*
X151538992Y-93405665D01*
X151469744Y-93410204D01*
X151412950Y-93379044D01*
X151412628Y-93379449D01*
X151410294Y-93377587D01*
X151408902Y-93376824D01*
X151407190Y-93375112D01*
X151402262Y-93370184D01*
X151393424Y-93364631D01*
X151255412Y-93277912D01*
X151249522Y-93274211D01*
X151242959Y-93271914D01*
X151242956Y-93271913D01*
X151085824Y-93216930D01*
X151085819Y-93216928D01*
X151079255Y-93214632D01*
X151072335Y-93213852D01*
X151072334Y-93213852D01*
X150906923Y-93195215D01*
X150900000Y-93194435D01*
X150893077Y-93195215D01*
X150727665Y-93213852D01*
X150727662Y-93213852D01*
X150720745Y-93214632D01*
X150714182Y-93216928D01*
X150714175Y-93216930D01*
X150557043Y-93271913D01*
X150557036Y-93271915D01*
X150550478Y-93274211D01*
X150544590Y-93277910D01*
X150544587Y-93277912D01*
X150403638Y-93366476D01*
X150403633Y-93366479D01*
X150397738Y-93370184D01*
X150392813Y-93375108D01*
X150392809Y-93375112D01*
X150275112Y-93492809D01*
X150275108Y-93492813D01*
X150270184Y-93497738D01*
X150266479Y-93503633D01*
X150266476Y-93503638D01*
X150177912Y-93644587D01*
X150177910Y-93644590D01*
X150174211Y-93650478D01*
X150171915Y-93657036D01*
X150171913Y-93657043D01*
X150116930Y-93814175D01*
X150116928Y-93814182D01*
X150114632Y-93820745D01*
X150113852Y-93827662D01*
X150113852Y-93827665D01*
X150099488Y-93955149D01*
X150094435Y-94000000D01*
X150095215Y-94006923D01*
X150113339Y-94167784D01*
X150114632Y-94179255D01*
X150116928Y-94185819D01*
X150116930Y-94185824D01*
X150167072Y-94329120D01*
X150174211Y-94349522D01*
X150200500Y-94391361D01*
X150237345Y-94450000D01*
X150270184Y-94502262D01*
X150397738Y-94629816D01*
X150403035Y-94633144D01*
X150437221Y-94676013D01*
X150449500Y-94729813D01*
X150449500Y-95051459D01*
X150442919Y-95091318D01*
X150423876Y-95126946D01*
X150345922Y-95228535D01*
X150345916Y-95228544D01*
X150340976Y-95234983D01*
X150337868Y-95242485D01*
X150337864Y-95242493D01*
X150291138Y-95355302D01*
X150291136Y-95355307D01*
X150288026Y-95362817D01*
X150286965Y-95370874D01*
X150286964Y-95370879D01*
X150273110Y-95476112D01*
X150269965Y-95500000D01*
X150271026Y-95508059D01*
X150286964Y-95629120D01*
X150286964Y-95629123D01*
X150288026Y-95637183D01*
X150340976Y-95765018D01*
X150345922Y-95771464D01*
X150345924Y-95771467D01*
X150420261Y-95868343D01*
X150425209Y-95874791D01*
X150431656Y-95879738D01*
X150513438Y-95942493D01*
X150534982Y-95959024D01*
X150662817Y-96011974D01*
X150800000Y-96030035D01*
X150937183Y-96011974D01*
X151065018Y-95959024D01*
X151174791Y-95874791D01*
X151259024Y-95765018D01*
X151311974Y-95637183D01*
X151320802Y-95570121D01*
X151325249Y-95549760D01*
X151327326Y-95543026D01*
X151328759Y-95538672D01*
X151347646Y-95484700D01*
X151347967Y-95476112D01*
X151350500Y-95467902D01*
X151350500Y-95410739D01*
X151350587Y-95406102D01*
X151351587Y-95379377D01*
X151355618Y-95366161D01*
X151352397Y-95357723D01*
X151352724Y-95348990D01*
X151350928Y-95342290D01*
X151350500Y-95334658D01*
X151350500Y-94729813D01*
X151362771Y-94676029D01*
X151396943Y-94633158D01*
X151399573Y-94631505D01*
X151461587Y-94605798D01*
X151529284Y-94617286D01*
X151580488Y-94663035D01*
X151599500Y-94729015D01*
X151599500Y-95343534D01*
X151594212Y-95364031D01*
X151599500Y-95384014D01*
X151599500Y-100382745D01*
X151590061Y-100430198D01*
X151563181Y-100470426D01*
X150987892Y-101045713D01*
X150955056Y-101069244D01*
X150916399Y-101080971D01*
X150870878Y-101086964D01*
X150870873Y-101086965D01*
X150862817Y-101088026D01*
X150855307Y-101091136D01*
X150855302Y-101091138D01*
X150742493Y-101137864D01*
X150742485Y-101137868D01*
X150734983Y-101140976D01*
X150728541Y-101145919D01*
X150728536Y-101145922D01*
X150631651Y-101220265D01*
X150631647Y-101220268D01*
X150625209Y-101225209D01*
X150620268Y-101231647D01*
X150620265Y-101231651D01*
X150545922Y-101328536D01*
X150545919Y-101328541D01*
X150540976Y-101334983D01*
X150537868Y-101342485D01*
X150537864Y-101342493D01*
X150488561Y-101461525D01*
X150446886Y-101514391D01*
X150434588Y-101518927D01*
X150453052Y-101536234D01*
X150470256Y-101597782D01*
X150469965Y-101600000D01*
X150471026Y-101608059D01*
X150471026Y-101608060D01*
X150485858Y-101720720D01*
X150484184Y-101734637D01*
X150486068Y-101737993D01*
X150488026Y-101737183D01*
X150540976Y-101865018D01*
X150545922Y-101871464D01*
X150545924Y-101871467D01*
X150606196Y-101950013D01*
X150631224Y-102013345D01*
X150619033Y-102080343D01*
X150573302Y-102130801D01*
X150507821Y-102149500D01*
X150374499Y-102149500D01*
X150312499Y-102132887D01*
X150267112Y-102087500D01*
X150250499Y-102025500D01*
X150250499Y-101808714D01*
X150250499Y-101808709D01*
X150250499Y-101805136D01*
X150249387Y-101795550D01*
X150251056Y-101783177D01*
X150248923Y-101779418D01*
X150247586Y-101780009D01*
X150212023Y-101699467D01*
X150201457Y-101649380D01*
X150212023Y-101599293D01*
X150233592Y-101550446D01*
X150276008Y-101498885D01*
X150286103Y-101495345D01*
X150268273Y-101478863D01*
X150250000Y-101414073D01*
X150250000Y-100966326D01*
X150246549Y-100953450D01*
X150233674Y-100950000D01*
X147866327Y-100950000D01*
X147853451Y-100953450D01*
X147850001Y-100966326D01*
X147850001Y-101491214D01*
X147850413Y-101498349D01*
X147851835Y-101510606D01*
X147856677Y-101528407D01*
X147887977Y-101599295D01*
X147898542Y-101649381D01*
X147887977Y-101699466D01*
X147856182Y-101771474D01*
X147856179Y-101771483D01*
X147852415Y-101780009D01*
X147851340Y-101789271D01*
X147851340Y-101789273D01*
X147849911Y-101801585D01*
X147849910Y-101801599D01*
X147849500Y-101805135D01*
X147849500Y-101808708D01*
X147849500Y-101808709D01*
X147849500Y-103391285D01*
X147849500Y-103391302D01*
X147849501Y-103394864D01*
X147849912Y-103398411D01*
X147849913Y-103398422D01*
X147851207Y-103409577D01*
X147852415Y-103419991D01*
X147856181Y-103428521D01*
X147856182Y-103428523D01*
X147887704Y-103499914D01*
X147898269Y-103550000D01*
X147887704Y-103600086D01*
X147856181Y-103671477D01*
X147856179Y-103671484D01*
X147852415Y-103680009D01*
X147851340Y-103689271D01*
X147851340Y-103689273D01*
X147849911Y-103701585D01*
X147849910Y-103701599D01*
X147849500Y-103705135D01*
X147849500Y-103708708D01*
X147849500Y-103708709D01*
X147849500Y-105291285D01*
X147849500Y-105291302D01*
X147849501Y-105294864D01*
X147849912Y-105298411D01*
X147849913Y-105298422D01*
X147851340Y-105310722D01*
X147852415Y-105319991D01*
X147856182Y-105328523D01*
X147856184Y-105328529D01*
X147887703Y-105399913D01*
X147898269Y-105449998D01*
X147887704Y-105500084D01*
X147856182Y-105571474D01*
X147856179Y-105571483D01*
X147852415Y-105580009D01*
X147851340Y-105589271D01*
X147851340Y-105589273D01*
X147849911Y-105601585D01*
X147849910Y-105601599D01*
X147849500Y-105605135D01*
X147849500Y-105608708D01*
X147849500Y-105608709D01*
X147849500Y-107191285D01*
X147849500Y-107191302D01*
X147849501Y-107194864D01*
X147849912Y-107198411D01*
X147849913Y-107198422D01*
X147851327Y-107210606D01*
X147852415Y-107219991D01*
X147856181Y-107228521D01*
X147856182Y-107228523D01*
X147887977Y-107300532D01*
X147898542Y-107350618D01*
X147887977Y-107400703D01*
X147856675Y-107471595D01*
X147851835Y-107489384D01*
X147850411Y-107501659D01*
X147850000Y-107508781D01*
X147850000Y-108033674D01*
X147853450Y-108046549D01*
X147866326Y-108050000D01*
X150233673Y-108050000D01*
X150246548Y-108046549D01*
X150249999Y-108033674D01*
X150249999Y-107508786D01*
X150249586Y-107501650D01*
X150248164Y-107489393D01*
X150243320Y-107471586D01*
X150212023Y-107400704D01*
X150201457Y-107350618D01*
X150212023Y-107300531D01*
X150212297Y-107299912D01*
X150247585Y-107219991D01*
X150250500Y-107194865D01*
X150250499Y-105605136D01*
X150247585Y-105580009D01*
X150212295Y-105500084D01*
X150201730Y-105450000D01*
X150212296Y-105399913D01*
X150243817Y-105328525D01*
X150243818Y-105328523D01*
X150247585Y-105319991D01*
X150250500Y-105294865D01*
X150250500Y-105074500D01*
X150267113Y-105012500D01*
X150312500Y-104967113D01*
X150374500Y-104950500D01*
X151267739Y-104950500D01*
X151281621Y-104951279D01*
X151317035Y-104955270D01*
X151373219Y-104944638D01*
X151377778Y-104943864D01*
X151434287Y-104935348D01*
X151442026Y-104931620D01*
X151450472Y-104930023D01*
X151501045Y-104903292D01*
X151505153Y-104901220D01*
X151513717Y-104897095D01*
X151556642Y-104876425D01*
X151562939Y-104870582D01*
X151570538Y-104866566D01*
X151610976Y-104826126D01*
X151614261Y-104822961D01*
X151656194Y-104784055D01*
X151659663Y-104778045D01*
X151664747Y-104772355D01*
X153395749Y-103041353D01*
X153406098Y-103032105D01*
X153433970Y-103009879D01*
X153466191Y-102962618D01*
X153468852Y-102958869D01*
X153471404Y-102955412D01*
X153502792Y-102912883D01*
X153505628Y-102904777D01*
X153510472Y-102897673D01*
X153527331Y-102843014D01*
X153528769Y-102838643D01*
X153547646Y-102784700D01*
X153547967Y-102776112D01*
X153550500Y-102767902D01*
X153550500Y-102710739D01*
X153550587Y-102706102D01*
X153552376Y-102658280D01*
X153552724Y-102648990D01*
X153550928Y-102642287D01*
X153550500Y-102634658D01*
X153550500Y-85632261D01*
X153551280Y-85618378D01*
X153552315Y-85609189D01*
X153555270Y-85582965D01*
X153544635Y-85526761D01*
X153543864Y-85522218D01*
X153542271Y-85511650D01*
X153535348Y-85465713D01*
X153531622Y-85457976D01*
X153530024Y-85449529D01*
X153525669Y-85441290D01*
X153503306Y-85398977D01*
X153501236Y-85394878D01*
X153476425Y-85343358D01*
X153470581Y-85337059D01*
X153466566Y-85329463D01*
X153426163Y-85289060D01*
X153422946Y-85285721D01*
X153390374Y-85250616D01*
X153390372Y-85250615D01*
X153384055Y-85243806D01*
X153378046Y-85240336D01*
X153372340Y-85235237D01*
X150891368Y-82754265D01*
X150882102Y-82743896D01*
X150865676Y-82723298D01*
X150865672Y-82723294D01*
X150859879Y-82716030D01*
X150812643Y-82683825D01*
X150808870Y-82681148D01*
X150770356Y-82652723D01*
X150770355Y-82652722D01*
X150762882Y-82647207D01*
X150754775Y-82644370D01*
X150747673Y-82639528D01*
X150738798Y-82636790D01*
X150738795Y-82636789D01*
X150693049Y-82622679D01*
X150688644Y-82621230D01*
X150643465Y-82605421D01*
X150643463Y-82605420D01*
X150634699Y-82602354D01*
X150626113Y-82602032D01*
X150617902Y-82599500D01*
X150608612Y-82599500D01*
X150560738Y-82599500D01*
X150556101Y-82599413D01*
X150508280Y-82597623D01*
X150508275Y-82597623D01*
X150498990Y-82597276D01*
X150492287Y-82599071D01*
X150484658Y-82599500D01*
X147645165Y-82599500D01*
X147578540Y-82580080D01*
X147532783Y-82527904D01*
X147522226Y-82459314D01*
X147528974Y-82408059D01*
X147530035Y-82400000D01*
X147511974Y-82262817D01*
X147459939Y-82137192D01*
X147450500Y-82089740D01*
X147450500Y-82042557D01*
X150316426Y-82042557D01*
X150324496Y-82053758D01*
X150488929Y-82182584D01*
X150495081Y-82186831D01*
X150763026Y-82348810D01*
X150769646Y-82352284D01*
X151055168Y-82480786D01*
X151062156Y-82483436D01*
X151361077Y-82576584D01*
X151368333Y-82578373D01*
X151676309Y-82634811D01*
X151683732Y-82635713D01*
X151996264Y-82654618D01*
X152003736Y-82654618D01*
X152316267Y-82635713D01*
X152323690Y-82634811D01*
X152631666Y-82578373D01*
X152638922Y-82576584D01*
X152937843Y-82483436D01*
X152944831Y-82480786D01*
X153230353Y-82352284D01*
X153236973Y-82348810D01*
X153504913Y-82186834D01*
X153511076Y-82182579D01*
X153675503Y-82053758D01*
X153683572Y-82042557D01*
X153676911Y-82030464D01*
X152011542Y-80365095D01*
X152000000Y-80358431D01*
X151988457Y-80365095D01*
X150323087Y-82030464D01*
X150316426Y-82042557D01*
X147450500Y-82042557D01*
X147450500Y-80532261D01*
X147451280Y-80518378D01*
X147453407Y-80499499D01*
X147455270Y-80482965D01*
X147444635Y-80426761D01*
X147443864Y-80422220D01*
X147437753Y-80381674D01*
X147435348Y-80365713D01*
X147431620Y-80357973D01*
X147430023Y-80349528D01*
X147403293Y-80298954D01*
X147401220Y-80294846D01*
X147380458Y-80251732D01*
X147380456Y-80251730D01*
X147376425Y-80243358D01*
X147370582Y-80237060D01*
X147366566Y-80229462D01*
X147326152Y-80189048D01*
X147322934Y-80185708D01*
X147316253Y-80178508D01*
X147284055Y-80143806D01*
X147278046Y-80140336D01*
X147272343Y-80135239D01*
X147140840Y-80003736D01*
X149345382Y-80003736D01*
X149364286Y-80316267D01*
X149365188Y-80323690D01*
X149421626Y-80631666D01*
X149423415Y-80638922D01*
X149516563Y-80937843D01*
X149519213Y-80944831D01*
X149647715Y-81230353D01*
X149651189Y-81236973D01*
X149813168Y-81504918D01*
X149817415Y-81511070D01*
X149946240Y-81675502D01*
X149957441Y-81683572D01*
X149969534Y-81676911D01*
X151634904Y-80011542D01*
X151641568Y-80000000D01*
X151634904Y-79988457D01*
X149969534Y-78323087D01*
X149957441Y-78316426D01*
X149946240Y-78324496D01*
X149817415Y-78488929D01*
X149813168Y-78495081D01*
X149651189Y-78763026D01*
X149647715Y-78769646D01*
X149519213Y-79055168D01*
X149516563Y-79062156D01*
X149423415Y-79361077D01*
X149421626Y-79368333D01*
X149365188Y-79676309D01*
X149364286Y-79683732D01*
X149345382Y-79996264D01*
X149345382Y-80003736D01*
X147140840Y-80003736D01*
X146684030Y-79546926D01*
X146081818Y-78944715D01*
X146054939Y-78904488D01*
X146045500Y-78857035D01*
X146045500Y-77957441D01*
X150316426Y-77957441D01*
X150323087Y-77969534D01*
X151988457Y-79634904D01*
X152000000Y-79641568D01*
X152011542Y-79634904D01*
X153676911Y-77969534D01*
X153683572Y-77957441D01*
X153675502Y-77946240D01*
X153511070Y-77817415D01*
X153504918Y-77813168D01*
X153236973Y-77651189D01*
X153230353Y-77647715D01*
X152944831Y-77519213D01*
X152937843Y-77516563D01*
X152638922Y-77423415D01*
X152631666Y-77421626D01*
X152323690Y-77365188D01*
X152316267Y-77364286D01*
X152003736Y-77345382D01*
X151996264Y-77345382D01*
X151683732Y-77364286D01*
X151676309Y-77365188D01*
X151368333Y-77421626D01*
X151361077Y-77423415D01*
X151062156Y-77516563D01*
X151055168Y-77519213D01*
X150769646Y-77647715D01*
X150763026Y-77651189D01*
X150495081Y-77813168D01*
X150488929Y-77817415D01*
X150324496Y-77946240D01*
X150316426Y-77957441D01*
X146045500Y-77957441D01*
X146045500Y-77150250D01*
X146056424Y-77099359D01*
X146087273Y-77057435D01*
X146132610Y-77031865D01*
X146242107Y-76997744D01*
X146242106Y-76997744D01*
X146249270Y-76995512D01*
X146389653Y-76910648D01*
X146505648Y-76794653D01*
X146506976Y-76795981D01*
X146540715Y-76768715D01*
X146595000Y-76756201D01*
X146649285Y-76768715D01*
X146683023Y-76795981D01*
X146684352Y-76794653D01*
X146800347Y-76910648D01*
X146806760Y-76914525D01*
X146806763Y-76914527D01*
X146892018Y-76966065D01*
X146940730Y-76995512D01*
X146947893Y-76997744D01*
X147091078Y-77042363D01*
X147091080Y-77042363D01*
X147097343Y-77044315D01*
X147165406Y-77050500D01*
X148021775Y-77050500D01*
X148024594Y-77050500D01*
X148092657Y-77044315D01*
X148249270Y-76995512D01*
X148389653Y-76910648D01*
X148505648Y-76794653D01*
X148506895Y-76795900D01*
X148541020Y-76768314D01*
X148595306Y-76755793D01*
X148649594Y-76768302D01*
X148683439Y-76795651D01*
X148684748Y-76794343D01*
X148795353Y-76904948D01*
X148807073Y-76914131D01*
X148934515Y-76991171D01*
X148948103Y-76997287D01*
X149091166Y-77041866D01*
X149103970Y-77044413D01*
X149162631Y-77049744D01*
X149168259Y-77049999D01*
X150021737Y-77049999D01*
X150027370Y-77049743D01*
X150086031Y-77044413D01*
X150098830Y-77041867D01*
X150241896Y-76997287D01*
X150255484Y-76991171D01*
X150382926Y-76914131D01*
X150394646Y-76904948D01*
X150499944Y-76799650D01*
X150509135Y-76787919D01*
X150509622Y-76787113D01*
X150513427Y-76775714D01*
X150507004Y-76765557D01*
X149329128Y-75587681D01*
X149297034Y-75532094D01*
X149297034Y-75500000D01*
X149953431Y-75500000D01*
X149960095Y-75511542D01*
X150634621Y-76186068D01*
X150642768Y-76191060D01*
X150644999Y-76181770D01*
X150644999Y-74818229D01*
X150642768Y-74808938D01*
X150634621Y-74813930D01*
X149960095Y-75488457D01*
X149953431Y-75500000D01*
X149297034Y-75500000D01*
X149297034Y-75467906D01*
X149329128Y-75412319D01*
X149595000Y-75146447D01*
X150507004Y-74234441D01*
X150513427Y-74224285D01*
X150509620Y-74212883D01*
X150509134Y-74212079D01*
X150499945Y-74200350D01*
X150394646Y-74095051D01*
X150382926Y-74085868D01*
X150255484Y-74008828D01*
X150241896Y-74002712D01*
X150098833Y-73958133D01*
X150086029Y-73955586D01*
X150027368Y-73950255D01*
X150021740Y-73950000D01*
X149168262Y-73950000D01*
X149162629Y-73950256D01*
X149103968Y-73955586D01*
X149091169Y-73958132D01*
X148948103Y-74002712D01*
X148934515Y-74008828D01*
X148807073Y-74085868D01*
X148795353Y-74095051D01*
X148684748Y-74205657D01*
X148683442Y-74204351D01*
X148649581Y-74231703D01*
X148595304Y-74244206D01*
X148541030Y-74231690D01*
X148506892Y-74204102D01*
X148505648Y-74205347D01*
X148389653Y-74089352D01*
X148383240Y-74085475D01*
X148383236Y-74085472D01*
X148255687Y-74008367D01*
X148255685Y-74008366D01*
X148249270Y-74004488D01*
X148242112Y-74002257D01*
X148242109Y-74002256D01*
X148098921Y-73957636D01*
X148098912Y-73957634D01*
X148092657Y-73955685D01*
X148086125Y-73955091D01*
X148086123Y-73955091D01*
X148027403Y-73949755D01*
X148027397Y-73949754D01*
X148024594Y-73949500D01*
X147165406Y-73949500D01*
X147162603Y-73949754D01*
X147162596Y-73949755D01*
X147103876Y-73955091D01*
X147103872Y-73955091D01*
X147097343Y-73955685D01*
X147091089Y-73957633D01*
X147091078Y-73957636D01*
X146947890Y-74002256D01*
X146947883Y-74002258D01*
X146940730Y-74004488D01*
X146934317Y-74008364D01*
X146934312Y-74008367D01*
X146806763Y-74085472D01*
X146806755Y-74085478D01*
X146800347Y-74089352D01*
X146795047Y-74094651D01*
X146795043Y-74094655D01*
X146684352Y-74205347D01*
X146683026Y-74204021D01*
X146649272Y-74231290D01*
X146595000Y-74243798D01*
X146540728Y-74231290D01*
X146506973Y-74204021D01*
X146505648Y-74205347D01*
X146389653Y-74089352D01*
X146383240Y-74085475D01*
X146383236Y-74085472D01*
X146255687Y-74008367D01*
X146255685Y-74008366D01*
X146249270Y-74004488D01*
X146242112Y-74002257D01*
X146242109Y-74002256D01*
X146098921Y-73957636D01*
X146098912Y-73957634D01*
X146092657Y-73955685D01*
X146086125Y-73955091D01*
X146086123Y-73955091D01*
X146027403Y-73949755D01*
X146027397Y-73949754D01*
X146024594Y-73949500D01*
X145165406Y-73949500D01*
X145162603Y-73949754D01*
X145162596Y-73949755D01*
X145103876Y-73955091D01*
X145103872Y-73955091D01*
X145097343Y-73955685D01*
X145091089Y-73957633D01*
X145091078Y-73957636D01*
X144947890Y-74002256D01*
X144947883Y-74002258D01*
X144940730Y-74004488D01*
X144934317Y-74008364D01*
X144934312Y-74008367D01*
X144806763Y-74085472D01*
X144806755Y-74085478D01*
X144800347Y-74089352D01*
X144795047Y-74094651D01*
X144795043Y-74094655D01*
X144684352Y-74205347D01*
X144683026Y-74204021D01*
X144649272Y-74231290D01*
X144595000Y-74243798D01*
X144540728Y-74231290D01*
X144506973Y-74204021D01*
X144505648Y-74205347D01*
X144389653Y-74089352D01*
X144383240Y-74085475D01*
X144383236Y-74085472D01*
X144255687Y-74008367D01*
X144255685Y-74008366D01*
X144249270Y-74004488D01*
X144242112Y-74002257D01*
X144242109Y-74002256D01*
X144098921Y-73957636D01*
X144098912Y-73957634D01*
X144092657Y-73955685D01*
X144086125Y-73955091D01*
X144086123Y-73955091D01*
X144027403Y-73949755D01*
X144027397Y-73949754D01*
X144024594Y-73949500D01*
X143165406Y-73949500D01*
X143162603Y-73949754D01*
X143162596Y-73949755D01*
X143103876Y-73955091D01*
X143103872Y-73955091D01*
X143097343Y-73955685D01*
X143091089Y-73957633D01*
X143091078Y-73957636D01*
X142947890Y-74002256D01*
X142947883Y-74002258D01*
X142940730Y-74004488D01*
X142934317Y-74008364D01*
X142934312Y-74008367D01*
X142806763Y-74085472D01*
X142806755Y-74085478D01*
X142800347Y-74089352D01*
X142795047Y-74094651D01*
X142795043Y-74094655D01*
X142684352Y-74205347D01*
X142683026Y-74204021D01*
X142649272Y-74231290D01*
X142595000Y-74243798D01*
X142540728Y-74231290D01*
X142506973Y-74204021D01*
X142505648Y-74205347D01*
X142389653Y-74089352D01*
X142383240Y-74085475D01*
X142383236Y-74085472D01*
X142255687Y-74008367D01*
X142255685Y-74008366D01*
X142249270Y-74004488D01*
X142242112Y-74002257D01*
X142242109Y-74002256D01*
X142098921Y-73957636D01*
X142098912Y-73957634D01*
X142092657Y-73955685D01*
X142086125Y-73955091D01*
X142086123Y-73955091D01*
X142027403Y-73949755D01*
X142027397Y-73949754D01*
X142024594Y-73949500D01*
X141165406Y-73949500D01*
X141162603Y-73949754D01*
X141162596Y-73949755D01*
X141103876Y-73955091D01*
X141103872Y-73955091D01*
X141097343Y-73955685D01*
X141091089Y-73957633D01*
X141091078Y-73957636D01*
X140947890Y-74002256D01*
X140947883Y-74002258D01*
X140940730Y-74004488D01*
X140934317Y-74008364D01*
X140934312Y-74008367D01*
X140806763Y-74085472D01*
X140806755Y-74085478D01*
X140800347Y-74089352D01*
X140795047Y-74094651D01*
X140795043Y-74094655D01*
X140684352Y-74205347D01*
X140683026Y-74204021D01*
X140649272Y-74231290D01*
X140595000Y-74243798D01*
X140540728Y-74231290D01*
X140506973Y-74204021D01*
X140505648Y-74205347D01*
X140389653Y-74089352D01*
X140383240Y-74085475D01*
X140383236Y-74085472D01*
X140255687Y-74008367D01*
X140255685Y-74008366D01*
X140249270Y-74004488D01*
X140242112Y-74002257D01*
X140242109Y-74002256D01*
X140098921Y-73957636D01*
X140098912Y-73957634D01*
X140092657Y-73955685D01*
X140086125Y-73955091D01*
X140086123Y-73955091D01*
X140027403Y-73949755D01*
X140027397Y-73949754D01*
X140024594Y-73949500D01*
X139165406Y-73949500D01*
X139162603Y-73949754D01*
X139162596Y-73949755D01*
X139103876Y-73955091D01*
X139103872Y-73955091D01*
X139097343Y-73955685D01*
X139091089Y-73957633D01*
X139091078Y-73957636D01*
X138947890Y-74002256D01*
X138947883Y-74002258D01*
X138940730Y-74004488D01*
X138934317Y-74008364D01*
X138934312Y-74008367D01*
X138806763Y-74085472D01*
X138806755Y-74085478D01*
X138800347Y-74089352D01*
X138795047Y-74094651D01*
X138795043Y-74094655D01*
X138684352Y-74205347D01*
X138683026Y-74204021D01*
X138649272Y-74231290D01*
X138595000Y-74243798D01*
X138540728Y-74231290D01*
X138506973Y-74204021D01*
X138505648Y-74205347D01*
X138389653Y-74089352D01*
X138383240Y-74085475D01*
X138383236Y-74085472D01*
X138255687Y-74008367D01*
X138255685Y-74008366D01*
X138249270Y-74004488D01*
X138242112Y-74002257D01*
X138242109Y-74002256D01*
X138098921Y-73957636D01*
X138098912Y-73957634D01*
X138092657Y-73955685D01*
X138086125Y-73955091D01*
X138086123Y-73955091D01*
X138027403Y-73949755D01*
X138027397Y-73949754D01*
X138024594Y-73949500D01*
X138021775Y-73949500D01*
X137424500Y-73949500D01*
X137362500Y-73932887D01*
X137317113Y-73887500D01*
X137300500Y-73825500D01*
X137300500Y-68016579D01*
X137300500Y-68012342D01*
X137285070Y-67900080D01*
X137224780Y-67761280D01*
X137129278Y-67643892D01*
X137005647Y-67556623D01*
X136997658Y-67553784D01*
X136997655Y-67553782D01*
X136871048Y-67508786D01*
X136871045Y-67508785D01*
X136863056Y-67505946D01*
X136854595Y-67505367D01*
X136854594Y-67505367D01*
X136720542Y-67496197D01*
X136720535Y-67496197D01*
X136712079Y-67495619D01*
X136703774Y-67497344D01*
X136703771Y-67497345D01*
X136572222Y-67524681D01*
X136572216Y-67524682D01*
X136563915Y-67526408D01*
X136556387Y-67530308D01*
X136556383Y-67530310D01*
X136437083Y-67592127D01*
X136429553Y-67596029D01*
X136423359Y-67601813D01*
X136423353Y-67601818D01*
X136325155Y-67693529D01*
X136325149Y-67693535D01*
X136318956Y-67699320D01*
X136314552Y-67706561D01*
X136314547Y-67706568D01*
X136244732Y-67821374D01*
X136244729Y-67821380D01*
X136240328Y-67828618D01*
X136238042Y-67836776D01*
X136238041Y-67836779D01*
X136201787Y-67966170D01*
X136201786Y-67966175D01*
X136199500Y-67974335D01*
X136199500Y-69949335D01*
X136199500Y-71924335D01*
X136199500Y-73787658D01*
X136200076Y-73791852D01*
X136200077Y-73791860D01*
X136203074Y-73813665D01*
X136198207Y-73868720D01*
X136169902Y-73916191D01*
X136123781Y-73946648D01*
X136069007Y-73954039D01*
X136027368Y-73950255D01*
X136021740Y-73950000D01*
X135168262Y-73950000D01*
X135162629Y-73950256D01*
X135103968Y-73955586D01*
X135091169Y-73958132D01*
X134948103Y-74002712D01*
X134934515Y-74008828D01*
X134807073Y-74085868D01*
X134795353Y-74095051D01*
X134690054Y-74200350D01*
X134680865Y-74212078D01*
X134680375Y-74212888D01*
X134676571Y-74224283D01*
X134682994Y-74234441D01*
X135860871Y-75412318D01*
X135892965Y-75467905D01*
X135892965Y-75532093D01*
X135860871Y-75587680D01*
X134682993Y-76765558D01*
X134676571Y-76775714D01*
X134680375Y-76787110D01*
X134680868Y-76787925D01*
X134690053Y-76799648D01*
X134795353Y-76904948D01*
X134807073Y-76914131D01*
X134934515Y-76991171D01*
X134948103Y-76997287D01*
X135091166Y-77041866D01*
X135103970Y-77044413D01*
X135162631Y-77049744D01*
X135168259Y-77049999D01*
X136021737Y-77049999D01*
X136027370Y-77049743D01*
X136086031Y-77044413D01*
X136098830Y-77041867D01*
X136241896Y-76997287D01*
X136255484Y-76991171D01*
X136382926Y-76914131D01*
X136394646Y-76904948D01*
X136505252Y-76794343D01*
X136506562Y-76795653D01*
X136540375Y-76768317D01*
X136594661Y-76755793D01*
X136648951Y-76768300D01*
X136683107Y-76795897D01*
X136684352Y-76794653D01*
X136800347Y-76910648D01*
X136806760Y-76914525D01*
X136806763Y-76914527D01*
X136892018Y-76966065D01*
X136940730Y-76995512D01*
X136947893Y-76997744D01*
X137091078Y-77042363D01*
X137091080Y-77042363D01*
X137097343Y-77044315D01*
X137165406Y-77050500D01*
X137362034Y-77050500D01*
X137409487Y-77059939D01*
X137449715Y-77086819D01*
X138213181Y-77850284D01*
X138240061Y-77890512D01*
X138249500Y-77937965D01*
X138249500Y-78417739D01*
X138248720Y-78431621D01*
X138244730Y-78467035D01*
X138246456Y-78476161D01*
X138246804Y-78485452D01*
X138246053Y-78485480D01*
X138246775Y-78511248D01*
X138244965Y-78525000D01*
X138263026Y-78662183D01*
X138266137Y-78669694D01*
X138266138Y-78669697D01*
X138275503Y-78692306D01*
X138315976Y-78790018D01*
X138320922Y-78796464D01*
X138320924Y-78796467D01*
X138395261Y-78893343D01*
X138400209Y-78899791D01*
X138406656Y-78904738D01*
X138458755Y-78944716D01*
X138509982Y-78984024D01*
X138637817Y-79036974D01*
X138775000Y-79055035D01*
X138912183Y-79036974D01*
X139040018Y-78984024D01*
X139149791Y-78899791D01*
X139234024Y-78790018D01*
X139286974Y-78662183D01*
X139299305Y-78568521D01*
X139326389Y-78506045D01*
X139382384Y-78467290D01*
X139450400Y-78463948D01*
X139509924Y-78497028D01*
X140708630Y-79695733D01*
X140717896Y-79706101D01*
X140740121Y-79733970D01*
X140747798Y-79739204D01*
X140747799Y-79739205D01*
X140787363Y-79766179D01*
X140791127Y-79768849D01*
X140837118Y-79802793D01*
X140845224Y-79805629D01*
X140852327Y-79810472D01*
X140861209Y-79813211D01*
X140861210Y-79813212D01*
X140906979Y-79827329D01*
X140911355Y-79828769D01*
X140965301Y-79847646D01*
X140973887Y-79847967D01*
X140982098Y-79850500D01*
X141039246Y-79850500D01*
X141043883Y-79850586D01*
X141101010Y-79852725D01*
X141107714Y-79850928D01*
X141115350Y-79850500D01*
X141912034Y-79850500D01*
X141959487Y-79859939D01*
X141999715Y-79886819D01*
X142124438Y-80011542D01*
X142230563Y-80117666D01*
X142263943Y-80178508D01*
X142259404Y-80247756D01*
X142218370Y-80303722D01*
X142131653Y-80370263D01*
X142131647Y-80370268D01*
X142125209Y-80375209D01*
X142120268Y-80381647D01*
X142120260Y-80381656D01*
X142060033Y-80460145D01*
X142018914Y-80494648D01*
X141967067Y-80508540D01*
X141914209Y-80499220D01*
X141887183Y-80488026D01*
X141879123Y-80486964D01*
X141879120Y-80486964D01*
X141758059Y-80471026D01*
X141750000Y-80469965D01*
X141741941Y-80471026D01*
X141620879Y-80486964D01*
X141620874Y-80486965D01*
X141612817Y-80488026D01*
X141605307Y-80491136D01*
X141605302Y-80491138D01*
X141585117Y-80499499D01*
X141532021Y-80508808D01*
X141479993Y-80494708D01*
X141438864Y-80459863D01*
X141379846Y-80382037D01*
X141367963Y-80370154D01*
X141266483Y-80293199D01*
X141251839Y-80284965D01*
X141132863Y-80238047D01*
X141117575Y-80234183D01*
X141044779Y-80225441D01*
X141040609Y-80225192D01*
X141028450Y-80228450D01*
X141025000Y-80241326D01*
X141025000Y-81126000D01*
X141008387Y-81188000D01*
X140963000Y-81233387D01*
X140901000Y-81250000D01*
X140649000Y-81250000D01*
X140587000Y-81233387D01*
X140541613Y-81188000D01*
X140525000Y-81126000D01*
X140525000Y-80241326D01*
X140521549Y-80228450D01*
X140509390Y-80225192D01*
X140505220Y-80225441D01*
X140432424Y-80234183D01*
X140417136Y-80238047D01*
X140298160Y-80284965D01*
X140283516Y-80293199D01*
X140182036Y-80370154D01*
X140170153Y-80382037D01*
X140099117Y-80475712D01*
X140055474Y-80511842D01*
X140000314Y-80524786D01*
X139945154Y-80511842D01*
X139901510Y-80475712D01*
X139889491Y-80459863D01*
X139825078Y-80374922D01*
X139709975Y-80287636D01*
X139702079Y-80284522D01*
X139582988Y-80237558D01*
X139582985Y-80237557D01*
X139575590Y-80234641D01*
X139567699Y-80233693D01*
X139567694Y-80233692D01*
X139494821Y-80224941D01*
X139494811Y-80224940D01*
X139491144Y-80224500D01*
X138958856Y-80224500D01*
X138955189Y-80224940D01*
X138955178Y-80224941D01*
X138882305Y-80233692D01*
X138882298Y-80233693D01*
X138874410Y-80234641D01*
X138867016Y-80237556D01*
X138867011Y-80237558D01*
X138747920Y-80284522D01*
X138747916Y-80284523D01*
X138740025Y-80287636D01*
X138733266Y-80292761D01*
X138733265Y-80292762D01*
X138631674Y-80369801D01*
X138631670Y-80369804D01*
X138624922Y-80374922D01*
X138619804Y-80381670D01*
X138619801Y-80381674D01*
X138542762Y-80483265D01*
X138537636Y-80490025D01*
X138534523Y-80497916D01*
X138534522Y-80497920D01*
X138487558Y-80617011D01*
X138487556Y-80617016D01*
X138484641Y-80624410D01*
X138483693Y-80632298D01*
X138483692Y-80632305D01*
X138474941Y-80705178D01*
X138474940Y-80705189D01*
X138474500Y-80708856D01*
X138474500Y-80712556D01*
X138474500Y-81033413D01*
X138465855Y-81078902D01*
X138463236Y-81085542D01*
X138463234Y-81085548D01*
X138460124Y-81093436D01*
X138459256Y-81101875D01*
X138459256Y-81101876D01*
X138458288Y-81111287D01*
X138454343Y-81132044D01*
X138451787Y-81141167D01*
X138451785Y-81141175D01*
X138449500Y-81149335D01*
X138449500Y-81157812D01*
X138449500Y-81190418D01*
X138448850Y-81203099D01*
X138445515Y-81235533D01*
X138445515Y-81235537D01*
X138444648Y-81243972D01*
X138446088Y-81252329D01*
X138446089Y-81252332D01*
X138447697Y-81261656D01*
X138449500Y-81282725D01*
X138449500Y-81435177D01*
X138440061Y-81482630D01*
X138418066Y-81535728D01*
X138418064Y-81535733D01*
X138414956Y-81543238D01*
X138413896Y-81551289D01*
X138413894Y-81551297D01*
X138407483Y-81600000D01*
X138394318Y-81700000D01*
X138395379Y-81708059D01*
X138413894Y-81848702D01*
X138413895Y-81848708D01*
X138414956Y-81856762D01*
X138475464Y-82002841D01*
X138571718Y-82128282D01*
X138697159Y-82224536D01*
X138843238Y-82285044D01*
X139000000Y-82305682D01*
X139156762Y-82285044D01*
X139157029Y-82287077D01*
X139199694Y-82285682D01*
X139250988Y-82308924D01*
X139286713Y-82352456D01*
X139299500Y-82407299D01*
X139299500Y-83540785D01*
X139299500Y-83540802D01*
X139299501Y-83544364D01*
X139299912Y-83547911D01*
X139299913Y-83547922D01*
X139301340Y-83560222D01*
X139302415Y-83569491D01*
X139347794Y-83672265D01*
X139427235Y-83751706D01*
X139481024Y-83775456D01*
X139521477Y-83793318D01*
X139521478Y-83793318D01*
X139530009Y-83797085D01*
X139555135Y-83800000D01*
X139944864Y-83799999D01*
X139969991Y-83797085D01*
X139972294Y-83796068D01*
X140033523Y-83796069D01*
X140039386Y-83797664D01*
X140051659Y-83799088D01*
X140058781Y-83799500D01*
X140083674Y-83799500D01*
X140109035Y-83792704D01*
X140137182Y-83775456D01*
X140194898Y-83770914D01*
X140248385Y-83793069D01*
X140285985Y-83837092D01*
X140299500Y-83893387D01*
X140299500Y-83971017D01*
X140286712Y-84025861D01*
X140250986Y-84069393D01*
X140199691Y-84092634D01*
X140143899Y-84090808D01*
X140137183Y-84088026D01*
X140129127Y-84086965D01*
X140129122Y-84086964D01*
X140008059Y-84071026D01*
X140000000Y-84069965D01*
X139991941Y-84071026D01*
X139870879Y-84086964D01*
X139870874Y-84086965D01*
X139862817Y-84088026D01*
X139855307Y-84091136D01*
X139855302Y-84091138D01*
X139742493Y-84137864D01*
X139742485Y-84137868D01*
X139734983Y-84140976D01*
X139728541Y-84145919D01*
X139728536Y-84145922D01*
X139631651Y-84220265D01*
X139631647Y-84220268D01*
X139625209Y-84225209D01*
X139620268Y-84231647D01*
X139620265Y-84231651D01*
X139545922Y-84328536D01*
X139545919Y-84328541D01*
X139540976Y-84334983D01*
X139537865Y-84342491D01*
X139533804Y-84349528D01*
X139532354Y-84348691D01*
X139496876Y-84393686D01*
X139433720Y-84416980D01*
X139367700Y-84403844D01*
X139318270Y-84358150D01*
X139299999Y-84293364D01*
X139299999Y-84055136D01*
X139297085Y-84030009D01*
X139251706Y-83927235D01*
X139172265Y-83847794D01*
X139148027Y-83837092D01*
X139078022Y-83806181D01*
X139078017Y-83806179D01*
X139069491Y-83802415D01*
X139060226Y-83801340D01*
X139047914Y-83799911D01*
X139047901Y-83799910D01*
X139044365Y-83799500D01*
X139040790Y-83799500D01*
X137483214Y-83799500D01*
X137483196Y-83799500D01*
X137479636Y-83799501D01*
X137476089Y-83799912D01*
X137476077Y-83799913D01*
X137463777Y-83801340D01*
X137463775Y-83801340D01*
X137454509Y-83802415D01*
X137445979Y-83806180D01*
X137445976Y-83806182D01*
X137362245Y-83843153D01*
X137362243Y-83843154D01*
X137351735Y-83847794D01*
X137343612Y-83855916D01*
X137343609Y-83855919D01*
X137280419Y-83919109D01*
X137280416Y-83919112D01*
X137272294Y-83927235D01*
X137267654Y-83937743D01*
X137267653Y-83937745D01*
X137230681Y-84021477D01*
X137230679Y-84021484D01*
X137226915Y-84030009D01*
X137225840Y-84039271D01*
X137225840Y-84039273D01*
X137224411Y-84051586D01*
X137224410Y-84051598D01*
X137224000Y-84055135D01*
X137224000Y-84058709D01*
X137224000Y-84058710D01*
X137224000Y-84175500D01*
X137207387Y-84237500D01*
X137162000Y-84282887D01*
X137100000Y-84299500D01*
X133248405Y-84299500D01*
X133196578Y-84288150D01*
X133154239Y-84256177D01*
X133129139Y-84209435D01*
X133115741Y-84162348D01*
X133077405Y-84027611D01*
X132982366Y-83836745D01*
X132853872Y-83666593D01*
X132747357Y-83569491D01*
X132700531Y-83526803D01*
X132700529Y-83526801D01*
X132696302Y-83522948D01*
X132691438Y-83519936D01*
X132691435Y-83519934D01*
X132519890Y-83413718D01*
X132519889Y-83413717D01*
X132515019Y-83410702D01*
X132509681Y-83408634D01*
X132509677Y-83408632D01*
X132321545Y-83335750D01*
X132321540Y-83335748D01*
X132316198Y-83333679D01*
X132310560Y-83332625D01*
X132112239Y-83295552D01*
X132112236Y-83295551D01*
X132106610Y-83294500D01*
X131893390Y-83294500D01*
X131887764Y-83295551D01*
X131887760Y-83295552D01*
X131689439Y-83332625D01*
X131689436Y-83332625D01*
X131683802Y-83333679D01*
X131678461Y-83335747D01*
X131678454Y-83335750D01*
X131490322Y-83408632D01*
X131490313Y-83408636D01*
X131484981Y-83410702D01*
X131480114Y-83413715D01*
X131480109Y-83413718D01*
X131308564Y-83519934D01*
X131308555Y-83519940D01*
X131303698Y-83522948D01*
X131299475Y-83526797D01*
X131299468Y-83526803D01*
X131150360Y-83662734D01*
X131150354Y-83662739D01*
X131146128Y-83666593D01*
X131142681Y-83671156D01*
X131142675Y-83671164D01*
X131021086Y-83832173D01*
X131021083Y-83832177D01*
X131017634Y-83836745D01*
X131015082Y-83841870D01*
X131015079Y-83841875D01*
X130925649Y-84021477D01*
X130922595Y-84027611D01*
X130921027Y-84033119D01*
X130921024Y-84033129D01*
X130865814Y-84227168D01*
X130865811Y-84227179D01*
X130864244Y-84232690D01*
X130863714Y-84238400D01*
X130863714Y-84238405D01*
X130849326Y-84393686D01*
X130844571Y-84445000D01*
X130845100Y-84450709D01*
X130862654Y-84640158D01*
X130864244Y-84657310D01*
X130865812Y-84662821D01*
X130865814Y-84662831D01*
X130921024Y-84856870D01*
X130921026Y-84856876D01*
X130922595Y-84862389D01*
X131017634Y-85053255D01*
X131146128Y-85223407D01*
X131150360Y-85227265D01*
X131278006Y-85343631D01*
X131303698Y-85367052D01*
X131484981Y-85479298D01*
X131683802Y-85556321D01*
X131875731Y-85592199D01*
X131880610Y-85593111D01*
X131941363Y-85623363D01*
X131977091Y-85681066D01*
X131977091Y-85748934D01*
X131941363Y-85806637D01*
X131880610Y-85836889D01*
X131689439Y-85872625D01*
X131689436Y-85872625D01*
X131683802Y-85873679D01*
X131678461Y-85875747D01*
X131678454Y-85875750D01*
X131490322Y-85948632D01*
X131490313Y-85948636D01*
X131484981Y-85950702D01*
X131480114Y-85953715D01*
X131480109Y-85953718D01*
X131308564Y-86059934D01*
X131308555Y-86059940D01*
X131303698Y-86062948D01*
X131299475Y-86066797D01*
X131299468Y-86066803D01*
X131150360Y-86202734D01*
X131150354Y-86202739D01*
X131146128Y-86206593D01*
X131142681Y-86211156D01*
X131142675Y-86211164D01*
X131021086Y-86372173D01*
X131021083Y-86372177D01*
X131017634Y-86376745D01*
X131015082Y-86381870D01*
X131015079Y-86381875D01*
X130927025Y-86558714D01*
X130922595Y-86567611D01*
X130921027Y-86573119D01*
X130921024Y-86573129D01*
X130865814Y-86767168D01*
X130865811Y-86767179D01*
X130864244Y-86772690D01*
X130863714Y-86778400D01*
X130863714Y-86778405D01*
X130860316Y-86815079D01*
X130844571Y-86985000D01*
X130500000Y-86985000D01*
X130500000Y-82042557D01*
X131316426Y-82042557D01*
X131324496Y-82053758D01*
X131488929Y-82182584D01*
X131495081Y-82186831D01*
X131763026Y-82348810D01*
X131769646Y-82352284D01*
X132055168Y-82480786D01*
X132062156Y-82483436D01*
X132361077Y-82576584D01*
X132368333Y-82578373D01*
X132676309Y-82634811D01*
X132683732Y-82635713D01*
X132996264Y-82654618D01*
X133003736Y-82654618D01*
X133316267Y-82635713D01*
X133323690Y-82634811D01*
X133631666Y-82578373D01*
X133638922Y-82576584D01*
X133937843Y-82483436D01*
X133944831Y-82480786D01*
X134230353Y-82352284D01*
X134236973Y-82348810D01*
X134504913Y-82186834D01*
X134511076Y-82182579D01*
X134675503Y-82053758D01*
X134683572Y-82042557D01*
X134676911Y-82030464D01*
X133011542Y-80365095D01*
X133000000Y-80358431D01*
X132988457Y-80365095D01*
X131323087Y-82030464D01*
X131316426Y-82042557D01*
X130500000Y-82042557D01*
X130500000Y-81431685D01*
X130516364Y-81370118D01*
X130561137Y-81324801D01*
X130622502Y-81307694D01*
X130684262Y-81323313D01*
X130730117Y-81367535D01*
X130813168Y-81504918D01*
X130817415Y-81511070D01*
X130946240Y-81675502D01*
X130957441Y-81683572D01*
X130969534Y-81676911D01*
X132634904Y-80011542D01*
X132641568Y-80000000D01*
X133358431Y-80000000D01*
X133365095Y-80011542D01*
X135030464Y-81676911D01*
X135042557Y-81683572D01*
X135053758Y-81675503D01*
X135182579Y-81511076D01*
X135186834Y-81504913D01*
X135348810Y-81236973D01*
X135352284Y-81230353D01*
X135480786Y-80944831D01*
X135483436Y-80937843D01*
X135576584Y-80638922D01*
X135578373Y-80631666D01*
X135634811Y-80323690D01*
X135635713Y-80316267D01*
X135654618Y-80003736D01*
X135654618Y-79996264D01*
X135635713Y-79683732D01*
X135634811Y-79676309D01*
X135578373Y-79368333D01*
X135576584Y-79361077D01*
X135483436Y-79062156D01*
X135480786Y-79055168D01*
X135352284Y-78769646D01*
X135348810Y-78763026D01*
X135186831Y-78495081D01*
X135182584Y-78488929D01*
X135053758Y-78324496D01*
X135042557Y-78316426D01*
X135030464Y-78323087D01*
X133365095Y-79988457D01*
X133358431Y-80000000D01*
X132641568Y-80000000D01*
X132634904Y-79988457D01*
X130969534Y-78323087D01*
X130957441Y-78316426D01*
X130946240Y-78324496D01*
X130817415Y-78488929D01*
X130813168Y-78495081D01*
X130730117Y-78632465D01*
X130684262Y-78676687D01*
X130622502Y-78692306D01*
X130561137Y-78675199D01*
X130516364Y-78629882D01*
X130500000Y-78568315D01*
X130500000Y-77957441D01*
X131316426Y-77957441D01*
X131323087Y-77969534D01*
X132988457Y-79634904D01*
X133000000Y-79641568D01*
X133011542Y-79634904D01*
X134676911Y-77969534D01*
X134683572Y-77957441D01*
X134675502Y-77946240D01*
X134511070Y-77817415D01*
X134504918Y-77813168D01*
X134236973Y-77651189D01*
X134230353Y-77647715D01*
X133944831Y-77519213D01*
X133937843Y-77516563D01*
X133638922Y-77423415D01*
X133631666Y-77421626D01*
X133323690Y-77365188D01*
X133316267Y-77364286D01*
X133003736Y-77345382D01*
X132996264Y-77345382D01*
X132683732Y-77364286D01*
X132676309Y-77365188D01*
X132368333Y-77421626D01*
X132361077Y-77423415D01*
X132062156Y-77516563D01*
X132055168Y-77519213D01*
X131769646Y-77647715D01*
X131763026Y-77651189D01*
X131495081Y-77813168D01*
X131488929Y-77817415D01*
X131324496Y-77946240D01*
X131316426Y-77957441D01*
X130500000Y-77957441D01*
X130500000Y-76181770D01*
X134545000Y-76181770D01*
X134547230Y-76191060D01*
X134555377Y-76186068D01*
X135229904Y-75511542D01*
X135236568Y-75500000D01*
X135229904Y-75488457D01*
X134555377Y-74813930D01*
X134547230Y-74808938D01*
X134545000Y-74818229D01*
X134545000Y-76181770D01*
X130500000Y-76181770D01*
X130500000Y-57431685D01*
X130516364Y-57370118D01*
X130561137Y-57324801D01*
X130622502Y-57307694D01*
X130684262Y-57323313D01*
X130730117Y-57367535D01*
X130813168Y-57504918D01*
X130817415Y-57511070D01*
X130946240Y-57675502D01*
X130957441Y-57683572D01*
X130969534Y-57676911D01*
X133000000Y-55646447D01*
X134676911Y-53969534D01*
X134683572Y-53957441D01*
X134675502Y-53946240D01*
X134511070Y-53817415D01*
X134504918Y-53813168D01*
X134236973Y-53651189D01*
X134230353Y-53647715D01*
X133944831Y-53519213D01*
X133937843Y-53516563D01*
X133638922Y-53423415D01*
X133631666Y-53421626D01*
X133323690Y-53365188D01*
X133316267Y-53364286D01*
X133003736Y-53345382D01*
X132996259Y-53345382D01*
X132958982Y-53347636D01*
X132900605Y-53336937D01*
X132853886Y-53300334D01*
X132829529Y-53246212D01*
X132833113Y-53186971D01*
X132863813Y-53136186D01*
X134910513Y-51089486D01*
X134966914Y-51057179D01*
X135031912Y-51057842D01*
G37*
G04 #@! TD.AperFunction*
G04 #@! TD*
M02*
