G04 #@! TF.GenerationSoftware,KiCad,Pcbnew,(7.0.0)*
G04 #@! TF.CreationDate,2023-03-12T21:45:25+01:00*
G04 #@! TF.ProjectId,tracker,74726163-6b65-4722-9e6b-696361645f70,rev?*
G04 #@! TF.SameCoordinates,Original*
G04 #@! TF.FileFunction,Soldermask,Bot*
G04 #@! TF.FilePolarity,Negative*
%FSLAX46Y46*%
G04 Gerber Fmt 4.6, Leading zero omitted, Abs format (unit mm)*
G04 Created by KiCad (PCBNEW (7.0.0)) date 2023-03-12 21:45:25*
%MOMM*%
%LPD*%
G01*
G04 APERTURE LIST*
G04 Aperture macros list*
%AMRoundRect*
0 Rectangle with rounded corners*
0 $1 Rounding radius*
0 $2 $3 $4 $5 $6 $7 $8 $9 X,Y pos of 4 corners*
0 Add a 4 corners polygon primitive as box body*
4,1,4,$2,$3,$4,$5,$6,$7,$8,$9,$2,$3,0*
0 Add four circle primitives for the rounded corners*
1,1,$1+$1,$2,$3*
1,1,$1+$1,$4,$5*
1,1,$1+$1,$6,$7*
1,1,$1+$1,$8,$9*
0 Add four rect primitives between the rounded corners*
20,1,$1+$1,$2,$3,$4,$5,0*
20,1,$1+$1,$4,$5,$6,$7,0*
20,1,$1+$1,$6,$7,$8,$9,0*
20,1,$1+$1,$8,$9,$2,$3,0*%
G04 Aperture macros list end*
%ADD10RoundRect,0.200000X-0.200000X-0.275000X0.200000X-0.275000X0.200000X0.275000X-0.200000X0.275000X0*%
%ADD11R,1.380000X0.450000*%
%ADD12R,1.900000X1.800000*%
%ADD13R,1.300000X1.650000*%
%ADD14R,1.550000X1.425000*%
%ADD15R,1.900000X1.000000*%
%ADD16R,1.400000X0.600000*%
%ADD17RoundRect,0.250000X-0.650000X0.325000X-0.650000X-0.325000X0.650000X-0.325000X0.650000X0.325000X0*%
%ADD18RoundRect,0.200000X-0.275000X0.200000X-0.275000X-0.200000X0.275000X-0.200000X0.275000X0.200000X0*%
%ADD19RoundRect,0.750000X0.750000X-2.250000X0.750000X2.250000X-0.750000X2.250000X-0.750000X-2.250000X0*%
%ADD20C,3.100000*%
%ADD21C,4.700000*%
%ADD22R,1.700000X1.700000*%
%ADD23O,1.700000X1.700000*%
%ADD24R,1.500000X5.080000*%
%ADD25RoundRect,0.200000X0.200000X0.275000X-0.200000X0.275000X-0.200000X-0.275000X0.200000X-0.275000X0*%
%ADD26R,0.900000X1.800000*%
%ADD27R,3.200000X1.800000*%
%ADD28RoundRect,0.250000X0.325000X0.650000X-0.325000X0.650000X-0.325000X-0.650000X0.325000X-0.650000X0*%
%ADD29RoundRect,0.250000X-0.325000X-0.650000X0.325000X-0.650000X0.325000X0.650000X-0.325000X0.650000X0*%
G04 APERTURE END LIST*
D10*
G04 #@! TO.C,R5*
X137100000Y-105700000D03*
X138750000Y-105700000D03*
G04 #@! TD*
D11*
G04 #@! TO.C,J3*
X134159999Y-109399999D03*
X134159999Y-108749999D03*
X134159999Y-108099999D03*
X134159999Y-107449999D03*
X134159999Y-106799999D03*
D12*
X131499999Y-109249999D03*
D13*
X131499999Y-104724999D03*
X131499999Y-111474999D03*
D14*
X134074999Y-110587499D03*
D15*
X131499999Y-106549999D03*
D14*
X134074999Y-105612499D03*
G04 #@! TD*
D16*
G04 #@! TO.C,IC1*
X141249999Y-107349999D03*
X141249999Y-108299999D03*
X141249999Y-109249999D03*
X138749999Y-109249999D03*
X138749999Y-107349999D03*
G04 #@! TD*
D17*
G04 #@! TO.C,C8*
X136500000Y-109400000D03*
X136500000Y-112350000D03*
G04 #@! TD*
G04 #@! TO.C,C7*
X143600000Y-109400000D03*
X143600000Y-112350000D03*
G04 #@! TD*
D18*
G04 #@! TO.C,R4*
X145500000Y-104425000D03*
X145500000Y-102775000D03*
G04 #@! TD*
G04 #@! TO.C,R3*
X146800000Y-106125000D03*
X146800000Y-104475000D03*
G04 #@! TD*
D19*
G04 #@! TO.C,J2*
X142200000Y-101700000D03*
X137200000Y-101700000D03*
G04 #@! TD*
D20*
G04 #@! TO.C,H1*
X133000000Y-56000000D03*
D21*
X133000000Y-56000000D03*
G04 #@! TD*
D20*
G04 #@! TO.C,H2*
X152000000Y-80000000D03*
D21*
X152000000Y-80000000D03*
G04 #@! TD*
D22*
G04 #@! TO.C,J1*
X131999999Y-89524999D03*
D23*
X131999999Y-86984999D03*
X131999999Y-84444999D03*
G04 #@! TD*
D24*
G04 #@! TO.C,AE1*
X138249999Y-47799999D03*
X146749999Y-47799999D03*
G04 #@! TD*
D20*
G04 #@! TO.C,H3*
X133000000Y-80000000D03*
D21*
X133000000Y-80000000D03*
G04 #@! TD*
D25*
G04 #@! TO.C,JP6*
X142815000Y-66000000D03*
X141165000Y-66000000D03*
G04 #@! TD*
G04 #@! TO.C,JP13*
X139325000Y-74000000D03*
X137675000Y-74000000D03*
G04 #@! TD*
D26*
G04 #@! TO.C,PS1*
X153399999Y-110099999D03*
X151099999Y-110099999D03*
X148799999Y-110099999D03*
D27*
X151099999Y-104099999D03*
G04 #@! TD*
D25*
G04 #@! TO.C,JP7*
X139335000Y-68000000D03*
X137685000Y-68000000D03*
G04 #@! TD*
G04 #@! TO.C,JP15*
X139345000Y-76000000D03*
X137695000Y-76000000D03*
G04 #@! TD*
D28*
G04 #@! TO.C,C6*
X148775000Y-112500000D03*
X145825000Y-112500000D03*
G04 #@! TD*
D25*
G04 #@! TO.C,JP14*
X142815000Y-74000000D03*
X141165000Y-74000000D03*
G04 #@! TD*
G04 #@! TO.C,JP12*
X142815000Y-72000000D03*
X141165000Y-72000000D03*
G04 #@! TD*
G04 #@! TO.C,JP3*
X139325000Y-64000000D03*
X137675000Y-64000000D03*
G04 #@! TD*
G04 #@! TO.C,JP5*
X139335000Y-66000000D03*
X137685000Y-66000000D03*
G04 #@! TD*
G04 #@! TO.C,JP8*
X142825000Y-68000000D03*
X141175000Y-68000000D03*
G04 #@! TD*
G04 #@! TO.C,JP11*
X139345000Y-72000000D03*
X137695000Y-72000000D03*
G04 #@! TD*
G04 #@! TO.C,JP9*
X139335000Y-70000000D03*
X137685000Y-70000000D03*
G04 #@! TD*
D29*
G04 #@! TO.C,C5*
X151125000Y-112400000D03*
X154075000Y-112400000D03*
G04 #@! TD*
D25*
G04 #@! TO.C,JP1*
X139335000Y-62000000D03*
X137685000Y-62000000D03*
G04 #@! TD*
G04 #@! TO.C,JP10*
X142815000Y-70000000D03*
X141165000Y-70000000D03*
G04 #@! TD*
G04 #@! TO.C,JP4*
X142825000Y-64000000D03*
X141175000Y-64000000D03*
G04 #@! TD*
G04 #@! TO.C,JP2*
X142815000Y-62000000D03*
X141165000Y-62000000D03*
G04 #@! TD*
G04 #@! TO.C,JP16*
X142825000Y-76000000D03*
X141175000Y-76000000D03*
G04 #@! TD*
M02*
