G04 #@! TF.GenerationSoftware,KiCad,Pcbnew,(7.0.0)*
G04 #@! TF.CreationDate,2023-03-12T21:45:25+01:00*
G04 #@! TF.ProjectId,tracker,74726163-6b65-4722-9e6b-696361645f70,rev?*
G04 #@! TF.SameCoordinates,Original*
G04 #@! TF.FileFunction,Legend,Bot*
G04 #@! TF.FilePolarity,Positive*
%FSLAX46Y46*%
G04 Gerber Fmt 4.6, Leading zero omitted, Abs format (unit mm)*
G04 Created by KiCad (PCBNEW (7.0.0)) date 2023-03-12 21:45:25*
%MOMM*%
%LPD*%
G01*
G04 APERTURE LIST*
%ADD10C,0.150000*%
%ADD11C,0.200000*%
%ADD12C,0.120000*%
G04 APERTURE END LIST*
D10*
X144000000Y-61400000D02*
X144000000Y-76800000D01*
X137938095Y-97230000D02*
X138033333Y-97182380D01*
X138033333Y-97182380D02*
X138176190Y-97182380D01*
X138176190Y-97182380D02*
X138319047Y-97230000D01*
X138319047Y-97230000D02*
X138414285Y-97325238D01*
X138414285Y-97325238D02*
X138461904Y-97420476D01*
X138461904Y-97420476D02*
X138509523Y-97610952D01*
X138509523Y-97610952D02*
X138509523Y-97753809D01*
X138509523Y-97753809D02*
X138461904Y-97944285D01*
X138461904Y-97944285D02*
X138414285Y-98039523D01*
X138414285Y-98039523D02*
X138319047Y-98134761D01*
X138319047Y-98134761D02*
X138176190Y-98182380D01*
X138176190Y-98182380D02*
X138080952Y-98182380D01*
X138080952Y-98182380D02*
X137938095Y-98134761D01*
X137938095Y-98134761D02*
X137890476Y-98087142D01*
X137890476Y-98087142D02*
X137890476Y-97753809D01*
X137890476Y-97753809D02*
X138080952Y-97753809D01*
X137461904Y-98182380D02*
X137461904Y-97182380D01*
X137461904Y-97182380D02*
X136890476Y-98182380D01*
X136890476Y-98182380D02*
X136890476Y-97182380D01*
X136414285Y-98182380D02*
X136414285Y-97182380D01*
X136414285Y-97182380D02*
X136176190Y-97182380D01*
X136176190Y-97182380D02*
X136033333Y-97230000D01*
X136033333Y-97230000D02*
X135938095Y-97325238D01*
X135938095Y-97325238D02*
X135890476Y-97420476D01*
X135890476Y-97420476D02*
X135842857Y-97610952D01*
X135842857Y-97610952D02*
X135842857Y-97753809D01*
X135842857Y-97753809D02*
X135890476Y-97944285D01*
X135890476Y-97944285D02*
X135938095Y-98039523D01*
X135938095Y-98039523D02*
X136033333Y-98134761D01*
X136033333Y-98134761D02*
X136176190Y-98182380D01*
X136176190Y-98182380D02*
X136414285Y-98182380D01*
X143804761Y-97282380D02*
X143471428Y-98282380D01*
X143471428Y-98282380D02*
X143138095Y-97282380D01*
X142471428Y-97758571D02*
X142328571Y-97806190D01*
X142328571Y-97806190D02*
X142280952Y-97853809D01*
X142280952Y-97853809D02*
X142233333Y-97949047D01*
X142233333Y-97949047D02*
X142233333Y-98091904D01*
X142233333Y-98091904D02*
X142280952Y-98187142D01*
X142280952Y-98187142D02*
X142328571Y-98234761D01*
X142328571Y-98234761D02*
X142423809Y-98282380D01*
X142423809Y-98282380D02*
X142804761Y-98282380D01*
X142804761Y-98282380D02*
X142804761Y-97282380D01*
X142804761Y-97282380D02*
X142471428Y-97282380D01*
X142471428Y-97282380D02*
X142376190Y-97330000D01*
X142376190Y-97330000D02*
X142328571Y-97377619D01*
X142328571Y-97377619D02*
X142280952Y-97472857D01*
X142280952Y-97472857D02*
X142280952Y-97568095D01*
X142280952Y-97568095D02*
X142328571Y-97663333D01*
X142328571Y-97663333D02*
X142376190Y-97710952D01*
X142376190Y-97710952D02*
X142471428Y-97758571D01*
X142471428Y-97758571D02*
X142804761Y-97758571D01*
X141852380Y-97996666D02*
X141376190Y-97996666D01*
X141947618Y-98282380D02*
X141614285Y-97282380D01*
X141614285Y-97282380D02*
X141280952Y-98282380D01*
X141090475Y-97282380D02*
X140519047Y-97282380D01*
X140804761Y-98282380D02*
X140804761Y-97282380D01*
X147000000Y-63000000D02*
X153500000Y-63000000D01*
X153500000Y-63000000D02*
X153500000Y-77000000D01*
X153500000Y-77000000D02*
X147000000Y-77000000D01*
X147000000Y-77000000D02*
X147000000Y-63000000D01*
G36*
X147000000Y-63000000D02*
G01*
X153500000Y-63000000D01*
X153500000Y-77000000D01*
X147000000Y-77000000D01*
X147000000Y-63000000D01*
G37*
X136559523Y-63627619D02*
X136511904Y-63580000D01*
X136511904Y-63580000D02*
X136416666Y-63532380D01*
X136416666Y-63532380D02*
X136178571Y-63532380D01*
X136178571Y-63532380D02*
X136083333Y-63580000D01*
X136083333Y-63580000D02*
X136035714Y-63627619D01*
X136035714Y-63627619D02*
X135988095Y-63722857D01*
X135988095Y-63722857D02*
X135988095Y-63818095D01*
X135988095Y-63818095D02*
X136035714Y-63960952D01*
X136035714Y-63960952D02*
X136607142Y-64532380D01*
X136607142Y-64532380D02*
X135988095Y-64532380D01*
X135988095Y-76532380D02*
X136559523Y-76532380D01*
X136273809Y-76532380D02*
X136273809Y-75532380D01*
X136273809Y-75532380D02*
X136369047Y-75675238D01*
X136369047Y-75675238D02*
X136464285Y-75770476D01*
X136464285Y-75770476D02*
X136559523Y-75818095D01*
X135607142Y-75627619D02*
X135559523Y-75580000D01*
X135559523Y-75580000D02*
X135464285Y-75532380D01*
X135464285Y-75532380D02*
X135226190Y-75532380D01*
X135226190Y-75532380D02*
X135130952Y-75580000D01*
X135130952Y-75580000D02*
X135083333Y-75627619D01*
X135083333Y-75627619D02*
X135035714Y-75722857D01*
X135035714Y-75722857D02*
X135035714Y-75818095D01*
X135035714Y-75818095D02*
X135083333Y-75960952D01*
X135083333Y-75960952D02*
X135654761Y-76532380D01*
X135654761Y-76532380D02*
X135035714Y-76532380D01*
X134464285Y-75960952D02*
X134559523Y-75913333D01*
X134559523Y-75913333D02*
X134607142Y-75865714D01*
X134607142Y-75865714D02*
X134654761Y-75770476D01*
X134654761Y-75770476D02*
X134654761Y-75722857D01*
X134654761Y-75722857D02*
X134607142Y-75627619D01*
X134607142Y-75627619D02*
X134559523Y-75580000D01*
X134559523Y-75580000D02*
X134464285Y-75532380D01*
X134464285Y-75532380D02*
X134273809Y-75532380D01*
X134273809Y-75532380D02*
X134178571Y-75580000D01*
X134178571Y-75580000D02*
X134130952Y-75627619D01*
X134130952Y-75627619D02*
X134083333Y-75722857D01*
X134083333Y-75722857D02*
X134083333Y-75770476D01*
X134083333Y-75770476D02*
X134130952Y-75865714D01*
X134130952Y-75865714D02*
X134178571Y-75913333D01*
X134178571Y-75913333D02*
X134273809Y-75960952D01*
X134273809Y-75960952D02*
X134464285Y-75960952D01*
X134464285Y-75960952D02*
X134559523Y-76008571D01*
X134559523Y-76008571D02*
X134607142Y-76056190D01*
X134607142Y-76056190D02*
X134654761Y-76151428D01*
X134654761Y-76151428D02*
X134654761Y-76341904D01*
X134654761Y-76341904D02*
X134607142Y-76437142D01*
X134607142Y-76437142D02*
X134559523Y-76484761D01*
X134559523Y-76484761D02*
X134464285Y-76532380D01*
X134464285Y-76532380D02*
X134273809Y-76532380D01*
X134273809Y-76532380D02*
X134178571Y-76484761D01*
X134178571Y-76484761D02*
X134130952Y-76437142D01*
X134130952Y-76437142D02*
X134083333Y-76341904D01*
X134083333Y-76341904D02*
X134083333Y-76151428D01*
X134083333Y-76151428D02*
X134130952Y-76056190D01*
X134130952Y-76056190D02*
X134178571Y-76008571D01*
X134178571Y-76008571D02*
X134273809Y-75960952D01*
X136607142Y-71532380D02*
X135988095Y-71532380D01*
X135988095Y-71532380D02*
X136321428Y-71913333D01*
X136321428Y-71913333D02*
X136178571Y-71913333D01*
X136178571Y-71913333D02*
X136083333Y-71960952D01*
X136083333Y-71960952D02*
X136035714Y-72008571D01*
X136035714Y-72008571D02*
X135988095Y-72103809D01*
X135988095Y-72103809D02*
X135988095Y-72341904D01*
X135988095Y-72341904D02*
X136035714Y-72437142D01*
X136035714Y-72437142D02*
X136083333Y-72484761D01*
X136083333Y-72484761D02*
X136178571Y-72532380D01*
X136178571Y-72532380D02*
X136464285Y-72532380D01*
X136464285Y-72532380D02*
X136559523Y-72484761D01*
X136559523Y-72484761D02*
X136607142Y-72437142D01*
X135607142Y-71627619D02*
X135559523Y-71580000D01*
X135559523Y-71580000D02*
X135464285Y-71532380D01*
X135464285Y-71532380D02*
X135226190Y-71532380D01*
X135226190Y-71532380D02*
X135130952Y-71580000D01*
X135130952Y-71580000D02*
X135083333Y-71627619D01*
X135083333Y-71627619D02*
X135035714Y-71722857D01*
X135035714Y-71722857D02*
X135035714Y-71818095D01*
X135035714Y-71818095D02*
X135083333Y-71960952D01*
X135083333Y-71960952D02*
X135654761Y-72532380D01*
X135654761Y-72532380D02*
X135035714Y-72532380D01*
X136083333Y-65865714D02*
X136083333Y-66532380D01*
X136321428Y-65484761D02*
X136559523Y-66199047D01*
X136559523Y-66199047D02*
X135940476Y-66199047D01*
D11*
X153717619Y-63488095D02*
X154717619Y-63488095D01*
X154717619Y-63488095D02*
X153717619Y-64059523D01*
X153717619Y-64059523D02*
X154717619Y-64059523D01*
X154384285Y-64964285D02*
X153717619Y-64964285D01*
X154384285Y-64535714D02*
X153860476Y-64535714D01*
X153860476Y-64535714D02*
X153765238Y-64583333D01*
X153765238Y-64583333D02*
X153717619Y-64678571D01*
X153717619Y-64678571D02*
X153717619Y-64821428D01*
X153717619Y-64821428D02*
X153765238Y-64916666D01*
X153765238Y-64916666D02*
X153812857Y-64964285D01*
X153717619Y-65440476D02*
X154384285Y-65440476D01*
X154289047Y-65440476D02*
X154336666Y-65488095D01*
X154336666Y-65488095D02*
X154384285Y-65583333D01*
X154384285Y-65583333D02*
X154384285Y-65726190D01*
X154384285Y-65726190D02*
X154336666Y-65821428D01*
X154336666Y-65821428D02*
X154241428Y-65869047D01*
X154241428Y-65869047D02*
X153717619Y-65869047D01*
X154241428Y-65869047D02*
X154336666Y-65916666D01*
X154336666Y-65916666D02*
X154384285Y-66011904D01*
X154384285Y-66011904D02*
X154384285Y-66154761D01*
X154384285Y-66154761D02*
X154336666Y-66250000D01*
X154336666Y-66250000D02*
X154241428Y-66297619D01*
X154241428Y-66297619D02*
X153717619Y-66297619D01*
X153765238Y-67154761D02*
X153717619Y-67059523D01*
X153717619Y-67059523D02*
X153717619Y-66869047D01*
X153717619Y-66869047D02*
X153765238Y-66773809D01*
X153765238Y-66773809D02*
X153860476Y-66726190D01*
X153860476Y-66726190D02*
X154241428Y-66726190D01*
X154241428Y-66726190D02*
X154336666Y-66773809D01*
X154336666Y-66773809D02*
X154384285Y-66869047D01*
X154384285Y-66869047D02*
X154384285Y-67059523D01*
X154384285Y-67059523D02*
X154336666Y-67154761D01*
X154336666Y-67154761D02*
X154241428Y-67202380D01*
X154241428Y-67202380D02*
X154146190Y-67202380D01*
X154146190Y-67202380D02*
X154050952Y-66726190D01*
X153717619Y-67630952D02*
X154384285Y-67630952D01*
X154193809Y-67630952D02*
X154289047Y-67678571D01*
X154289047Y-67678571D02*
X154336666Y-67726190D01*
X154336666Y-67726190D02*
X154384285Y-67821428D01*
X154384285Y-67821428D02*
X154384285Y-67916666D01*
X153717619Y-68392857D02*
X153765238Y-68297619D01*
X153765238Y-68297619D02*
X153812857Y-68250000D01*
X153812857Y-68250000D02*
X153908095Y-68202381D01*
X153908095Y-68202381D02*
X154193809Y-68202381D01*
X154193809Y-68202381D02*
X154289047Y-68250000D01*
X154289047Y-68250000D02*
X154336666Y-68297619D01*
X154336666Y-68297619D02*
X154384285Y-68392857D01*
X154384285Y-68392857D02*
X154384285Y-68535714D01*
X154384285Y-68535714D02*
X154336666Y-68630952D01*
X154336666Y-68630952D02*
X154289047Y-68678571D01*
X154289047Y-68678571D02*
X154193809Y-68726190D01*
X154193809Y-68726190D02*
X153908095Y-68726190D01*
X153908095Y-68726190D02*
X153812857Y-68678571D01*
X153812857Y-68678571D02*
X153765238Y-68630952D01*
X153765238Y-68630952D02*
X153717619Y-68535714D01*
X153717619Y-68535714D02*
X153717619Y-68392857D01*
D10*
X136083333Y-73532380D02*
X136273809Y-73532380D01*
X136273809Y-73532380D02*
X136369047Y-73580000D01*
X136369047Y-73580000D02*
X136416666Y-73627619D01*
X136416666Y-73627619D02*
X136511904Y-73770476D01*
X136511904Y-73770476D02*
X136559523Y-73960952D01*
X136559523Y-73960952D02*
X136559523Y-74341904D01*
X136559523Y-74341904D02*
X136511904Y-74437142D01*
X136511904Y-74437142D02*
X136464285Y-74484761D01*
X136464285Y-74484761D02*
X136369047Y-74532380D01*
X136369047Y-74532380D02*
X136178571Y-74532380D01*
X136178571Y-74532380D02*
X136083333Y-74484761D01*
X136083333Y-74484761D02*
X136035714Y-74437142D01*
X136035714Y-74437142D02*
X135988095Y-74341904D01*
X135988095Y-74341904D02*
X135988095Y-74103809D01*
X135988095Y-74103809D02*
X136035714Y-74008571D01*
X136035714Y-74008571D02*
X136083333Y-73960952D01*
X136083333Y-73960952D02*
X136178571Y-73913333D01*
X136178571Y-73913333D02*
X136369047Y-73913333D01*
X136369047Y-73913333D02*
X136464285Y-73960952D01*
X136464285Y-73960952D02*
X136511904Y-74008571D01*
X136511904Y-74008571D02*
X136559523Y-74103809D01*
X135130952Y-73865714D02*
X135130952Y-74532380D01*
X135369047Y-73484761D02*
X135607142Y-74199047D01*
X135607142Y-74199047D02*
X134988095Y-74199047D01*
X135988095Y-70532380D02*
X136559523Y-70532380D01*
X136273809Y-70532380D02*
X136273809Y-69532380D01*
X136273809Y-69532380D02*
X136369047Y-69675238D01*
X136369047Y-69675238D02*
X136464285Y-69770476D01*
X136464285Y-69770476D02*
X136559523Y-69818095D01*
X135130952Y-69532380D02*
X135321428Y-69532380D01*
X135321428Y-69532380D02*
X135416666Y-69580000D01*
X135416666Y-69580000D02*
X135464285Y-69627619D01*
X135464285Y-69627619D02*
X135559523Y-69770476D01*
X135559523Y-69770476D02*
X135607142Y-69960952D01*
X135607142Y-69960952D02*
X135607142Y-70341904D01*
X135607142Y-70341904D02*
X135559523Y-70437142D01*
X135559523Y-70437142D02*
X135511904Y-70484761D01*
X135511904Y-70484761D02*
X135416666Y-70532380D01*
X135416666Y-70532380D02*
X135226190Y-70532380D01*
X135226190Y-70532380D02*
X135130952Y-70484761D01*
X135130952Y-70484761D02*
X135083333Y-70437142D01*
X135083333Y-70437142D02*
X135035714Y-70341904D01*
X135035714Y-70341904D02*
X135035714Y-70103809D01*
X135035714Y-70103809D02*
X135083333Y-70008571D01*
X135083333Y-70008571D02*
X135130952Y-69960952D01*
X135130952Y-69960952D02*
X135226190Y-69913333D01*
X135226190Y-69913333D02*
X135416666Y-69913333D01*
X135416666Y-69913333D02*
X135511904Y-69960952D01*
X135511904Y-69960952D02*
X135559523Y-70008571D01*
X135559523Y-70008571D02*
X135607142Y-70103809D01*
X135988095Y-62532380D02*
X136559523Y-62532380D01*
X136273809Y-62532380D02*
X136273809Y-61532380D01*
X136273809Y-61532380D02*
X136369047Y-61675238D01*
X136369047Y-61675238D02*
X136464285Y-61770476D01*
X136464285Y-61770476D02*
X136559523Y-61818095D01*
X136369047Y-67960952D02*
X136464285Y-67913333D01*
X136464285Y-67913333D02*
X136511904Y-67865714D01*
X136511904Y-67865714D02*
X136559523Y-67770476D01*
X136559523Y-67770476D02*
X136559523Y-67722857D01*
X136559523Y-67722857D02*
X136511904Y-67627619D01*
X136511904Y-67627619D02*
X136464285Y-67580000D01*
X136464285Y-67580000D02*
X136369047Y-67532380D01*
X136369047Y-67532380D02*
X136178571Y-67532380D01*
X136178571Y-67532380D02*
X136083333Y-67580000D01*
X136083333Y-67580000D02*
X136035714Y-67627619D01*
X136035714Y-67627619D02*
X135988095Y-67722857D01*
X135988095Y-67722857D02*
X135988095Y-67770476D01*
X135988095Y-67770476D02*
X136035714Y-67865714D01*
X136035714Y-67865714D02*
X136083333Y-67913333D01*
X136083333Y-67913333D02*
X136178571Y-67960952D01*
X136178571Y-67960952D02*
X136369047Y-67960952D01*
X136369047Y-67960952D02*
X136464285Y-68008571D01*
X136464285Y-68008571D02*
X136511904Y-68056190D01*
X136511904Y-68056190D02*
X136559523Y-68151428D01*
X136559523Y-68151428D02*
X136559523Y-68341904D01*
X136559523Y-68341904D02*
X136511904Y-68437142D01*
X136511904Y-68437142D02*
X136464285Y-68484761D01*
X136464285Y-68484761D02*
X136369047Y-68532380D01*
X136369047Y-68532380D02*
X136178571Y-68532380D01*
X136178571Y-68532380D02*
X136083333Y-68484761D01*
X136083333Y-68484761D02*
X136035714Y-68437142D01*
X136035714Y-68437142D02*
X135988095Y-68341904D01*
X135988095Y-68341904D02*
X135988095Y-68151428D01*
X135988095Y-68151428D02*
X136035714Y-68056190D01*
X136035714Y-68056190D02*
X136083333Y-68008571D01*
X136083333Y-68008571D02*
X136178571Y-67960952D01*
G04 #@! TO.C,R5*
X136666666Y-107667380D02*
X136999999Y-107191190D01*
X137238094Y-107667380D02*
X137238094Y-106667380D01*
X137238094Y-106667380D02*
X136857142Y-106667380D01*
X136857142Y-106667380D02*
X136761904Y-106715000D01*
X136761904Y-106715000D02*
X136714285Y-106762619D01*
X136714285Y-106762619D02*
X136666666Y-106857857D01*
X136666666Y-106857857D02*
X136666666Y-107000714D01*
X136666666Y-107000714D02*
X136714285Y-107095952D01*
X136714285Y-107095952D02*
X136761904Y-107143571D01*
X136761904Y-107143571D02*
X136857142Y-107191190D01*
X136857142Y-107191190D02*
X137238094Y-107191190D01*
X135761904Y-106667380D02*
X136238094Y-106667380D01*
X136238094Y-106667380D02*
X136285713Y-107143571D01*
X136285713Y-107143571D02*
X136238094Y-107095952D01*
X136238094Y-107095952D02*
X136142856Y-107048333D01*
X136142856Y-107048333D02*
X135904761Y-107048333D01*
X135904761Y-107048333D02*
X135809523Y-107095952D01*
X135809523Y-107095952D02*
X135761904Y-107143571D01*
X135761904Y-107143571D02*
X135714285Y-107238809D01*
X135714285Y-107238809D02*
X135714285Y-107476904D01*
X135714285Y-107476904D02*
X135761904Y-107572142D01*
X135761904Y-107572142D02*
X135809523Y-107619761D01*
X135809523Y-107619761D02*
X135904761Y-107667380D01*
X135904761Y-107667380D02*
X136142856Y-107667380D01*
X136142856Y-107667380D02*
X136238094Y-107619761D01*
X136238094Y-107619761D02*
X136285713Y-107572142D01*
D11*
G04 #@! TO.C,IC1*
X142176189Y-106467380D02*
X142176189Y-105467380D01*
X141128571Y-106372142D02*
X141176190Y-106419761D01*
X141176190Y-106419761D02*
X141319047Y-106467380D01*
X141319047Y-106467380D02*
X141414285Y-106467380D01*
X141414285Y-106467380D02*
X141557142Y-106419761D01*
X141557142Y-106419761D02*
X141652380Y-106324523D01*
X141652380Y-106324523D02*
X141699999Y-106229285D01*
X141699999Y-106229285D02*
X141747618Y-106038809D01*
X141747618Y-106038809D02*
X141747618Y-105895952D01*
X141747618Y-105895952D02*
X141699999Y-105705476D01*
X141699999Y-105705476D02*
X141652380Y-105610238D01*
X141652380Y-105610238D02*
X141557142Y-105515000D01*
X141557142Y-105515000D02*
X141414285Y-105467380D01*
X141414285Y-105467380D02*
X141319047Y-105467380D01*
X141319047Y-105467380D02*
X141176190Y-105515000D01*
X141176190Y-105515000D02*
X141128571Y-105562619D01*
X140176190Y-106467380D02*
X140747618Y-106467380D01*
X140461904Y-106467380D02*
X140461904Y-105467380D01*
X140461904Y-105467380D02*
X140557142Y-105610238D01*
X140557142Y-105610238D02*
X140652380Y-105705476D01*
X140652380Y-105705476D02*
X140747618Y-105753095D01*
D10*
G04 #@! TO.C,C8*
X138872142Y-110708333D02*
X138919761Y-110660714D01*
X138919761Y-110660714D02*
X138967380Y-110517857D01*
X138967380Y-110517857D02*
X138967380Y-110422619D01*
X138967380Y-110422619D02*
X138919761Y-110279762D01*
X138919761Y-110279762D02*
X138824523Y-110184524D01*
X138824523Y-110184524D02*
X138729285Y-110136905D01*
X138729285Y-110136905D02*
X138538809Y-110089286D01*
X138538809Y-110089286D02*
X138395952Y-110089286D01*
X138395952Y-110089286D02*
X138205476Y-110136905D01*
X138205476Y-110136905D02*
X138110238Y-110184524D01*
X138110238Y-110184524D02*
X138015000Y-110279762D01*
X138015000Y-110279762D02*
X137967380Y-110422619D01*
X137967380Y-110422619D02*
X137967380Y-110517857D01*
X137967380Y-110517857D02*
X138015000Y-110660714D01*
X138015000Y-110660714D02*
X138062619Y-110708333D01*
X138395952Y-111279762D02*
X138348333Y-111184524D01*
X138348333Y-111184524D02*
X138300714Y-111136905D01*
X138300714Y-111136905D02*
X138205476Y-111089286D01*
X138205476Y-111089286D02*
X138157857Y-111089286D01*
X138157857Y-111089286D02*
X138062619Y-111136905D01*
X138062619Y-111136905D02*
X138015000Y-111184524D01*
X138015000Y-111184524D02*
X137967380Y-111279762D01*
X137967380Y-111279762D02*
X137967380Y-111470238D01*
X137967380Y-111470238D02*
X138015000Y-111565476D01*
X138015000Y-111565476D02*
X138062619Y-111613095D01*
X138062619Y-111613095D02*
X138157857Y-111660714D01*
X138157857Y-111660714D02*
X138205476Y-111660714D01*
X138205476Y-111660714D02*
X138300714Y-111613095D01*
X138300714Y-111613095D02*
X138348333Y-111565476D01*
X138348333Y-111565476D02*
X138395952Y-111470238D01*
X138395952Y-111470238D02*
X138395952Y-111279762D01*
X138395952Y-111279762D02*
X138443571Y-111184524D01*
X138443571Y-111184524D02*
X138491190Y-111136905D01*
X138491190Y-111136905D02*
X138586428Y-111089286D01*
X138586428Y-111089286D02*
X138776904Y-111089286D01*
X138776904Y-111089286D02*
X138872142Y-111136905D01*
X138872142Y-111136905D02*
X138919761Y-111184524D01*
X138919761Y-111184524D02*
X138967380Y-111279762D01*
X138967380Y-111279762D02*
X138967380Y-111470238D01*
X138967380Y-111470238D02*
X138919761Y-111565476D01*
X138919761Y-111565476D02*
X138872142Y-111613095D01*
X138872142Y-111613095D02*
X138776904Y-111660714D01*
X138776904Y-111660714D02*
X138586428Y-111660714D01*
X138586428Y-111660714D02*
X138491190Y-111613095D01*
X138491190Y-111613095D02*
X138443571Y-111565476D01*
X138443571Y-111565476D02*
X138395952Y-111470238D01*
G04 #@! TO.C,C7*
X142072142Y-110733333D02*
X142119761Y-110685714D01*
X142119761Y-110685714D02*
X142167380Y-110542857D01*
X142167380Y-110542857D02*
X142167380Y-110447619D01*
X142167380Y-110447619D02*
X142119761Y-110304762D01*
X142119761Y-110304762D02*
X142024523Y-110209524D01*
X142024523Y-110209524D02*
X141929285Y-110161905D01*
X141929285Y-110161905D02*
X141738809Y-110114286D01*
X141738809Y-110114286D02*
X141595952Y-110114286D01*
X141595952Y-110114286D02*
X141405476Y-110161905D01*
X141405476Y-110161905D02*
X141310238Y-110209524D01*
X141310238Y-110209524D02*
X141215000Y-110304762D01*
X141215000Y-110304762D02*
X141167380Y-110447619D01*
X141167380Y-110447619D02*
X141167380Y-110542857D01*
X141167380Y-110542857D02*
X141215000Y-110685714D01*
X141215000Y-110685714D02*
X141262619Y-110733333D01*
X141167380Y-111066667D02*
X141167380Y-111733333D01*
X141167380Y-111733333D02*
X142167380Y-111304762D01*
G04 #@! TO.C,R4*
X145867380Y-100933333D02*
X145391190Y-100600000D01*
X145867380Y-100361905D02*
X144867380Y-100361905D01*
X144867380Y-100361905D02*
X144867380Y-100742857D01*
X144867380Y-100742857D02*
X144915000Y-100838095D01*
X144915000Y-100838095D02*
X144962619Y-100885714D01*
X144962619Y-100885714D02*
X145057857Y-100933333D01*
X145057857Y-100933333D02*
X145200714Y-100933333D01*
X145200714Y-100933333D02*
X145295952Y-100885714D01*
X145295952Y-100885714D02*
X145343571Y-100838095D01*
X145343571Y-100838095D02*
X145391190Y-100742857D01*
X145391190Y-100742857D02*
X145391190Y-100361905D01*
X145200714Y-101790476D02*
X145867380Y-101790476D01*
X144819761Y-101552381D02*
X145534047Y-101314286D01*
X145534047Y-101314286D02*
X145534047Y-101933333D01*
G04 #@! TO.C,R3*
X145767380Y-106033333D02*
X145291190Y-105700000D01*
X145767380Y-105461905D02*
X144767380Y-105461905D01*
X144767380Y-105461905D02*
X144767380Y-105842857D01*
X144767380Y-105842857D02*
X144815000Y-105938095D01*
X144815000Y-105938095D02*
X144862619Y-105985714D01*
X144862619Y-105985714D02*
X144957857Y-106033333D01*
X144957857Y-106033333D02*
X145100714Y-106033333D01*
X145100714Y-106033333D02*
X145195952Y-105985714D01*
X145195952Y-105985714D02*
X145243571Y-105938095D01*
X145243571Y-105938095D02*
X145291190Y-105842857D01*
X145291190Y-105842857D02*
X145291190Y-105461905D01*
X144767380Y-106366667D02*
X144767380Y-106985714D01*
X144767380Y-106985714D02*
X145148333Y-106652381D01*
X145148333Y-106652381D02*
X145148333Y-106795238D01*
X145148333Y-106795238D02*
X145195952Y-106890476D01*
X145195952Y-106890476D02*
X145243571Y-106938095D01*
X145243571Y-106938095D02*
X145338809Y-106985714D01*
X145338809Y-106985714D02*
X145576904Y-106985714D01*
X145576904Y-106985714D02*
X145672142Y-106938095D01*
X145672142Y-106938095D02*
X145719761Y-106890476D01*
X145719761Y-106890476D02*
X145767380Y-106795238D01*
X145767380Y-106795238D02*
X145767380Y-106509524D01*
X145767380Y-106509524D02*
X145719761Y-106414286D01*
X145719761Y-106414286D02*
X145672142Y-106366667D01*
D11*
G04 #@! TO.C,PS1*
X154114285Y-102267380D02*
X154114285Y-101267380D01*
X154114285Y-101267380D02*
X153733333Y-101267380D01*
X153733333Y-101267380D02*
X153638095Y-101315000D01*
X153638095Y-101315000D02*
X153590476Y-101362619D01*
X153590476Y-101362619D02*
X153542857Y-101457857D01*
X153542857Y-101457857D02*
X153542857Y-101600714D01*
X153542857Y-101600714D02*
X153590476Y-101695952D01*
X153590476Y-101695952D02*
X153638095Y-101743571D01*
X153638095Y-101743571D02*
X153733333Y-101791190D01*
X153733333Y-101791190D02*
X154114285Y-101791190D01*
X153161904Y-102219761D02*
X153019047Y-102267380D01*
X153019047Y-102267380D02*
X152780952Y-102267380D01*
X152780952Y-102267380D02*
X152685714Y-102219761D01*
X152685714Y-102219761D02*
X152638095Y-102172142D01*
X152638095Y-102172142D02*
X152590476Y-102076904D01*
X152590476Y-102076904D02*
X152590476Y-101981666D01*
X152590476Y-101981666D02*
X152638095Y-101886428D01*
X152638095Y-101886428D02*
X152685714Y-101838809D01*
X152685714Y-101838809D02*
X152780952Y-101791190D01*
X152780952Y-101791190D02*
X152971428Y-101743571D01*
X152971428Y-101743571D02*
X153066666Y-101695952D01*
X153066666Y-101695952D02*
X153114285Y-101648333D01*
X153114285Y-101648333D02*
X153161904Y-101553095D01*
X153161904Y-101553095D02*
X153161904Y-101457857D01*
X153161904Y-101457857D02*
X153114285Y-101362619D01*
X153114285Y-101362619D02*
X153066666Y-101315000D01*
X153066666Y-101315000D02*
X152971428Y-101267380D01*
X152971428Y-101267380D02*
X152733333Y-101267380D01*
X152733333Y-101267380D02*
X152590476Y-101315000D01*
X151638095Y-102267380D02*
X152209523Y-102267380D01*
X151923809Y-102267380D02*
X151923809Y-101267380D01*
X151923809Y-101267380D02*
X152019047Y-101410238D01*
X152019047Y-101410238D02*
X152114285Y-101505476D01*
X152114285Y-101505476D02*
X152209523Y-101553095D01*
D10*
G04 #@! TO.C,C6*
X147466666Y-114572142D02*
X147514285Y-114619761D01*
X147514285Y-114619761D02*
X147657142Y-114667380D01*
X147657142Y-114667380D02*
X147752380Y-114667380D01*
X147752380Y-114667380D02*
X147895237Y-114619761D01*
X147895237Y-114619761D02*
X147990475Y-114524523D01*
X147990475Y-114524523D02*
X148038094Y-114429285D01*
X148038094Y-114429285D02*
X148085713Y-114238809D01*
X148085713Y-114238809D02*
X148085713Y-114095952D01*
X148085713Y-114095952D02*
X148038094Y-113905476D01*
X148038094Y-113905476D02*
X147990475Y-113810238D01*
X147990475Y-113810238D02*
X147895237Y-113715000D01*
X147895237Y-113715000D02*
X147752380Y-113667380D01*
X147752380Y-113667380D02*
X147657142Y-113667380D01*
X147657142Y-113667380D02*
X147514285Y-113715000D01*
X147514285Y-113715000D02*
X147466666Y-113762619D01*
X146609523Y-113667380D02*
X146799999Y-113667380D01*
X146799999Y-113667380D02*
X146895237Y-113715000D01*
X146895237Y-113715000D02*
X146942856Y-113762619D01*
X146942856Y-113762619D02*
X147038094Y-113905476D01*
X147038094Y-113905476D02*
X147085713Y-114095952D01*
X147085713Y-114095952D02*
X147085713Y-114476904D01*
X147085713Y-114476904D02*
X147038094Y-114572142D01*
X147038094Y-114572142D02*
X146990475Y-114619761D01*
X146990475Y-114619761D02*
X146895237Y-114667380D01*
X146895237Y-114667380D02*
X146704761Y-114667380D01*
X146704761Y-114667380D02*
X146609523Y-114619761D01*
X146609523Y-114619761D02*
X146561904Y-114572142D01*
X146561904Y-114572142D02*
X146514285Y-114476904D01*
X146514285Y-114476904D02*
X146514285Y-114238809D01*
X146514285Y-114238809D02*
X146561904Y-114143571D01*
X146561904Y-114143571D02*
X146609523Y-114095952D01*
X146609523Y-114095952D02*
X146704761Y-114048333D01*
X146704761Y-114048333D02*
X146895237Y-114048333D01*
X146895237Y-114048333D02*
X146990475Y-114095952D01*
X146990475Y-114095952D02*
X147038094Y-114143571D01*
X147038094Y-114143571D02*
X147085713Y-114238809D01*
G04 #@! TO.C,C5*
X152766666Y-114522142D02*
X152814285Y-114569761D01*
X152814285Y-114569761D02*
X152957142Y-114617380D01*
X152957142Y-114617380D02*
X153052380Y-114617380D01*
X153052380Y-114617380D02*
X153195237Y-114569761D01*
X153195237Y-114569761D02*
X153290475Y-114474523D01*
X153290475Y-114474523D02*
X153338094Y-114379285D01*
X153338094Y-114379285D02*
X153385713Y-114188809D01*
X153385713Y-114188809D02*
X153385713Y-114045952D01*
X153385713Y-114045952D02*
X153338094Y-113855476D01*
X153338094Y-113855476D02*
X153290475Y-113760238D01*
X153290475Y-113760238D02*
X153195237Y-113665000D01*
X153195237Y-113665000D02*
X153052380Y-113617380D01*
X153052380Y-113617380D02*
X152957142Y-113617380D01*
X152957142Y-113617380D02*
X152814285Y-113665000D01*
X152814285Y-113665000D02*
X152766666Y-113712619D01*
X151861904Y-113617380D02*
X152338094Y-113617380D01*
X152338094Y-113617380D02*
X152385713Y-114093571D01*
X152385713Y-114093571D02*
X152338094Y-114045952D01*
X152338094Y-114045952D02*
X152242856Y-113998333D01*
X152242856Y-113998333D02*
X152004761Y-113998333D01*
X152004761Y-113998333D02*
X151909523Y-114045952D01*
X151909523Y-114045952D02*
X151861904Y-114093571D01*
X151861904Y-114093571D02*
X151814285Y-114188809D01*
X151814285Y-114188809D02*
X151814285Y-114426904D01*
X151814285Y-114426904D02*
X151861904Y-114522142D01*
X151861904Y-114522142D02*
X151909523Y-114569761D01*
X151909523Y-114569761D02*
X152004761Y-114617380D01*
X152004761Y-114617380D02*
X152242856Y-114617380D01*
X152242856Y-114617380D02*
X152338094Y-114569761D01*
X152338094Y-114569761D02*
X152385713Y-114522142D01*
D12*
G04 #@! TO.C,R5*
X137687742Y-105177500D02*
X138162258Y-105177500D01*
X137687742Y-106222500D02*
X138162258Y-106222500D01*
G04 #@! TO.C,J3*
X134410000Y-104290000D02*
X134410000Y-104670000D01*
X132640000Y-111910000D02*
X134410000Y-111910000D01*
X134410000Y-104290000D02*
X132640000Y-104290000D01*
X134410000Y-111910000D02*
X134410000Y-111530000D01*
X130360000Y-104290000D02*
X130100000Y-104290000D01*
X130100000Y-111910000D02*
X130360000Y-111910000D01*
D11*
G04 #@! TO.C,IC1*
X141950000Y-106800000D02*
X140550000Y-106800000D01*
X140200000Y-106850000D02*
X139800000Y-106850000D01*
X140200000Y-109750000D02*
X140200000Y-106850000D01*
X139800000Y-106850000D02*
X139800000Y-109750000D01*
X139800000Y-109750000D02*
X140200000Y-109750000D01*
D12*
G04 #@! TO.C,C8*
X135590000Y-110163748D02*
X135590000Y-111586252D01*
X137410000Y-110163748D02*
X137410000Y-111586252D01*
G04 #@! TO.C,C7*
X142690000Y-110163748D02*
X142690000Y-111586252D01*
X144510000Y-110163748D02*
X144510000Y-111586252D01*
G04 #@! TO.C,G\u002A\u002A\u002A*
G36*
X145076608Y-53411988D02*
G01*
X145039474Y-53449123D01*
X145002339Y-53411988D01*
X145039474Y-53374854D01*
X145076608Y-53411988D01*
G37*
G36*
X144458018Y-58824005D02*
G01*
X144371053Y-58945029D01*
X144268645Y-59037004D01*
X144198669Y-59057343D01*
X144209819Y-58991784D01*
X144296784Y-58870760D01*
X144399192Y-58778785D01*
X144469167Y-58758446D01*
X144458018Y-58824005D01*
G37*
G36*
X141503780Y-52780703D02*
G01*
X141601987Y-52825649D01*
X141744842Y-52932913D01*
X141920176Y-53085125D01*
X141678801Y-52968141D01*
X141506228Y-52873319D01*
X141438456Y-52805049D01*
X141503468Y-52780702D01*
X141503780Y-52780703D01*
G37*
G36*
X141426127Y-54152005D02*
G01*
X141585965Y-54234677D01*
X141771638Y-54346547D01*
X141585965Y-54297967D01*
X141452119Y-54252114D01*
X141329737Y-54183465D01*
X141296460Y-54144803D01*
X141319102Y-54119944D01*
X141426127Y-54152005D01*
G37*
G36*
X140384998Y-52887433D02*
G01*
X140447697Y-52946357D01*
X140571331Y-53069120D01*
X140620468Y-53128807D01*
X140615220Y-53153157D01*
X140551669Y-53152016D01*
X140441208Y-53063563D01*
X140315787Y-52910672D01*
X140149529Y-52669298D01*
X140384998Y-52887433D01*
G37*
G36*
X141707816Y-59125403D02*
G01*
X141611589Y-59254824D01*
X141525640Y-59342397D01*
X141460438Y-59390643D01*
X141456378Y-59356146D01*
X141506766Y-59252216D01*
X141586120Y-59133402D01*
X141660633Y-59056186D01*
X141673855Y-59048495D01*
X141731224Y-59045884D01*
X141707816Y-59125403D01*
G37*
G36*
X141329588Y-51905956D02*
G01*
X141468334Y-51999229D01*
X141642757Y-52147406D01*
X141782206Y-52283157D01*
X141864984Y-52382620D01*
X141842236Y-52393564D01*
X141721845Y-52315870D01*
X141511696Y-52149415D01*
X141387330Y-52038945D01*
X141288238Y-51931160D01*
X141282953Y-51889474D01*
X141329588Y-51905956D01*
G37*
G36*
X140983092Y-58765276D02*
G01*
X140949838Y-58849011D01*
X140843275Y-58982164D01*
X140823147Y-59003087D01*
X140701643Y-59107398D01*
X140632260Y-59130116D01*
X140629189Y-59124782D01*
X140662443Y-59041047D01*
X140769006Y-58907895D01*
X140789134Y-58886971D01*
X140910638Y-58782660D01*
X140980020Y-58759942D01*
X140983092Y-58765276D01*
G37*
G36*
X141691911Y-58533389D02*
G01*
X141575873Y-58696023D01*
X141394550Y-58918455D01*
X141381948Y-58933176D01*
X141211194Y-59126794D01*
X141080972Y-59264162D01*
X141018590Y-59316374D01*
X141024820Y-59281700D01*
X141097030Y-59162569D01*
X141216320Y-58992120D01*
X141356855Y-58805603D01*
X141492798Y-58638271D01*
X141598315Y-58525373D01*
X141698373Y-58444921D01*
X141735224Y-58444905D01*
X141691911Y-58533389D01*
G37*
G36*
X144036842Y-54122728D02*
G01*
X144017210Y-54159595D01*
X143906871Y-54194926D01*
X143882745Y-54197254D01*
X143717510Y-54247023D01*
X143516959Y-54340351D01*
X143471139Y-54364545D01*
X143279745Y-54448615D01*
X143145614Y-54482493D01*
X143125942Y-54477802D01*
X143158960Y-54432897D01*
X143280129Y-54355431D01*
X143455106Y-54263960D01*
X143649547Y-54177038D01*
X143829109Y-54113221D01*
X143975387Y-54089688D01*
X144036842Y-54122728D01*
G37*
G36*
X142505451Y-59845153D02*
G01*
X142590641Y-59870333D01*
X142566316Y-59925380D01*
X142533442Y-59981644D01*
X142493748Y-60157503D01*
X142477750Y-60387636D01*
X142485259Y-60621787D01*
X142516082Y-60809696D01*
X142570029Y-60901105D01*
X142581755Y-60913613D01*
X142505636Y-60931527D01*
X142328655Y-60938566D01*
X142222422Y-60936406D01*
X142096068Y-60922898D01*
X142087281Y-60901105D01*
X142120202Y-60868339D01*
X142164882Y-60697507D01*
X142180117Y-60393275D01*
X142176272Y-60224924D01*
X142146113Y-59986377D01*
X142087281Y-59885444D01*
X142075191Y-59872847D01*
X142149421Y-59852657D01*
X142324942Y-59842121D01*
X142505451Y-59845153D01*
G37*
G36*
X141020493Y-59684505D02*
G01*
X141231464Y-59738002D01*
X141476783Y-59761988D01*
X141686103Y-59796366D01*
X141812176Y-59916887D01*
X141821473Y-59934751D01*
X141866601Y-60069677D01*
X141833102Y-60106354D01*
X141735993Y-60023724D01*
X141630257Y-59925884D01*
X141501279Y-59912123D01*
X141397516Y-60043609D01*
X141320186Y-60319477D01*
X141305910Y-60402963D01*
X141283052Y-60669134D01*
X141319068Y-60802226D01*
X141340628Y-60826306D01*
X141340519Y-60868995D01*
X141230958Y-60869242D01*
X140995106Y-60828407D01*
X140966826Y-60822291D01*
X140843891Y-60775638D01*
X140841257Y-60728732D01*
X140898491Y-60652054D01*
X140965120Y-60482021D01*
X141022358Y-60268700D01*
X141060208Y-60057937D01*
X141068676Y-59895576D01*
X141037765Y-59827462D01*
X140949952Y-59820522D01*
X140851575Y-59830616D01*
X140694737Y-59872599D01*
X140509064Y-59926049D01*
X140662880Y-59766535D01*
X140722151Y-59709491D01*
X140852120Y-59646705D01*
X141020493Y-59684505D01*
G37*
G36*
X145396954Y-59437729D02*
G01*
X145553711Y-59563918D01*
X145561984Y-59572296D01*
X145716128Y-59810394D01*
X145726320Y-60048462D01*
X145596227Y-60271750D01*
X145329518Y-60465506D01*
X145159624Y-60540547D01*
X144924863Y-60570390D01*
X144671623Y-60492757D01*
X144568908Y-60438795D01*
X144487854Y-60363334D01*
X144534932Y-60335466D01*
X144703678Y-60378276D01*
X144813865Y-60413315D01*
X144963284Y-60408524D01*
X145130725Y-60308672D01*
X145144099Y-60298515D01*
X145316983Y-60098437D01*
X145356237Y-59884300D01*
X145256738Y-59681595D01*
X145236557Y-59660279D01*
X145053004Y-59552287D01*
X144850362Y-59585809D01*
X144619568Y-59761988D01*
X144562114Y-59818744D01*
X144435905Y-59937503D01*
X144375639Y-59984795D01*
X144370828Y-59936074D01*
X144390607Y-59796000D01*
X144425895Y-59678681D01*
X144467117Y-59647624D01*
X144523077Y-59646121D01*
X144637770Y-59570184D01*
X144661287Y-59551616D01*
X144839391Y-59467251D01*
X145065198Y-59412462D01*
X145231409Y-59399362D01*
X145396954Y-59437729D01*
G37*
G36*
X139261233Y-55785660D02*
G01*
X139374679Y-55839595D01*
X139510209Y-55981324D01*
X139546476Y-56106402D01*
X139482758Y-56260593D01*
X139290888Y-56373944D01*
X138981676Y-56437134D01*
X138766452Y-56462626D01*
X138605202Y-56504697D01*
X138547057Y-56571134D01*
X138566564Y-56676621D01*
X138567306Y-56678505D01*
X138674453Y-56765786D01*
X138868643Y-56787769D01*
X139105170Y-56746370D01*
X139339328Y-56643504D01*
X139388926Y-56614417D01*
X139525346Y-56549855D01*
X139579565Y-56550945D01*
X139566971Y-56615728D01*
X139455641Y-56762258D01*
X139275676Y-56843110D01*
X139165278Y-56866246D01*
X139071518Y-56904311D01*
X139053476Y-56917026D01*
X138911449Y-56939626D01*
X138709452Y-56917238D01*
X138511382Y-56855437D01*
X138377904Y-56774738D01*
X138277409Y-56613237D01*
X138320539Y-56415380D01*
X138351794Y-56366922D01*
X138469744Y-56275143D01*
X138670419Y-56216688D01*
X138986550Y-56179990D01*
X139176488Y-56139357D01*
X139246491Y-56048538D01*
X139242593Y-56023053D01*
X139152293Y-55944563D01*
X138976088Y-55914359D01*
X138758903Y-55934978D01*
X138545665Y-56008958D01*
X138469691Y-56044139D01*
X138343378Y-56069480D01*
X138326394Y-56014868D01*
X138434282Y-55896058D01*
X138524277Y-55845381D01*
X138753438Y-55784267D01*
X139021597Y-55761356D01*
X139261233Y-55785660D01*
G37*
G36*
X139165925Y-58995604D02*
G01*
X139177962Y-59004063D01*
X139283875Y-59104682D01*
X139280168Y-59150788D01*
X139231661Y-59178010D01*
X139118245Y-59304952D01*
X138992680Y-59493985D01*
X138880750Y-59700234D01*
X138808238Y-59878824D01*
X138800929Y-59984879D01*
X138823607Y-60034899D01*
X138787776Y-60056224D01*
X138673431Y-59997420D01*
X138503801Y-59867651D01*
X138448746Y-59819429D01*
X138362630Y-59734496D01*
X138370568Y-59721848D01*
X138374154Y-59723450D01*
X138474044Y-59694486D01*
X138587502Y-59572344D01*
X138594441Y-59561584D01*
X138661922Y-59394750D01*
X138614282Y-59307451D01*
X138465335Y-59306393D01*
X138228894Y-59398278D01*
X138066827Y-59465069D01*
X137844745Y-59484370D01*
X137700880Y-59390318D01*
X137649708Y-59188163D01*
X137652388Y-59083262D01*
X137677262Y-59042857D01*
X137748221Y-59125633D01*
X137797039Y-59185127D01*
X137886056Y-59219955D01*
X138026729Y-59158395D01*
X138137711Y-59065929D01*
X138183483Y-58936487D01*
X138392398Y-58936487D01*
X138442256Y-59064942D01*
X138575457Y-59196429D01*
X138691984Y-59265359D01*
X138773232Y-59262390D01*
X138844802Y-59155148D01*
X138862179Y-59121089D01*
X138886720Y-58995604D01*
X138796086Y-58895207D01*
X138761638Y-58871705D01*
X138582863Y-58801242D01*
X138446604Y-58824184D01*
X138392398Y-58936487D01*
X138183483Y-58936487D01*
X138206725Y-58870760D01*
X138209974Y-58823185D01*
X138287245Y-58689901D01*
X138455921Y-58655687D01*
X138700729Y-58720300D01*
X139006397Y-58883496D01*
X139165925Y-58995604D01*
G37*
G36*
X139724860Y-59229651D02*
G01*
X139774219Y-59266021D01*
X139933575Y-59342964D01*
X140155788Y-59429810D01*
X140316889Y-59493660D01*
X140451594Y-59565933D01*
X140476112Y-59610865D01*
X140474375Y-59611973D01*
X140387591Y-59723702D01*
X140290256Y-59924225D01*
X140202844Y-60158772D01*
X140145828Y-60372574D01*
X140139682Y-60510862D01*
X140141252Y-60515874D01*
X140149513Y-60580279D01*
X140101936Y-60595691D01*
X139971474Y-60559294D01*
X139731080Y-60468265D01*
X139506257Y-60382723D01*
X139319881Y-60317035D01*
X139229726Y-60292164D01*
X139187382Y-60260609D01*
X139122591Y-60138842D01*
X139101555Y-60042143D01*
X139137481Y-59984795D01*
X139156792Y-59987675D01*
X139209357Y-60062854D01*
X139245035Y-60110106D01*
X139370534Y-60194564D01*
X139535214Y-60279604D01*
X139684631Y-60337850D01*
X139764342Y-60341924D01*
X139796147Y-60289518D01*
X139867662Y-60156888D01*
X139892848Y-60105023D01*
X139904571Y-60003728D01*
X139804118Y-59947854D01*
X139708560Y-59928260D01*
X139592095Y-59940619D01*
X139557947Y-59918773D01*
X139562954Y-59796875D01*
X139575537Y-59746196D01*
X139636469Y-59635284D01*
X139699933Y-59619640D01*
X139729240Y-59716908D01*
X139736201Y-59769729D01*
X139813529Y-59857828D01*
X139928925Y-59850372D01*
X140022348Y-59742184D01*
X140033967Y-59706948D01*
X140017083Y-59540862D01*
X139874826Y-59430213D01*
X139622209Y-59388281D01*
X139478780Y-59382167D01*
X139451015Y-59352551D01*
X139539188Y-59276883D01*
X139643072Y-59220895D01*
X139724860Y-59229651D01*
G37*
G36*
X147135740Y-59131608D02*
G01*
X147170108Y-59145362D01*
X147376124Y-59205740D01*
X147494893Y-59213505D01*
X147575295Y-59194322D01*
X147601555Y-59226847D01*
X147541915Y-59299160D01*
X147412587Y-59378722D01*
X147245368Y-59448223D01*
X147172759Y-59454390D01*
X147193599Y-59390119D01*
X147202081Y-59347429D01*
X147130914Y-59273532D01*
X147022849Y-59275251D01*
X146837298Y-59335007D01*
X146636965Y-59431943D01*
X146474397Y-59540101D01*
X146402138Y-59633527D01*
X146399399Y-59656415D01*
X146382869Y-59819339D01*
X146380609Y-59830757D01*
X146303255Y-59938073D01*
X146152807Y-60060224D01*
X146044394Y-60130625D01*
X145928169Y-60194524D01*
X145898346Y-60176257D01*
X145932021Y-60077631D01*
X145937846Y-60062000D01*
X145978827Y-59906073D01*
X146030722Y-59658222D01*
X146083744Y-59364459D01*
X146084679Y-59358936D01*
X146438233Y-59358936D01*
X146513066Y-59373179D01*
X146691959Y-59299998D01*
X146829311Y-59211095D01*
X146835926Y-59131608D01*
X146695203Y-59068040D01*
X146675856Y-59062940D01*
X146557437Y-59038491D01*
X146502822Y-59079690D01*
X146454806Y-59223538D01*
X146446872Y-59250631D01*
X146438233Y-59358936D01*
X146084679Y-59358936D01*
X146096867Y-59286963D01*
X146143934Y-59026775D01*
X146182218Y-58841246D01*
X146204450Y-58766396D01*
X146404984Y-58640370D01*
X146586581Y-58535607D01*
X146669970Y-58508564D01*
X146669462Y-58555904D01*
X146599370Y-58674288D01*
X146570819Y-58718882D01*
X146537475Y-58800548D01*
X146572239Y-58866399D01*
X146697690Y-58941730D01*
X146936410Y-59051836D01*
X147135740Y-59131608D01*
G37*
G36*
X146727413Y-56085672D02*
G01*
X146711482Y-56283695D01*
X146717194Y-56521763D01*
X146729137Y-56605555D01*
X146746519Y-56727499D01*
X146799649Y-56850643D01*
X146795777Y-56901450D01*
X146681436Y-56933696D01*
X146491029Y-56946749D01*
X146260484Y-56941466D01*
X146025727Y-56918702D01*
X145822685Y-56879311D01*
X145687286Y-56824151D01*
X145577528Y-56724628D01*
X145540818Y-56605555D01*
X145856433Y-56605555D01*
X145866363Y-56673473D01*
X145945419Y-56744412D01*
X146134942Y-56777144D01*
X146158792Y-56779067D01*
X146328973Y-56780840D01*
X146399507Y-56731846D01*
X146413450Y-56605555D01*
X146413377Y-56588893D01*
X146395761Y-56471418D01*
X146317301Y-56428618D01*
X146134942Y-56433967D01*
X146009138Y-56449675D01*
X145888394Y-56501831D01*
X145856433Y-56605555D01*
X145540818Y-56605555D01*
X145530272Y-56571346D01*
X145630300Y-56422643D01*
X145697925Y-56327437D01*
X145653335Y-56196773D01*
X145642644Y-56168991D01*
X145870183Y-56168991D01*
X145871086Y-56171215D01*
X145971696Y-56243025D01*
X146161455Y-56271345D01*
X146303031Y-56263554D01*
X146393190Y-56212648D01*
X146413450Y-56085672D01*
X146410302Y-56020860D01*
X146357776Y-55923531D01*
X146205497Y-55900000D01*
X146009626Y-55932719D01*
X145880687Y-56030007D01*
X145870183Y-56168991D01*
X145642644Y-56168991D01*
X145607002Y-56076366D01*
X145665755Y-55943165D01*
X145690356Y-55918514D01*
X145806883Y-55864117D01*
X146009803Y-55836857D01*
X146329708Y-55831594D01*
X146403998Y-55832702D01*
X146638107Y-55841802D01*
X146780738Y-55856744D01*
X146803363Y-55874918D01*
X146770135Y-55911591D01*
X146729193Y-56063552D01*
X146727413Y-56085672D01*
G37*
G36*
X144085967Y-60003362D02*
G01*
X144090119Y-60080806D01*
X144106652Y-60318471D01*
X144152890Y-60522930D01*
X144234285Y-60633872D01*
X144297367Y-60693193D01*
X144283128Y-60727485D01*
X144168971Y-60739447D01*
X143986017Y-60771071D01*
X143936480Y-60780714D01*
X143821695Y-60786644D01*
X143786146Y-60719057D01*
X143800024Y-60541093D01*
X143811483Y-60383936D01*
X143784506Y-60298476D01*
X143699362Y-60293267D01*
X143673022Y-60302197D01*
X143546295Y-60405803D01*
X143422065Y-60578947D01*
X143394989Y-60626039D01*
X143281493Y-60796882D01*
X143192924Y-60893453D01*
X143160213Y-60912597D01*
X143058083Y-60949155D01*
X143038847Y-60946239D01*
X142929835Y-60871662D01*
X142822970Y-60744476D01*
X142775406Y-60629344D01*
X142789635Y-60596297D01*
X142851431Y-60653216D01*
X142905927Y-60705934D01*
X142983291Y-60678872D01*
X143108475Y-60542801D01*
X143153629Y-60487454D01*
X143237751Y-60368927D01*
X143232718Y-60309184D01*
X143143854Y-60266685D01*
X143025804Y-60159243D01*
X143016689Y-60091207D01*
X143244825Y-60091207D01*
X143327689Y-60170584D01*
X143519561Y-60207602D01*
X143650697Y-60200097D01*
X143725740Y-60145868D01*
X143726132Y-60003362D01*
X143714884Y-59930875D01*
X143655943Y-59831130D01*
X143516959Y-59824111D01*
X143386940Y-59851649D01*
X143246920Y-59944515D01*
X143244825Y-60091207D01*
X143016689Y-60091207D01*
X143004283Y-59998603D01*
X143089912Y-59851997D01*
X143111231Y-59837546D01*
X143266682Y-59776275D01*
X143479825Y-59727221D01*
X143526105Y-59719678D01*
X143755454Y-59680944D01*
X143925439Y-59650256D01*
X144000371Y-59646544D01*
X144050712Y-59694978D01*
X144076633Y-59829288D01*
X144085967Y-60003362D01*
G37*
G36*
X144324860Y-51763165D02*
G01*
X144329098Y-51781996D01*
X144248390Y-51898004D01*
X144241690Y-51902349D01*
X144212662Y-51948092D01*
X144322304Y-51962605D01*
X144435246Y-51986904D01*
X144535206Y-52112281D01*
X144577934Y-52212626D01*
X144679512Y-52251260D01*
X144827277Y-52149415D01*
X144928075Y-52068499D01*
X145051709Y-52055165D01*
X145128064Y-52181600D01*
X145145774Y-52236413D01*
X145209257Y-52287207D01*
X145345932Y-52243030D01*
X145439628Y-52211101D01*
X145594108Y-52222404D01*
X145661914Y-52321403D01*
X145645813Y-52376012D01*
X145614403Y-52482543D01*
X145570042Y-52590905D01*
X145569876Y-52744199D01*
X145573895Y-52829797D01*
X145483352Y-52958459D01*
X145424673Y-53003288D01*
X145406073Y-53044848D01*
X145523724Y-53047728D01*
X145582000Y-53049775D01*
X145690157Y-53112046D01*
X145722148Y-53190895D01*
X145760743Y-53286019D01*
X145787298Y-53373938D01*
X145857059Y-53485213D01*
X145960511Y-53488582D01*
X146048353Y-53482757D01*
X146191059Y-53561027D01*
X146225093Y-53608568D01*
X146232684Y-53694892D01*
X146233849Y-53708135D01*
X146136728Y-53841212D01*
X146042643Y-53985036D01*
X146023476Y-54107566D01*
X146026551Y-54116944D01*
X146000729Y-54233120D01*
X145869691Y-54299229D01*
X145671377Y-54295066D01*
X145570371Y-54275887D01*
X145534793Y-54288816D01*
X145622496Y-54367484D01*
X145698859Y-54457021D01*
X145710949Y-54558216D01*
X145709657Y-54607031D01*
X145810532Y-54637427D01*
X145949819Y-54668303D01*
X146014368Y-54743390D01*
X145964604Y-54825097D01*
X145937079Y-54875830D01*
X146019094Y-54973767D01*
X146031760Y-54983288D01*
X146108818Y-55075552D01*
X146104882Y-55083041D01*
X146060673Y-55167164D01*
X146017598Y-55225691D01*
X145967836Y-55390588D01*
X145938771Y-55510080D01*
X145842245Y-55582248D01*
X145723704Y-55537037D01*
X145667960Y-55497600D01*
X145507369Y-55454386D01*
X145434668Y-55436350D01*
X145373684Y-55342982D01*
X145360744Y-55291029D01*
X145262281Y-55231579D01*
X145197316Y-55204009D01*
X145150877Y-55083041D01*
X145139431Y-54991721D01*
X145069604Y-54939860D01*
X144943434Y-55023116D01*
X144906343Y-55051514D01*
X144801926Y-55051517D01*
X144638359Y-54951691D01*
X144541229Y-54888090D01*
X144415925Y-54859397D01*
X144366029Y-54955624D01*
X144387360Y-55180584D01*
X144389556Y-55223239D01*
X144394399Y-55317316D01*
X144337571Y-55380117D01*
X144293086Y-55403709D01*
X144293456Y-55518169D01*
X144299100Y-55550680D01*
X144259503Y-55691659D01*
X144158862Y-55813676D01*
X144043995Y-55853754D01*
X144021484Y-55852937D01*
X143904890Y-55881028D01*
X143858444Y-55882395D01*
X143728940Y-55811171D01*
X143592694Y-55677700D01*
X143492711Y-55528693D01*
X143472000Y-55410861D01*
X143481240Y-55363501D01*
X143435840Y-55264480D01*
X143404099Y-55228595D01*
X143442690Y-55120175D01*
X143483003Y-55053395D01*
X143445085Y-54973117D01*
X143426458Y-54957432D01*
X143623216Y-54957432D01*
X143634537Y-55134647D01*
X143727747Y-55275336D01*
X143738087Y-55283240D01*
X143793374Y-55352387D01*
X143711367Y-55403622D01*
X143649596Y-55433472D01*
X143640833Y-55490499D01*
X143738082Y-55601239D01*
X143847653Y-55703139D01*
X143906871Y-55742847D01*
X143936085Y-55733238D01*
X144055455Y-55700258D01*
X144142472Y-55642065D01*
X144142767Y-55496132D01*
X144135295Y-55371210D01*
X144225354Y-55277901D01*
X144304736Y-55223239D01*
X144266732Y-55128710D01*
X144231130Y-55064259D01*
X144226297Y-54914294D01*
X144220300Y-54799203D01*
X144150466Y-54731448D01*
X144584832Y-54731448D01*
X144630994Y-54823099D01*
X144634185Y-54826902D01*
X144769633Y-54924148D01*
X144881506Y-54905742D01*
X144928070Y-54778019D01*
X144904479Y-54671873D01*
X144810593Y-54666615D01*
X144749646Y-54686833D01*
X144615826Y-54711696D01*
X144584832Y-54731448D01*
X144150466Y-54731448D01*
X144144761Y-54725913D01*
X144052100Y-54745950D01*
X144030792Y-54790984D01*
X143991438Y-54952985D01*
X143956095Y-55180434D01*
X143909218Y-55565789D01*
X143898761Y-55138743D01*
X143888665Y-54953468D01*
X143864177Y-54779542D01*
X143832602Y-54712833D01*
X143804812Y-54715673D01*
X143683427Y-54799254D01*
X143623216Y-54957432D01*
X143426458Y-54957432D01*
X143418598Y-54950814D01*
X143403509Y-54863546D01*
X143389748Y-54815093D01*
X143277407Y-54760066D01*
X143166446Y-54752127D01*
X143056572Y-54807325D01*
X143052595Y-54815936D01*
X143031662Y-54943744D01*
X143014500Y-55183790D01*
X143002790Y-55505247D01*
X142998213Y-55877291D01*
X142999008Y-56248788D01*
X143005488Y-56540076D01*
X143022032Y-56738287D01*
X143052966Y-56872417D01*
X143102617Y-56971464D01*
X143175309Y-57064422D01*
X143257910Y-57156302D01*
X143358711Y-57226510D01*
X143486037Y-57229980D01*
X143697986Y-57179504D01*
X143707874Y-57176870D01*
X143938702Y-57128358D01*
X144104196Y-57137462D01*
X144274959Y-57207625D01*
X144503337Y-57284716D01*
X144834270Y-57283079D01*
X145093809Y-57272624D01*
X145382483Y-57352796D01*
X145565220Y-57417338D01*
X145766726Y-57415628D01*
X145829373Y-57397019D01*
X145886939Y-57399806D01*
X145830769Y-57482962D01*
X145806855Y-57515234D01*
X145801557Y-57562695D01*
X145873320Y-57592225D01*
X146045966Y-57610362D01*
X146343319Y-57623645D01*
X146954637Y-57645322D01*
X146894432Y-57710202D01*
X146886565Y-57718680D01*
X146879973Y-57725784D01*
X146817647Y-57792949D01*
X146610049Y-58016667D01*
X146597462Y-58030178D01*
X146429626Y-58197078D01*
X146328822Y-58270276D01*
X146308965Y-58239474D01*
X146298241Y-58201630D01*
X146209578Y-58262713D01*
X146050965Y-58425146D01*
X145907835Y-58573444D01*
X145792366Y-58670285D01*
X145747246Y-58675614D01*
X145763671Y-58615936D01*
X145856433Y-58499415D01*
X145916021Y-58436427D01*
X145965620Y-58323216D01*
X145930334Y-58323138D01*
X145823617Y-58411846D01*
X145670760Y-58573684D01*
X145501095Y-58759258D01*
X145403504Y-58847510D01*
X145386645Y-58833743D01*
X145447005Y-58727187D01*
X145581070Y-58537076D01*
X145785327Y-58272643D01*
X145812894Y-58237548D01*
X145978289Y-58237548D01*
X146027993Y-58233961D01*
X146151683Y-58115514D01*
X146169496Y-58091846D01*
X146352470Y-58091846D01*
X146414479Y-58076698D01*
X146524854Y-57979532D01*
X146606965Y-57867739D01*
X146622969Y-57792949D01*
X146560960Y-57808097D01*
X146536499Y-57829631D01*
X146450585Y-57905263D01*
X146368474Y-58017056D01*
X146352470Y-58091846D01*
X146169496Y-58091846D01*
X146337866Y-57868129D01*
X146358209Y-57829631D01*
X146312992Y-57850251D01*
X146189824Y-57958584D01*
X146111104Y-58037545D01*
X146003036Y-58168277D01*
X145978289Y-58237548D01*
X145812894Y-58237548D01*
X145875838Y-58157414D01*
X146028461Y-57952498D01*
X146121709Y-57811511D01*
X146138105Y-57759859D01*
X146076482Y-57809432D01*
X145940338Y-57953129D01*
X145751708Y-58168065D01*
X145531375Y-58431243D01*
X145321024Y-58681833D01*
X145136627Y-58889685D01*
X145005601Y-59024030D01*
X144947598Y-59063582D01*
X144952747Y-59037096D01*
X145026048Y-58915925D01*
X145165436Y-58722940D01*
X145352107Y-58485034D01*
X145515176Y-58282967D01*
X145713303Y-58031113D01*
X145831343Y-57869065D01*
X145879508Y-57782408D01*
X145868007Y-57756725D01*
X145867110Y-57756896D01*
X145805367Y-57816802D01*
X145670896Y-57969156D01*
X145482844Y-58191726D01*
X145260358Y-58462281D01*
X145250707Y-58474144D01*
X145025057Y-58743961D01*
X144829330Y-58964481D01*
X144684207Y-59113256D01*
X144610369Y-59167836D01*
X144608892Y-59167819D01*
X144587076Y-59140730D01*
X144637016Y-59052026D01*
X144769367Y-58886804D01*
X144994784Y-58630161D01*
X145024326Y-58596130D01*
X145120233Y-58462544D01*
X145139938Y-58389450D01*
X145126793Y-58390492D01*
X145036963Y-58462855D01*
X144886588Y-58617438D01*
X144699738Y-58830143D01*
X144630385Y-58910433D01*
X144442863Y-59107906D01*
X144292326Y-59238882D01*
X144206326Y-59278337D01*
X144170954Y-59272419D01*
X144071972Y-59319618D01*
X144059397Y-59336281D01*
X143946679Y-59390643D01*
X143928823Y-59347397D01*
X144001296Y-59240350D01*
X144106875Y-59155235D01*
X144183639Y-59165019D01*
X144232781Y-59163995D01*
X144351088Y-59074877D01*
X144504751Y-58911255D01*
X144584559Y-58813621D01*
X144718319Y-58633867D01*
X144774152Y-58531802D01*
X144746798Y-58519946D01*
X144630994Y-58610819D01*
X144598154Y-58639703D01*
X144507485Y-58694888D01*
X144482322Y-58640897D01*
X144476152Y-58629565D01*
X144401546Y-58666985D01*
X144260185Y-58790814D01*
X144074633Y-58982164D01*
X143998459Y-59063722D01*
X143838355Y-59220933D01*
X143737569Y-59298067D01*
X143715314Y-59279240D01*
X143716653Y-59275104D01*
X143735243Y-59191176D01*
X143692523Y-59201476D01*
X143565986Y-59310753D01*
X143533653Y-59339223D01*
X143413332Y-59418511D01*
X143368421Y-59394495D01*
X143368389Y-59389480D01*
X143345016Y-59335636D01*
X143255223Y-59392133D01*
X143150106Y-59467994D01*
X143115877Y-59457779D01*
X143170451Y-59351040D01*
X143217877Y-59284505D01*
X143386065Y-59284505D01*
X143414486Y-59271515D01*
X143521429Y-59170470D01*
X143548242Y-59141216D01*
X143762659Y-59141216D01*
X143764019Y-59141896D01*
X143826815Y-59091808D01*
X143961649Y-58948057D01*
X144149692Y-58731586D01*
X144301195Y-58548871D01*
X144497519Y-58548871D01*
X144535585Y-58548188D01*
X144653982Y-58444597D01*
X144671878Y-58427012D01*
X144756502Y-58367175D01*
X144779532Y-58422177D01*
X144780210Y-58433701D01*
X144831586Y-58453733D01*
X144965205Y-58350877D01*
X145006250Y-58313558D01*
X145117201Y-58240081D01*
X145153666Y-58282229D01*
X145181699Y-58293288D01*
X145273516Y-58226862D01*
X145399369Y-58103308D01*
X145528109Y-57956216D01*
X145628587Y-57819178D01*
X145669655Y-57725784D01*
X145648563Y-57722962D01*
X145555762Y-57799167D01*
X145413910Y-57948591D01*
X145309012Y-58057854D01*
X145198215Y-58143638D01*
X145153969Y-58133691D01*
X145151115Y-58112107D01*
X145096597Y-58099011D01*
X144965205Y-58202339D01*
X144937525Y-58227470D01*
X144825110Y-58306958D01*
X144779532Y-58298648D01*
X144799044Y-58239131D01*
X144894991Y-58124705D01*
X144971151Y-58047203D01*
X144993036Y-58017577D01*
X145164166Y-58017577D01*
X145226175Y-58002429D01*
X145336550Y-57905263D01*
X145418661Y-57793470D01*
X145434664Y-57718680D01*
X145430546Y-57719686D01*
X145372656Y-57733828D01*
X145262281Y-57830994D01*
X145180170Y-57942787D01*
X145164166Y-58017577D01*
X144993036Y-58017577D01*
X145066024Y-57918772D01*
X145126950Y-57805473D01*
X145123272Y-57756725D01*
X145066065Y-57805716D01*
X144941160Y-57940520D01*
X144777043Y-58131043D01*
X144635104Y-58311020D01*
X144532966Y-58464023D01*
X144497519Y-58548871D01*
X144301195Y-58548871D01*
X144372114Y-58463342D01*
X144389852Y-58441477D01*
X144604815Y-58170430D01*
X144775363Y-57944411D01*
X144884640Y-57786478D01*
X144915788Y-57719686D01*
X144914382Y-57718969D01*
X144851244Y-57768778D01*
X144716307Y-57912438D01*
X144528395Y-58129011D01*
X144502821Y-58159939D01*
X144306333Y-58397560D01*
X144288539Y-58419568D01*
X144073926Y-58690895D01*
X143903507Y-58916979D01*
X143794134Y-59074770D01*
X143762659Y-59141216D01*
X143548242Y-59141216D01*
X143685707Y-58991236D01*
X143885652Y-58756704D01*
X144013957Y-58598559D01*
X144179829Y-58382631D01*
X144286853Y-58227760D01*
X144316274Y-58159939D01*
X144287853Y-58172929D01*
X144180911Y-58273974D01*
X144016633Y-58453208D01*
X143816688Y-58687740D01*
X143688382Y-58845885D01*
X143522511Y-59061813D01*
X143415486Y-59216684D01*
X143386065Y-59284505D01*
X143217877Y-59284505D01*
X143309317Y-59156220D01*
X143527962Y-58881763D01*
X143641284Y-58741976D01*
X143806056Y-58527606D01*
X143912716Y-58373359D01*
X143942198Y-58305745D01*
X143924232Y-58311193D01*
X143829611Y-58397148D01*
X143676307Y-58563997D01*
X143486956Y-58787774D01*
X143407114Y-58884414D01*
X143207663Y-59117906D01*
X143041553Y-59301734D01*
X142938426Y-59402667D01*
X142906496Y-59418174D01*
X142926901Y-59360850D01*
X143008502Y-59233816D01*
X143132282Y-59064070D01*
X143279221Y-58878608D01*
X143430301Y-58704430D01*
X143462176Y-58668521D01*
X143558796Y-58535107D01*
X143577405Y-58460836D01*
X143557213Y-58465414D01*
X143459610Y-58550610D01*
X143304788Y-58717633D01*
X143115437Y-58942810D01*
X143021425Y-59057997D01*
X142845424Y-59266704D01*
X142715727Y-59411021D01*
X142655281Y-59464912D01*
X142644979Y-59428895D01*
X142708814Y-59311980D01*
X142837103Y-59146073D01*
X142885098Y-59088839D01*
X142911629Y-59036715D01*
X142837104Y-59056847D01*
X142827875Y-59060835D01*
X142703057Y-59157030D01*
X142565204Y-59313671D01*
X142557140Y-59324455D01*
X142405714Y-59469680D01*
X142256831Y-59487071D01*
X142167838Y-59449568D01*
X142105848Y-59374035D01*
X142119328Y-59343306D01*
X142211105Y-59340873D01*
X142266819Y-59346983D01*
X142357559Y-59273908D01*
X142432147Y-59181285D01*
X142586512Y-59081003D01*
X142650287Y-59047653D01*
X142760953Y-58930188D01*
X142756141Y-58913206D01*
X142940496Y-58913206D01*
X142989138Y-58890248D01*
X143106236Y-58778142D01*
X143261162Y-58600911D01*
X143397890Y-58448461D01*
X143518852Y-58347067D01*
X143576729Y-58344515D01*
X143577894Y-58347787D01*
X143645415Y-58371567D01*
X143784900Y-58269093D01*
X143799229Y-58255815D01*
X143920953Y-58168988D01*
X143962573Y-58202339D01*
X143963350Y-58213319D01*
X144016846Y-58228615D01*
X144148246Y-58128070D01*
X144172650Y-58105774D01*
X144290084Y-58025084D01*
X144333918Y-58049949D01*
X144355221Y-58094236D01*
X144434084Y-58065176D01*
X144541359Y-57958541D01*
X144645129Y-57799968D01*
X144648566Y-57793326D01*
X144684013Y-57710202D01*
X144659787Y-57717340D01*
X144652147Y-57719591D01*
X144646092Y-57721375D01*
X144517778Y-57830994D01*
X144511367Y-57836721D01*
X144384286Y-57943582D01*
X144342141Y-57952396D01*
X144363906Y-57868254D01*
X144378279Y-57797802D01*
X144374377Y-57799160D01*
X144326546Y-57815806D01*
X144190126Y-57937851D01*
X144127044Y-57995016D01*
X144007395Y-58075399D01*
X143962573Y-58054750D01*
X143961870Y-58043873D01*
X143909195Y-58026695D01*
X143776901Y-58128070D01*
X143752496Y-58150366D01*
X143635062Y-58231056D01*
X143591228Y-58206191D01*
X143582421Y-58167168D01*
X143508082Y-58180593D01*
X143358421Y-58321163D01*
X143241785Y-58460030D01*
X143133855Y-58588532D01*
X143055117Y-58693189D01*
X142961709Y-58840263D01*
X142940496Y-58913206D01*
X142756141Y-58913206D01*
X142727433Y-58811902D01*
X142551462Y-58711093D01*
X142471819Y-58677069D01*
X142813933Y-58677069D01*
X142827934Y-58722222D01*
X142863979Y-58714104D01*
X142967087Y-58640544D01*
X143048006Y-58536745D01*
X143056717Y-58460030D01*
X142995889Y-58475871D01*
X142918019Y-58544915D01*
X142886085Y-58573229D01*
X142813933Y-58677069D01*
X142471819Y-58677069D01*
X142409707Y-58650534D01*
X142341747Y-58573684D01*
X142625731Y-58573684D01*
X142626583Y-58590492D01*
X142658482Y-58647953D01*
X142670396Y-58644536D01*
X142737135Y-58573684D01*
X142748739Y-58544915D01*
X142704383Y-58499415D01*
X142682826Y-58502269D01*
X142625731Y-58573684D01*
X142341747Y-58573684D01*
X142341480Y-58573382D01*
X142419268Y-58499247D01*
X142644298Y-58424342D01*
X142737112Y-58400457D01*
X142963010Y-58338359D01*
X143085425Y-58291315D01*
X143135809Y-58244086D01*
X143145614Y-58181431D01*
X143142809Y-58167230D01*
X143308556Y-58167230D01*
X143323135Y-58170667D01*
X143405740Y-58108878D01*
X143419289Y-58091846D01*
X143604517Y-58091846D01*
X143666526Y-58076698D01*
X143776901Y-57979532D01*
X143818802Y-57922483D01*
X143966431Y-57922483D01*
X144012916Y-57945876D01*
X144109622Y-57869923D01*
X144154526Y-57799160D01*
X144124588Y-57756725D01*
X144097686Y-57760643D01*
X144054336Y-57792949D01*
X143996654Y-57835935D01*
X143966431Y-57922483D01*
X143818802Y-57922483D01*
X143859011Y-57867739D01*
X143875015Y-57792949D01*
X143813006Y-57808097D01*
X143702632Y-57905263D01*
X143620521Y-58017056D01*
X143604517Y-58091846D01*
X143419289Y-58091846D01*
X143520006Y-57965241D01*
X143687795Y-57719591D01*
X143476345Y-57921580D01*
X143432102Y-57965825D01*
X143328612Y-58094279D01*
X143308556Y-58167230D01*
X143142809Y-58167230D01*
X143140376Y-58154908D01*
X143063085Y-58024941D01*
X142982072Y-57934379D01*
X143185278Y-57934379D01*
X143199279Y-57979532D01*
X143235324Y-57971414D01*
X143338432Y-57897854D01*
X143419351Y-57794055D01*
X143428062Y-57717340D01*
X143367234Y-57733181D01*
X143340680Y-57756725D01*
X143257430Y-57830539D01*
X143185278Y-57934379D01*
X142982072Y-57934379D01*
X142922807Y-57868129D01*
X142881885Y-57827380D01*
X142832825Y-57756725D01*
X142997076Y-57756725D01*
X142999234Y-57774477D01*
X143071345Y-57830994D01*
X143089097Y-57828836D01*
X143145614Y-57756725D01*
X143143456Y-57738973D01*
X143071345Y-57682456D01*
X143053593Y-57684614D01*
X142997076Y-57756725D01*
X142832825Y-57756725D01*
X142740620Y-57623935D01*
X142733469Y-57581013D01*
X142861675Y-57581013D01*
X142922807Y-57608187D01*
X142962125Y-57602827D01*
X142971453Y-57562431D01*
X143787433Y-57562431D01*
X143798600Y-57585681D01*
X143925439Y-57593708D01*
X143948502Y-57593219D01*
X144047148Y-57580360D01*
X144016861Y-57556719D01*
X143941492Y-57544779D01*
X143802052Y-57558674D01*
X143794054Y-57559471D01*
X143787433Y-57562431D01*
X142971453Y-57562431D01*
X142972320Y-57558674D01*
X142961434Y-57549786D01*
X142873294Y-57558674D01*
X142861675Y-57581013D01*
X142733469Y-57581013D01*
X142701652Y-57390052D01*
X142703303Y-57125438D01*
X142831622Y-57291080D01*
X142856674Y-57320593D01*
X143079306Y-57464194D01*
X143369179Y-57516625D01*
X143675516Y-57467285D01*
X143811022Y-57430581D01*
X143998647Y-57433161D01*
X144239654Y-57507277D01*
X144359128Y-57549185D01*
X144530420Y-57580360D01*
X144590777Y-57591345D01*
X144805369Y-57556798D01*
X144997401Y-57522290D01*
X145222610Y-57547515D01*
X145357712Y-57587195D01*
X145468428Y-57586427D01*
X145462435Y-57530543D01*
X145324648Y-57436026D01*
X145251872Y-57400703D01*
X145061084Y-57353189D01*
X144855446Y-57395935D01*
X144737285Y-57429174D01*
X144556047Y-57427836D01*
X144332084Y-57347418D01*
X144221779Y-57301784D01*
X143998806Y-57255367D01*
X143757431Y-57289696D01*
X143459881Y-57325641D01*
X143217974Y-57247541D01*
X142999957Y-57038790D01*
X142988327Y-57023942D01*
X142926305Y-56933560D01*
X142884631Y-56832717D01*
X142860267Y-56693817D01*
X142850177Y-56489262D01*
X142851326Y-56191453D01*
X142860677Y-55772794D01*
X142864030Y-55649176D01*
X142881675Y-55212567D01*
X142908575Y-54904375D01*
X142949664Y-54708348D01*
X143009876Y-54608235D01*
X143094144Y-54587785D01*
X143207402Y-54630747D01*
X143322982Y-54673946D01*
X143409151Y-54631610D01*
X143485627Y-54590064D01*
X143645859Y-54598047D01*
X143701740Y-54610748D01*
X143794342Y-54606865D01*
X143793646Y-54598800D01*
X144275517Y-54598800D01*
X144284406Y-54686939D01*
X144306744Y-54698559D01*
X144333918Y-54637427D01*
X144328558Y-54598109D01*
X144284406Y-54587914D01*
X144275517Y-54598800D01*
X143793646Y-54598800D01*
X143787414Y-54526641D01*
X143787316Y-54526023D01*
X144482456Y-54526023D01*
X144486332Y-54574748D01*
X144541057Y-54627342D01*
X144686696Y-54588240D01*
X144767207Y-54529528D01*
X144756415Y-54451339D01*
X144711092Y-54438070D01*
X144931286Y-54438070D01*
X144931667Y-54454218D01*
X144957764Y-54529528D01*
X144983118Y-54602693D01*
X145004675Y-54637427D01*
X145087210Y-54770414D01*
X145094786Y-54778019D01*
X145198854Y-54882491D01*
X145242416Y-54918917D01*
X145299415Y-55049597D01*
X145312312Y-55099751D01*
X145410819Y-55157310D01*
X145467896Y-55174908D01*
X145522222Y-55281092D01*
X145530049Y-55340249D01*
X145571091Y-55356005D01*
X145611332Y-55342742D01*
X145719629Y-55389855D01*
X145730575Y-55398693D01*
X145800869Y-55421163D01*
X145819298Y-55314942D01*
X145834419Y-55219893D01*
X145893567Y-55157310D01*
X145911320Y-55155152D01*
X145967836Y-55083041D01*
X145932975Y-55037320D01*
X145804445Y-55008772D01*
X145782376Y-55008543D01*
X145691854Y-54987610D01*
X145730176Y-54919649D01*
X145797249Y-54837907D01*
X145795346Y-54746683D01*
X145652193Y-54698294D01*
X145545900Y-54660280D01*
X145506911Y-54544591D01*
X145502127Y-54472801D01*
X145420149Y-54414620D01*
X145348022Y-54408143D01*
X145175519Y-54366028D01*
X145116375Y-54353320D01*
X145123707Y-54399994D01*
X145234099Y-54533133D01*
X145244240Y-54544472D01*
X145415700Y-54758365D01*
X145560206Y-54971637D01*
X145579268Y-55006226D01*
X145578901Y-55042142D01*
X145488851Y-54967726D01*
X145313094Y-54785965D01*
X145272960Y-54743022D01*
X145100423Y-54567578D01*
X144978442Y-54458555D01*
X144931286Y-54438070D01*
X144711092Y-54438070D01*
X144630994Y-54414620D01*
X144544374Y-54435297D01*
X144482456Y-54526023D01*
X143787316Y-54526023D01*
X143776539Y-54458388D01*
X143841926Y-54435452D01*
X144019395Y-54460249D01*
X144029193Y-54462077D01*
X144196820Y-54486928D01*
X144246056Y-54468327D01*
X144201951Y-54397687D01*
X144167196Y-54350299D01*
X144170431Y-54282755D01*
X144299722Y-54234846D01*
X144315535Y-54227253D01*
X144593860Y-54227253D01*
X144816667Y-54069424D01*
X144947350Y-53992042D01*
X145158846Y-53896028D01*
X145378188Y-53817409D01*
X145558480Y-53772541D01*
X145652828Y-53777779D01*
X145633746Y-53798525D01*
X145511304Y-53855249D01*
X145309942Y-53928375D01*
X145174495Y-53978082D01*
X144971196Y-54072282D01*
X144854985Y-54153253D01*
X144849217Y-54160380D01*
X144829154Y-54218424D01*
X144907641Y-54242782D01*
X145109209Y-54242019D01*
X145212953Y-54234879D01*
X145381442Y-54205085D01*
X145447952Y-54163962D01*
X145448282Y-54160521D01*
X145518909Y-54131109D01*
X145675475Y-54144481D01*
X145800571Y-54164313D01*
X145870877Y-54142164D01*
X145857578Y-54046884D01*
X145852605Y-53937300D01*
X145964267Y-53822378D01*
X146016499Y-53791237D01*
X146108546Y-53694892D01*
X146078273Y-53634404D01*
X145931394Y-53641258D01*
X145780598Y-53649433D01*
X145696642Y-53557984D01*
X145672412Y-53500069D01*
X145627007Y-53471597D01*
X145547134Y-53564682D01*
X145452456Y-53652271D01*
X145362075Y-53615759D01*
X145317894Y-53590479D01*
X145173227Y-53621769D01*
X145016486Y-53741126D01*
X144980781Y-53768315D01*
X144756555Y-54019451D01*
X144593860Y-54227253D01*
X144315535Y-54227253D01*
X144426161Y-54174135D01*
X144474723Y-54069182D01*
X144409303Y-53974338D01*
X144239042Y-53934799D01*
X144101657Y-53913105D01*
X144088317Y-53898463D01*
X144521894Y-53898463D01*
X144549083Y-53933662D01*
X144648858Y-53959399D01*
X144734452Y-53851528D01*
X144771305Y-53741126D01*
X144750045Y-53694820D01*
X144628914Y-53747312D01*
X144543440Y-53814426D01*
X144521894Y-53898463D01*
X144088317Y-53898463D01*
X144036842Y-53841963D01*
X144019780Y-53769922D01*
X143931362Y-53761038D01*
X143756292Y-53861814D01*
X143671219Y-53918471D01*
X143604653Y-53935910D01*
X143591228Y-53861814D01*
X143582166Y-53806640D01*
X143516959Y-53746199D01*
X143482793Y-53758767D01*
X143442690Y-53857602D01*
X143434311Y-53908851D01*
X143368421Y-53969006D01*
X143348065Y-53965983D01*
X143294152Y-53890354D01*
X143290145Y-53866157D01*
X143226856Y-53853293D01*
X143195042Y-53905229D01*
X143198383Y-54043349D01*
X143205450Y-54133077D01*
X143152684Y-54191813D01*
X143072552Y-54241889D01*
X142982602Y-54379593D01*
X142904630Y-54499340D01*
X142841317Y-54477205D01*
X142775698Y-54426549D01*
X142666731Y-54485681D01*
X142588012Y-54535719D01*
X142505096Y-54541548D01*
X142487636Y-54462264D01*
X142566376Y-54378070D01*
X142706714Y-54340351D01*
X142794976Y-54321608D01*
X142895949Y-54228947D01*
X142928395Y-54177610D01*
X143051250Y-54117544D01*
X143069963Y-54117229D01*
X143124803Y-54091861D01*
X143066647Y-54000480D01*
X143059874Y-53992232D01*
X143008225Y-53890470D01*
X143076121Y-53815945D01*
X143133239Y-53783887D01*
X143238450Y-53747336D01*
X143239934Y-53747297D01*
X143297623Y-53706922D01*
X143268222Y-53635665D01*
X143177744Y-53597661D01*
X143105503Y-53572351D01*
X143105659Y-53553996D01*
X143562517Y-53553996D01*
X143584048Y-53591345D01*
X143728718Y-53556477D01*
X143999708Y-53449123D01*
X144240807Y-53352898D01*
X144393490Y-53308050D01*
X144419817Y-53324182D01*
X144314931Y-53396616D01*
X144073977Y-53520675D01*
X144066491Y-53524254D01*
X143854116Y-53630684D01*
X143718589Y-53708050D01*
X143688947Y-53739825D01*
X143757327Y-53726838D01*
X143901160Y-53665049D01*
X144018780Y-53622107D01*
X144133938Y-53665049D01*
X144237432Y-53729862D01*
X144354981Y-53738253D01*
X144408187Y-53671930D01*
X144458474Y-53622131D01*
X144601806Y-53597661D01*
X144609224Y-53597632D01*
X144742804Y-53571680D01*
X144753135Y-53490520D01*
X144952827Y-53490520D01*
X144952990Y-53500100D01*
X144991310Y-53590360D01*
X145065362Y-53569788D01*
X145129358Y-53449123D01*
X145157714Y-53366529D01*
X145235302Y-53306576D01*
X145355683Y-53386560D01*
X145437107Y-53433238D01*
X145556209Y-53377466D01*
X145639714Y-53289248D01*
X145659617Y-53190895D01*
X145559357Y-53152047D01*
X145508108Y-53160426D01*
X145447953Y-53226316D01*
X145445795Y-53244068D01*
X145373684Y-53300585D01*
X145326841Y-53263973D01*
X145296744Y-53133479D01*
X145296133Y-53103045D01*
X145284049Y-53021996D01*
X145235891Y-53043693D01*
X145123450Y-53174877D01*
X145105522Y-53197377D01*
X145084146Y-53230346D01*
X144997112Y-53364583D01*
X144952827Y-53490520D01*
X144753135Y-53490520D01*
X144753428Y-53488221D01*
X144751805Y-53413786D01*
X144838319Y-53307174D01*
X144840468Y-53305957D01*
X144921922Y-53230346D01*
X144870515Y-53139965D01*
X144868674Y-53138116D01*
X144764502Y-53081928D01*
X144629141Y-53135969D01*
X144590617Y-53159177D01*
X144503139Y-53186902D01*
X144482456Y-53112928D01*
X144482326Y-53103178D01*
X144450624Y-53036920D01*
X144339298Y-53074898D01*
X144236390Y-53110590D01*
X144079357Y-53106700D01*
X144017011Y-53095558D01*
X143962573Y-53144101D01*
X143949937Y-53182017D01*
X143851170Y-53226316D01*
X143800000Y-53234071D01*
X143739766Y-53295280D01*
X143716802Y-53359201D01*
X143623058Y-53480952D01*
X143562517Y-53553996D01*
X143105659Y-53553996D01*
X143106496Y-53455373D01*
X143113758Y-53427032D01*
X143102165Y-53305413D01*
X143037683Y-53250569D01*
X142958823Y-53302394D01*
X142905422Y-53339093D01*
X142768019Y-53335735D01*
X142656414Y-53332627D01*
X142625731Y-53444118D01*
X142606846Y-53535456D01*
X142530109Y-53597661D01*
X142519376Y-53598878D01*
X142453351Y-53685763D01*
X142430797Y-53839236D01*
X142422641Y-53894737D01*
X142420710Y-53961393D01*
X142424057Y-54125945D01*
X142439242Y-54191813D01*
X142455862Y-54177651D01*
X142529865Y-54071219D01*
X142634655Y-53894737D01*
X142687323Y-53806412D01*
X142795239Y-53656806D01*
X142868271Y-53597661D01*
X142878405Y-53630734D01*
X142831602Y-53752632D01*
X142736446Y-53928602D01*
X142613974Y-54120595D01*
X142485219Y-54290561D01*
X142425223Y-54344369D01*
X142226144Y-54391502D01*
X141967301Y-54311546D01*
X141657577Y-54106478D01*
X141644326Y-54095945D01*
X141375867Y-53929877D01*
X141140415Y-53869980D01*
X141037002Y-53876387D01*
X140894176Y-53914079D01*
X140838298Y-53969185D01*
X140899439Y-54022651D01*
X140934842Y-54043070D01*
X140950758Y-54123887D01*
X140941144Y-54147240D01*
X140987430Y-54191813D01*
X141025253Y-54206251D01*
X141030489Y-54219327D01*
X141066082Y-54308221D01*
X141094161Y-54382678D01*
X141214620Y-54377485D01*
X141306465Y-54363719D01*
X141363158Y-54418277D01*
X141382576Y-54461160D01*
X141501895Y-54464684D01*
X141736190Y-54384443D01*
X141846100Y-54398695D01*
X141953480Y-54526023D01*
X141977564Y-54554581D01*
X141986882Y-54570885D01*
X142036755Y-54689091D01*
X142070947Y-54849230D01*
X142092098Y-55077929D01*
X142102851Y-55401819D01*
X142105848Y-55847529D01*
X142105097Y-56129894D01*
X142099428Y-56482989D01*
X142085719Y-56729852D01*
X142061066Y-56896617D01*
X142022566Y-57009419D01*
X141967314Y-57094393D01*
X141916330Y-57153597D01*
X141821271Y-57220560D01*
X141688949Y-57230126D01*
X141465998Y-57192767D01*
X141220553Y-57157444D01*
X141017178Y-57178222D01*
X140786771Y-57267909D01*
X140760181Y-57280235D01*
X140547012Y-57361847D01*
X140366771Y-57374523D01*
X140134123Y-57325838D01*
X139917267Y-57278723D01*
X139745618Y-57283496D01*
X139575727Y-57350818D01*
X139561412Y-57358024D01*
X139385608Y-57418400D01*
X139262877Y-57415088D01*
X139232729Y-57413819D01*
X139290166Y-57490209D01*
X139337676Y-57535943D01*
X139447179Y-57576959D01*
X139606673Y-57525491D01*
X139626035Y-57517036D01*
X139844731Y-57472170D01*
X140127996Y-57508877D01*
X140139328Y-57511436D01*
X140456361Y-57543783D01*
X140776986Y-57481463D01*
X140978673Y-57430783D01*
X141210151Y-57420866D01*
X141495278Y-57469432D01*
X141660040Y-57504561D01*
X141835785Y-57522327D01*
X141964580Y-57489021D01*
X142104990Y-57397758D01*
X142233568Y-57305754D01*
X142347129Y-57249960D01*
X142393844Y-57295343D01*
X142402924Y-57446703D01*
X142421046Y-57529535D01*
X142440484Y-57618382D01*
X142588597Y-57830994D01*
X142691339Y-57943980D01*
X142719155Y-57974570D01*
X142753607Y-58090936D01*
X142757682Y-58104700D01*
X142660597Y-58204950D01*
X142421491Y-58293049D01*
X142244914Y-58351254D01*
X142099450Y-58439836D01*
X142044997Y-58557187D01*
X142068085Y-58698529D01*
X142212102Y-58794533D01*
X142339933Y-58868859D01*
X142364512Y-58908480D01*
X142397562Y-58961758D01*
X142385312Y-58999779D01*
X142303040Y-59109926D01*
X142174723Y-59234584D01*
X142037314Y-59343077D01*
X141927768Y-59404729D01*
X141883041Y-59388864D01*
X141860987Y-59336292D01*
X141771638Y-59390643D01*
X141693841Y-59443414D01*
X141665000Y-59421549D01*
X141717216Y-59309629D01*
X141738702Y-59278654D01*
X141894834Y-59278654D01*
X141900218Y-59281689D01*
X141980337Y-59244633D01*
X142105848Y-59130702D01*
X142125128Y-59109696D01*
X142222660Y-58980893D01*
X142242594Y-58908480D01*
X142237209Y-58905445D01*
X142157090Y-58942501D01*
X142031579Y-59056433D01*
X142012300Y-59077438D01*
X141914767Y-59206241D01*
X141894834Y-59278654D01*
X141738702Y-59278654D01*
X141845907Y-59124100D01*
X141964729Y-58956634D01*
X142024069Y-58841250D01*
X141997497Y-58821175D01*
X141883041Y-58907895D01*
X141779492Y-58978429D01*
X141734503Y-58960923D01*
X141737182Y-58937638D01*
X141808772Y-58833626D01*
X141828717Y-58818464D01*
X141883041Y-58710812D01*
X141855701Y-58710059D01*
X141758867Y-58796040D01*
X141616180Y-58956570D01*
X141494091Y-59103649D01*
X141344742Y-59278989D01*
X141260425Y-59366677D01*
X141223097Y-59384388D01*
X141214711Y-59349795D01*
X141227922Y-59316590D01*
X141314869Y-59182777D01*
X141465145Y-58980004D01*
X141657704Y-58737368D01*
X141811984Y-58546852D01*
X142028654Y-58271668D01*
X142080622Y-58202339D01*
X142281797Y-58202339D01*
X142300929Y-58196053D01*
X142379388Y-58120729D01*
X142399314Y-58090936D01*
X142551462Y-58090936D01*
X142588597Y-58128070D01*
X142625731Y-58090936D01*
X142588597Y-58053801D01*
X142551462Y-58090936D01*
X142399314Y-58090936D01*
X142450835Y-58013903D01*
X142466398Y-57943980D01*
X142425369Y-57956902D01*
X142343782Y-58057179D01*
X142292678Y-58149579D01*
X142281797Y-58202339D01*
X142080622Y-58202339D01*
X142185135Y-58062910D01*
X142274940Y-57930517D01*
X142291585Y-57884429D01*
X142228584Y-57934589D01*
X142079451Y-58090936D01*
X141903454Y-58271173D01*
X141780081Y-58370914D01*
X141741948Y-58367030D01*
X141798401Y-58262036D01*
X141958789Y-58058451D01*
X142022384Y-57980091D01*
X142117739Y-57837780D01*
X142137405Y-57763525D01*
X142117606Y-57754437D01*
X142046108Y-57804098D01*
X141960868Y-57923408D01*
X141808952Y-58118292D01*
X141618761Y-58352519D01*
X141412162Y-58600221D01*
X141211024Y-58835527D01*
X141037215Y-59032567D01*
X140912603Y-59165473D01*
X140859055Y-59208373D01*
X140862087Y-59187884D01*
X140928453Y-59074134D01*
X141058538Y-58887138D01*
X141231439Y-58654649D01*
X141426254Y-58404418D01*
X141622080Y-58164197D01*
X141798014Y-57961740D01*
X141829080Y-57926452D01*
X141925137Y-57792651D01*
X141943487Y-57718146D01*
X141921757Y-57723763D01*
X141822400Y-57811546D01*
X141666081Y-57980742D01*
X141475296Y-58207822D01*
X141418271Y-58277546D01*
X141208714Y-58514217D01*
X141064498Y-58641040D01*
X140993535Y-58650740D01*
X140972763Y-58633141D01*
X140872797Y-58675259D01*
X140712289Y-58847278D01*
X140630086Y-58943916D01*
X140509212Y-59061765D01*
X140444361Y-59090538D01*
X140457353Y-59037077D01*
X140546705Y-58901010D01*
X140694730Y-58719193D01*
X140831005Y-58576287D01*
X140944041Y-58485713D01*
X140988646Y-58489942D01*
X141004203Y-58541809D01*
X141080422Y-58516321D01*
X141221326Y-58361429D01*
X141428410Y-58075722D01*
X141672198Y-57719591D01*
X141634585Y-57760834D01*
X141333533Y-58090936D01*
X141328255Y-58096711D01*
X141156398Y-58269335D01*
X141036947Y-58359387D01*
X140990977Y-58350877D01*
X140988696Y-58341555D01*
X140926396Y-58358021D01*
X140796032Y-58466265D01*
X140620468Y-58647953D01*
X140583715Y-58688481D01*
X140415774Y-58861680D01*
X140297123Y-58964234D01*
X140251487Y-58975107D01*
X140287387Y-58887351D01*
X140397661Y-58759357D01*
X140495461Y-58649843D01*
X140544022Y-58543606D01*
X140532649Y-58530343D01*
X140452835Y-58576523D01*
X140322262Y-58703655D01*
X140249916Y-58781378D01*
X140110704Y-58913846D01*
X140062612Y-58930836D01*
X140110143Y-58837001D01*
X140257798Y-58637000D01*
X140358646Y-58520283D01*
X140474713Y-58420183D01*
X140531980Y-58419624D01*
X140554731Y-58439700D01*
X140647783Y-58410271D01*
X140768460Y-58320174D01*
X140836790Y-58245176D01*
X141009894Y-58245176D01*
X141029040Y-58244052D01*
X141118377Y-58168487D01*
X141245177Y-58018688D01*
X141303377Y-57938837D01*
X141381540Y-57809885D01*
X141385505Y-57760834D01*
X141372871Y-57764753D01*
X141327750Y-57801784D01*
X141278164Y-57842480D01*
X141150221Y-57987322D01*
X141117671Y-58029941D01*
X141028143Y-58170690D01*
X141009894Y-58245176D01*
X140836790Y-58245176D01*
X140872975Y-58205460D01*
X140917544Y-58102178D01*
X140915517Y-58093134D01*
X140853503Y-58106342D01*
X140731871Y-58202339D01*
X140710165Y-58222312D01*
X140588647Y-58307614D01*
X140546199Y-58276608D01*
X140545422Y-58265628D01*
X140491926Y-58250332D01*
X140360526Y-58350877D01*
X140337917Y-58371633D01*
X140217847Y-58455297D01*
X140174854Y-58426581D01*
X140174713Y-58419882D01*
X140137789Y-58382881D01*
X140026316Y-58462281D01*
X139927823Y-58570208D01*
X139877778Y-58670975D01*
X139919856Y-58684558D01*
X140026316Y-58610819D01*
X140129643Y-58538348D01*
X140174854Y-58550663D01*
X140137268Y-58633923D01*
X140026316Y-58759357D01*
X139922703Y-58829329D01*
X139877778Y-58810333D01*
X139856172Y-58770309D01*
X139747807Y-58775593D01*
X139700817Y-58792381D01*
X139665028Y-58794915D01*
X139675967Y-58755723D01*
X139745175Y-58656260D01*
X139884193Y-58477980D01*
X140010599Y-58319870D01*
X140193360Y-58319870D01*
X140225624Y-58311635D01*
X140328868Y-58219524D01*
X140375701Y-58165367D01*
X140558740Y-58165367D01*
X140622001Y-58150113D01*
X140733048Y-58052501D01*
X140838758Y-57965960D01*
X140917544Y-57979532D01*
X140982173Y-57998778D01*
X141101628Y-57907018D01*
X141173443Y-57801784D01*
X141156245Y-57756725D01*
X141126313Y-57761413D01*
X141068950Y-57804890D01*
X141024047Y-57838923D01*
X140986466Y-57880429D01*
X140921953Y-57838128D01*
X140921333Y-57837143D01*
X140838552Y-57823858D01*
X140695759Y-57941310D01*
X140675624Y-57963275D01*
X140578250Y-58092495D01*
X140558740Y-58165367D01*
X140375701Y-58165367D01*
X140469217Y-58057226D01*
X140554377Y-57944517D01*
X140639230Y-57804890D01*
X140629517Y-57769381D01*
X140535994Y-57841495D01*
X140369418Y-58024731D01*
X140307559Y-58102915D01*
X140213353Y-58246036D01*
X140193360Y-58319870D01*
X140010599Y-58319870D01*
X140104562Y-58202339D01*
X140192556Y-58091569D01*
X140368415Y-57858913D01*
X140451659Y-57725228D01*
X140447605Y-57682456D01*
X140429240Y-57695820D01*
X140333578Y-57796656D01*
X140326421Y-57804890D01*
X140178717Y-57974821D01*
X139987403Y-58204513D01*
X139887991Y-58323782D01*
X139711997Y-58522748D01*
X139582737Y-58652416D01*
X139522871Y-58689147D01*
X139537967Y-58631312D01*
X139626154Y-58488394D01*
X139769169Y-58297061D01*
X139839879Y-58208315D01*
X140020883Y-57975331D01*
X140105062Y-57854724D01*
X140092429Y-57846298D01*
X139982994Y-57949857D01*
X139776768Y-58165205D01*
X139696803Y-58248811D01*
X139532488Y-58408337D01*
X139428139Y-58490963D01*
X139403534Y-58480006D01*
X139406012Y-58472702D01*
X139410861Y-58385758D01*
X139314285Y-58400773D01*
X139244199Y-58414846D01*
X139257610Y-58357919D01*
X139284094Y-58319870D01*
X139450669Y-58319870D01*
X139482934Y-58311635D01*
X139586178Y-58219524D01*
X139726527Y-58057226D01*
X139811687Y-57944517D01*
X139896540Y-57804890D01*
X139886827Y-57769381D01*
X139793304Y-57841495D01*
X139626728Y-58024731D01*
X139564868Y-58102915D01*
X139470663Y-58246036D01*
X139450669Y-58319870D01*
X139284094Y-58319870D01*
X139361718Y-58208352D01*
X139526719Y-57982159D01*
X139627172Y-57829847D01*
X139632990Y-57791282D01*
X139544171Y-57866067D01*
X139360711Y-58053801D01*
X139193421Y-58226148D01*
X139071789Y-58336294D01*
X139044800Y-58331967D01*
X139112346Y-58213077D01*
X139274322Y-57979532D01*
X139461215Y-57719591D01*
X139373697Y-57801878D01*
X139145255Y-58016667D01*
X139002086Y-58141271D01*
X138899476Y-58207369D01*
X138879058Y-58182930D01*
X138880435Y-58179282D01*
X138891407Y-58088981D01*
X138799904Y-58101586D01*
X138797859Y-58102369D01*
X138720341Y-58123092D01*
X138723066Y-58076800D01*
X138764391Y-58007381D01*
X138919028Y-58007381D01*
X138979754Y-58004808D01*
X139097541Y-57905718D01*
X139169693Y-57801878D01*
X139155692Y-57756725D01*
X139098408Y-57775250D01*
X138985060Y-57869923D01*
X138945568Y-57923048D01*
X138919028Y-58007381D01*
X138764391Y-58007381D01*
X138807287Y-57935323D01*
X138832185Y-57895884D01*
X138902425Y-57778847D01*
X138889985Y-57768585D01*
X138792114Y-57849561D01*
X138721338Y-57905888D01*
X138605852Y-57971628D01*
X138564103Y-57957413D01*
X138620684Y-57861526D01*
X138638693Y-57839441D01*
X138679613Y-57765073D01*
X138611211Y-57758922D01*
X138480680Y-57769796D01*
X138309451Y-57748420D01*
X138243860Y-57682456D01*
X138306006Y-57645579D01*
X138483372Y-57618398D01*
X138741462Y-57608187D01*
X138881169Y-57607053D01*
X139083632Y-57595341D01*
X139126276Y-57581013D01*
X139816646Y-57581013D01*
X139877778Y-57608187D01*
X139917096Y-57602827D01*
X139925450Y-57566649D01*
X140985182Y-57566649D01*
X141024634Y-57583479D01*
X141177485Y-57589458D01*
X141258485Y-57587531D01*
X141346215Y-57575436D01*
X142105848Y-57575436D01*
X142107779Y-57582848D01*
X142180117Y-57608187D01*
X142200473Y-57605165D01*
X142254386Y-57529535D01*
X142248555Y-57502672D01*
X142180117Y-57496784D01*
X142157891Y-57512027D01*
X142106022Y-57575224D01*
X142105848Y-57575436D01*
X141346215Y-57575436D01*
X141347753Y-57575224D01*
X141306590Y-57555659D01*
X141187866Y-57543325D01*
X141009514Y-57557158D01*
X141005627Y-57558674D01*
X140985182Y-57566649D01*
X139925450Y-57566649D01*
X139927291Y-57558674D01*
X139916405Y-57549786D01*
X139828265Y-57558674D01*
X139816646Y-57581013D01*
X139126276Y-57581013D01*
X139166666Y-57567442D01*
X139149942Y-57519064D01*
X139068807Y-57398188D01*
X139100996Y-57294888D01*
X139265059Y-57251717D01*
X139272226Y-57251468D01*
X139494022Y-57232296D01*
X139739352Y-57196785D01*
X139960825Y-57184613D01*
X140176445Y-57237693D01*
X140199940Y-57249650D01*
X140323857Y-57282564D01*
X140475387Y-57254526D01*
X140704521Y-57157990D01*
X140778227Y-57124161D01*
X140994729Y-57044145D01*
X141178506Y-57028132D01*
X141404098Y-57066359D01*
X141439836Y-57074377D01*
X141632753Y-57104884D01*
X141769352Y-57084657D01*
X141861585Y-56994143D01*
X141921408Y-56813789D01*
X141960774Y-56524043D01*
X141991637Y-56105352D01*
X142011639Y-55687516D01*
X142010647Y-55255944D01*
X141977036Y-54945857D01*
X141909070Y-54743574D01*
X141805012Y-54635414D01*
X141718178Y-54593820D01*
X141587364Y-54576640D01*
X141479956Y-54661513D01*
X141359486Y-54867431D01*
X141339798Y-54905297D01*
X141229938Y-55083297D01*
X141169871Y-55126582D01*
X141171257Y-55039400D01*
X141245757Y-54825998D01*
X141267572Y-54773374D01*
X141319907Y-54627497D01*
X141308557Y-54574367D01*
X141231540Y-54579641D01*
X141154427Y-54623145D01*
X141121351Y-54772939D01*
X141110063Y-54882365D01*
X141026301Y-54982930D01*
X140969082Y-55025753D01*
X140955486Y-55159855D01*
X140964935Y-55241055D01*
X140913995Y-55345175D01*
X140894438Y-55402733D01*
X141003811Y-55487995D01*
X141160143Y-55546047D01*
X141260959Y-55522800D01*
X141259149Y-55409739D01*
X141257286Y-55345110D01*
X141358536Y-55305848D01*
X141361917Y-55305835D01*
X141459498Y-55270617D01*
X141455671Y-55144783D01*
X141449711Y-55120760D01*
X141449580Y-55023048D01*
X141534377Y-55030083D01*
X141586768Y-55044508D01*
X141628891Y-55006013D01*
X141611300Y-54856937D01*
X141610183Y-54851243D01*
X141599570Y-54700082D01*
X141632383Y-54637576D01*
X141640944Y-54639774D01*
X141687274Y-54725586D01*
X141715891Y-54897517D01*
X141717721Y-54932831D01*
X141704499Y-55092448D01*
X141660189Y-55157310D01*
X141617049Y-55185163D01*
X141585965Y-55305848D01*
X141570050Y-55392285D01*
X141501316Y-55454386D01*
X141448155Y-55468321D01*
X141334211Y-55558670D01*
X141235934Y-55620421D01*
X141011270Y-55624640D01*
X140950676Y-55614400D01*
X140829723Y-55573179D01*
X140788896Y-55480822D01*
X140797546Y-55289226D01*
X140804501Y-55231582D01*
X140855000Y-55038161D01*
X140926628Y-54928274D01*
X140958844Y-54903280D01*
X140961282Y-54834888D01*
X140843275Y-54732357D01*
X140676595Y-54631372D01*
X140550401Y-54612937D01*
X140509064Y-54711696D01*
X140539423Y-54780691D01*
X140680484Y-54804643D01*
X140783122Y-54809692D01*
X140806072Y-54860345D01*
X140718506Y-54921347D01*
X140557781Y-54921734D01*
X140407515Y-54841667D01*
X140395120Y-54829912D01*
X140306666Y-54796527D01*
X140210557Y-54888116D01*
X140124738Y-54965007D01*
X139994714Y-54984037D01*
X139923846Y-54978879D01*
X139815253Y-55059418D01*
X139761704Y-55121411D01*
X139646183Y-55114124D01*
X139596076Y-55086878D01*
X139444931Y-55035148D01*
X139391565Y-55025954D01*
X139195742Y-54954309D01*
X139142229Y-54844580D01*
X139159347Y-54816736D01*
X139296785Y-54816736D01*
X139318118Y-54888133D01*
X139469298Y-54901041D01*
X139592176Y-54903688D01*
X139654971Y-54944716D01*
X139657057Y-54959772D01*
X139729240Y-55008772D01*
X139751918Y-55004794D01*
X139803509Y-54925841D01*
X139833057Y-54883455D01*
X139952047Y-54881753D01*
X140065929Y-54881585D01*
X140100585Y-54774007D01*
X140100586Y-54773101D01*
X140132179Y-54668262D01*
X140249123Y-54674561D01*
X140339556Y-54689026D01*
X140397661Y-54653277D01*
X140399004Y-54643524D01*
X140458759Y-54536326D01*
X140536993Y-54440660D01*
X140721169Y-54440660D01*
X140769006Y-54526023D01*
X140829847Y-54586615D01*
X140926638Y-54637427D01*
X140956543Y-54624927D01*
X140991813Y-54526023D01*
X140962238Y-54458968D01*
X140834181Y-54414620D01*
X140798149Y-54415231D01*
X140721169Y-54440660D01*
X140536993Y-54440660D01*
X140579787Y-54388330D01*
X140640858Y-54317592D01*
X140692417Y-54219327D01*
X140634046Y-54203191D01*
X140474854Y-54268513D01*
X140223950Y-54414620D01*
X140075919Y-54506046D01*
X139910781Y-54600719D01*
X139828970Y-54637427D01*
X139817592Y-54635868D01*
X139824976Y-54586343D01*
X139918990Y-54487939D01*
X140068863Y-54368850D01*
X140243828Y-54257273D01*
X140509064Y-54109996D01*
X140258407Y-54150904D01*
X140247480Y-54152672D01*
X140047072Y-54180376D01*
X139907960Y-54191813D01*
X139860555Y-54207297D01*
X139850920Y-54303216D01*
X139855454Y-54316302D01*
X139834739Y-54392538D01*
X139692105Y-54414620D01*
X139553743Y-54436306D01*
X139528211Y-54512786D01*
X139521396Y-54591782D01*
X139424753Y-54699088D01*
X139410071Y-54708481D01*
X139296785Y-54816736D01*
X139159347Y-54816736D01*
X139232080Y-54698433D01*
X139281737Y-54639318D01*
X139378287Y-54470322D01*
X139420918Y-54401036D01*
X139533290Y-54340351D01*
X139640487Y-54293461D01*
X139687166Y-54174855D01*
X139631989Y-54057794D01*
X139545095Y-54005171D01*
X139372374Y-53934659D01*
X139268885Y-53879758D01*
X139232712Y-53795598D01*
X139226476Y-53711631D01*
X139147086Y-53574746D01*
X139125727Y-53546691D01*
X139090381Y-53406373D01*
X139209357Y-53406373D01*
X139223516Y-53469962D01*
X139325029Y-53572441D01*
X139378507Y-53610604D01*
X139399370Y-53724533D01*
X139388757Y-53768454D01*
X139434659Y-53803599D01*
X139591925Y-53780868D01*
X139718333Y-53757928D01*
X139790616Y-53774404D01*
X139776421Y-53858203D01*
X139771187Y-53872369D01*
X139769851Y-53954612D01*
X139876674Y-53947775D01*
X139967118Y-53937902D01*
X140026316Y-53975959D01*
X140065333Y-54022252D01*
X140219950Y-54029021D01*
X140471930Y-53975961D01*
X140535491Y-53955947D01*
X140573096Y-53924202D01*
X140497841Y-53886900D01*
X140293606Y-53830932D01*
X140155162Y-53792241D01*
X139904337Y-53705917D01*
X139692830Y-53614598D01*
X139555014Y-53533991D01*
X139525262Y-53479806D01*
X139543025Y-53475558D01*
X139662651Y-53501444D01*
X139847807Y-53570024D01*
X139888585Y-53586894D01*
X140146498Y-53680981D01*
X140377305Y-53748446D01*
X140530409Y-53777620D01*
X140578381Y-53754223D01*
X140559905Y-53709064D01*
X140786406Y-53709064D01*
X141130484Y-53729877D01*
X141474562Y-53750690D01*
X141383090Y-53671930D01*
X141511696Y-53671930D01*
X141526545Y-53707944D01*
X141629289Y-53746199D01*
X141648692Y-53750690D01*
X141663956Y-53754223D01*
X141685130Y-53759124D01*
X141716470Y-53837433D01*
X141722229Y-53918181D01*
X141803117Y-54051025D01*
X141907790Y-54134545D01*
X142098419Y-54228272D01*
X142276663Y-54283162D01*
X142129164Y-54070382D01*
X142107822Y-54039420D01*
X141981925Y-53845783D01*
X141928276Y-53741521D01*
X141950657Y-53737770D01*
X142052851Y-53845666D01*
X142060615Y-53854718D01*
X142177875Y-53979225D01*
X142241199Y-53997671D01*
X142285281Y-53921351D01*
X142301006Y-53839236D01*
X142258636Y-53759994D01*
X142237838Y-53750510D01*
X142180117Y-53662635D01*
X142139038Y-53569522D01*
X142031579Y-53432013D01*
X142027109Y-53427238D01*
X141918816Y-53337362D01*
X141883041Y-53375703D01*
X141866922Y-53438159D01*
X141793918Y-53389707D01*
X141691053Y-53312802D01*
X141616049Y-53324980D01*
X141623100Y-53449123D01*
X141636451Y-53539840D01*
X141590970Y-53597661D01*
X141568868Y-53600616D01*
X141511696Y-53671930D01*
X141383090Y-53671930D01*
X141251754Y-53558846D01*
X141162537Y-53478759D01*
X141118660Y-53421575D01*
X141191170Y-53445197D01*
X141373423Y-53514581D01*
X141461409Y-53492462D01*
X141457848Y-53370653D01*
X141414437Y-53282575D01*
X141309390Y-53259556D01*
X141236220Y-53260229D01*
X141161950Y-53152353D01*
X141120346Y-53056345D01*
X141028654Y-53007176D01*
X140927586Y-53065261D01*
X140907325Y-53100196D01*
X140843034Y-53211050D01*
X140800888Y-53424994D01*
X140795185Y-53536869D01*
X140786406Y-53709064D01*
X140559905Y-53709064D01*
X140539887Y-53660136D01*
X140472615Y-53578629D01*
X140327664Y-53559170D01*
X140242797Y-53567031D01*
X140145636Y-53480106D01*
X140096954Y-53411988D01*
X140249123Y-53411988D01*
X140286257Y-53449123D01*
X140323392Y-53411988D01*
X140305372Y-53393968D01*
X140502328Y-53393968D01*
X140502986Y-53411988D01*
X140503683Y-53431086D01*
X140581539Y-53521902D01*
X140652302Y-53566806D01*
X140694737Y-53536869D01*
X140670529Y-53467322D01*
X140584789Y-53392378D01*
X140502328Y-53393968D01*
X140305372Y-53393968D01*
X140286257Y-53374854D01*
X140249123Y-53411988D01*
X140096954Y-53411988D01*
X140089604Y-53401704D01*
X139993482Y-53445554D01*
X139967237Y-53465421D01*
X139881714Y-53476001D01*
X139798628Y-53361082D01*
X139765757Y-53298223D01*
X139693199Y-53181553D01*
X139633765Y-53172085D01*
X139544955Y-53251453D01*
X139452878Y-53313191D01*
X139318611Y-53326618D01*
X139254299Y-53319918D01*
X139209357Y-53406373D01*
X139090381Y-53406373D01*
X139085748Y-53387979D01*
X139148253Y-53249266D01*
X139291482Y-53188719D01*
X139308368Y-53187228D01*
X139454572Y-53141578D01*
X139644344Y-53052357D01*
X139713871Y-53014378D01*
X139828654Y-52939052D01*
X139831661Y-52882685D01*
X139737180Y-52807612D01*
X139687965Y-52768200D01*
X139595984Y-52638832D01*
X139596356Y-52572359D01*
X139688458Y-52572359D01*
X139699619Y-52615110D01*
X139822000Y-52725910D01*
X139839269Y-52740474D01*
X139958518Y-52854279D01*
X139974256Y-52932226D01*
X139899452Y-53024274D01*
X139895221Y-53028531D01*
X139817673Y-53144385D01*
X139861156Y-53239401D01*
X139914239Y-53276908D01*
X140004360Y-53273028D01*
X140007251Y-53263450D01*
X140100585Y-53263450D01*
X140137719Y-53300585D01*
X140174854Y-53263450D01*
X140137719Y-53226316D01*
X140100585Y-53263450D01*
X140007251Y-53263450D01*
X140016559Y-53232611D01*
X139949896Y-53149146D01*
X139921555Y-53129256D01*
X139916971Y-53090538D01*
X140047214Y-53078915D01*
X140196822Y-53106332D01*
X140296534Y-53189181D01*
X140346867Y-53263450D01*
X140346903Y-53263503D01*
X140473863Y-53292252D01*
X140612655Y-53198595D01*
X140658253Y-53100196D01*
X140630943Y-52938764D01*
X140503322Y-52825909D01*
X140442271Y-52773750D01*
X140397661Y-52630111D01*
X140382957Y-52543257D01*
X140329339Y-52517085D01*
X140325312Y-52519147D01*
X140234037Y-52489443D01*
X140114410Y-52372930D01*
X140059595Y-52305880D01*
X139946639Y-52202107D01*
X139893715Y-52230214D01*
X139893534Y-52390789D01*
X139898561Y-52460427D01*
X139871845Y-52562857D01*
X139766374Y-52574643D01*
X139688458Y-52572359D01*
X139596356Y-52572359D01*
X139596595Y-52529609D01*
X139695361Y-52483626D01*
X139749603Y-52471824D01*
X139797965Y-52390789D01*
X139817195Y-52208037D01*
X139913719Y-52109401D01*
X140046611Y-52121064D01*
X140173374Y-52258053D01*
X140240936Y-52338644D01*
X140361033Y-52361751D01*
X140424855Y-52356526D01*
X140516221Y-52438359D01*
X140550250Y-52495062D01*
X140626729Y-52516890D01*
X140647028Y-52456446D01*
X140600380Y-52327121D01*
X140579690Y-52291414D01*
X140565809Y-52225612D01*
X140653356Y-52225612D01*
X140699004Y-52343061D01*
X140741735Y-52456001D01*
X140705093Y-52577246D01*
X140670235Y-52634574D01*
X140700826Y-52792079D01*
X140783124Y-52898392D01*
X140865083Y-52922473D01*
X140897592Y-52836403D01*
X140897347Y-52829563D01*
X140902582Y-52580291D01*
X140932750Y-52402748D01*
X140981469Y-52335088D01*
X140989987Y-52337510D01*
X141022410Y-52423689D01*
X141024768Y-52595029D01*
X141020758Y-52749494D01*
X141061372Y-52835771D01*
X141174988Y-52854971D01*
X141285047Y-52878367D01*
X141384677Y-53003509D01*
X141387099Y-53012233D01*
X141470733Y-53120385D01*
X141655612Y-53152047D01*
X141681729Y-53151822D01*
X141840036Y-53125001D01*
X141924773Y-53026478D01*
X141944213Y-52941227D01*
X142112105Y-52941227D01*
X142128391Y-53085820D01*
X142203427Y-53236942D01*
X142227472Y-53266073D01*
X142285483Y-53292914D01*
X142346263Y-53220853D01*
X142432698Y-53029150D01*
X142481264Y-52917829D01*
X142556220Y-52772749D01*
X142598397Y-52728612D01*
X142601993Y-52742692D01*
X142577403Y-52856317D01*
X142510952Y-53037267D01*
X142484740Y-53102099D01*
X142428572Y-53263844D01*
X142417276Y-53339693D01*
X142421883Y-53341383D01*
X142505365Y-53305306D01*
X142650368Y-53209746D01*
X142725943Y-53151133D01*
X142727939Y-53148656D01*
X142926560Y-53148656D01*
X143006338Y-53161597D01*
X143186655Y-53075363D01*
X143252753Y-53036485D01*
X143408909Y-52962491D01*
X143490092Y-52951885D01*
X143478774Y-52997202D01*
X143374782Y-53074373D01*
X143279859Y-53155988D01*
X143219883Y-53303198D01*
X143237044Y-53386947D01*
X143312719Y-53446298D01*
X143408253Y-53411338D01*
X143534140Y-53292109D01*
X143591228Y-53155181D01*
X143598921Y-53124994D01*
X143687825Y-53077778D01*
X143882150Y-53032211D01*
X144101709Y-52893919D01*
X144148643Y-52834165D01*
X144336389Y-52834165D01*
X144345057Y-52853663D01*
X144435809Y-52838282D01*
X144604224Y-52741329D01*
X144681681Y-52691508D01*
X144878569Y-52590640D01*
X145021469Y-52553749D01*
X145076608Y-52591545D01*
X145071658Y-52600426D01*
X144982434Y-52662103D01*
X144816667Y-52748545D01*
X144767552Y-52772891D01*
X144617252Y-52863958D01*
X144556725Y-52929576D01*
X144559007Y-52937470D01*
X144645042Y-52983099D01*
X144816949Y-53017637D01*
X144965092Y-53028584D01*
X145042377Y-53001614D01*
X145035041Y-52915273D01*
X145021398Y-52848318D01*
X145066605Y-52808558D01*
X145220432Y-52828034D01*
X145272057Y-52836141D01*
X145414858Y-52822402D01*
X145452152Y-52756106D01*
X145362433Y-52662345D01*
X145328117Y-52605659D01*
X145412713Y-52510191D01*
X145465281Y-52464464D01*
X145502120Y-52376012D01*
X145434464Y-52343475D01*
X145293017Y-52396117D01*
X145264095Y-52412460D01*
X145127180Y-52448731D01*
X145036264Y-52419078D01*
X145039474Y-52335088D01*
X145049887Y-52315188D01*
X145037244Y-52242880D01*
X144952620Y-52233698D01*
X144853123Y-52298771D01*
X144836123Y-52315423D01*
X144792378Y-52358273D01*
X144689507Y-52409357D01*
X144616975Y-52442419D01*
X144494269Y-52560004D01*
X144385001Y-52709521D01*
X144336389Y-52834165D01*
X144148643Y-52834165D01*
X144246484Y-52709599D01*
X144318897Y-52562260D01*
X144417310Y-52400884D01*
X144457548Y-52315423D01*
X144457092Y-52153308D01*
X144438364Y-52113917D01*
X144384030Y-52084695D01*
X144281862Y-52133121D01*
X144100109Y-52269533D01*
X143982740Y-52371233D01*
X143883524Y-52486404D01*
X143881648Y-52543298D01*
X143983218Y-52527062D01*
X144126399Y-52435545D01*
X144187049Y-52383385D01*
X144230486Y-52361098D01*
X144203404Y-52431775D01*
X144103534Y-52613024D01*
X144046727Y-52709176D01*
X143924437Y-52878078D01*
X143843382Y-52929594D01*
X143814035Y-52854971D01*
X143817058Y-52834614D01*
X143892687Y-52780702D01*
X143916666Y-52776897D01*
X143930780Y-52715075D01*
X143857611Y-52666119D01*
X143680643Y-52658412D01*
X143456895Y-52708936D01*
X143387646Y-52738872D01*
X143232297Y-52806028D01*
X143052778Y-52938025D01*
X142959527Y-53049063D01*
X142926560Y-53148656D01*
X142727939Y-53148656D01*
X142800971Y-53058010D01*
X142761636Y-52992990D01*
X142751608Y-52986253D01*
X142722423Y-52930709D01*
X142829971Y-52883441D01*
X142855782Y-52875428D01*
X142968372Y-52808866D01*
X142997879Y-52738872D01*
X142922807Y-52706433D01*
X142879640Y-52678579D01*
X142848538Y-52557895D01*
X142826648Y-52502777D01*
X142997076Y-52502777D01*
X142997708Y-52507232D01*
X143054838Y-52492260D01*
X143186430Y-52391858D01*
X143366710Y-52225370D01*
X143380793Y-52211551D01*
X143566042Y-52040148D01*
X143706891Y-51927997D01*
X143773826Y-51898777D01*
X143762297Y-51940971D01*
X143670629Y-52061585D01*
X143515596Y-52225015D01*
X143395636Y-52347272D01*
X143269018Y-52492413D01*
X143219883Y-52572967D01*
X143231607Y-52612372D01*
X143300155Y-52617913D01*
X143468368Y-52579599D01*
X143557133Y-52546798D01*
X143712486Y-52449307D01*
X143822609Y-52336411D01*
X143842982Y-52247571D01*
X143850314Y-52210915D01*
X143953807Y-52186550D01*
X143976727Y-52185847D01*
X144106721Y-52148008D01*
X144155642Y-52079148D01*
X144093007Y-52016504D01*
X144037044Y-51972050D01*
X144092544Y-51883903D01*
X144176250Y-51763165D01*
X144150605Y-51689499D01*
X144003638Y-51696178D01*
X143867104Y-51706044D01*
X143752541Y-51617863D01*
X143724057Y-51570806D01*
X143676967Y-51549529D01*
X143630047Y-51661358D01*
X143602120Y-51709224D01*
X143563319Y-51775727D01*
X143432479Y-51791015D01*
X143419047Y-51787635D01*
X143324483Y-51791290D01*
X143332848Y-51894392D01*
X143329000Y-51972405D01*
X143326181Y-52029547D01*
X143187361Y-52225823D01*
X143164899Y-52248890D01*
X143045673Y-52396484D01*
X142997076Y-52502777D01*
X142826648Y-52502777D01*
X142803379Y-52444188D01*
X142693440Y-52411710D01*
X142584598Y-52490096D01*
X142533015Y-52528764D01*
X142394542Y-52534183D01*
X142376854Y-52529953D01*
X142365539Y-52531887D01*
X142280200Y-52546473D01*
X142254386Y-52676251D01*
X142236722Y-52791631D01*
X142213303Y-52817836D01*
X142180117Y-52854971D01*
X142157988Y-52859158D01*
X142112105Y-52941227D01*
X141944213Y-52941227D01*
X141972349Y-52817836D01*
X141965841Y-52719320D01*
X141874381Y-52688846D01*
X141794856Y-52681538D01*
X141661048Y-52596010D01*
X141595546Y-52535954D01*
X141467263Y-52483626D01*
X141449917Y-52482027D01*
X141307715Y-52432539D01*
X141123579Y-52335365D01*
X141090815Y-52316073D01*
X140896677Y-52224302D01*
X140747826Y-52186827D01*
X140707591Y-52188341D01*
X140653356Y-52225612D01*
X140565809Y-52225612D01*
X140555031Y-52174521D01*
X140651615Y-52071804D01*
X140723356Y-52014135D01*
X140751347Y-51937949D01*
X140668391Y-51827126D01*
X140630499Y-51777365D01*
X140599590Y-51654845D01*
X140715618Y-51654845D01*
X140755127Y-51765241D01*
X140884793Y-51815205D01*
X140931976Y-51822860D01*
X140991813Y-51889474D01*
X140988791Y-51909830D01*
X140913161Y-51963743D01*
X140886298Y-51969574D01*
X140880409Y-52038012D01*
X140923668Y-52076281D01*
X141062519Y-52112281D01*
X141139965Y-52128780D01*
X141241478Y-52223684D01*
X141278526Y-52278049D01*
X141410681Y-52335088D01*
X141525567Y-52365284D01*
X141683804Y-52465058D01*
X141703873Y-52482477D01*
X141811171Y-52547007D01*
X141863980Y-52499093D01*
X141907077Y-52442596D01*
X142001667Y-52489620D01*
X142076891Y-52543467D01*
X142102400Y-52531887D01*
X142046839Y-52440501D01*
X141918383Y-52289001D01*
X141904970Y-52274199D01*
X141901031Y-52268765D01*
X142031579Y-52268765D01*
X142044087Y-52299206D01*
X142142983Y-52335088D01*
X142194885Y-52322445D01*
X142254386Y-52226015D01*
X142238797Y-52171103D01*
X142142983Y-52159692D01*
X142090683Y-52187575D01*
X142031579Y-52268765D01*
X141901031Y-52268765D01*
X141767291Y-52084280D01*
X141711923Y-51963743D01*
X141883041Y-51963743D01*
X141893577Y-52049305D01*
X141938743Y-52106417D01*
X141970192Y-52102142D01*
X142112869Y-52037020D01*
X142130864Y-51921810D01*
X142126864Y-51912052D01*
X142034739Y-51822300D01*
X141931799Y-51843196D01*
X141883041Y-51963743D01*
X141711923Y-51963743D01*
X141685754Y-51906772D01*
X141677848Y-51876952D01*
X141631983Y-51785022D01*
X141574634Y-51826715D01*
X141555420Y-51852249D01*
X141484523Y-51871375D01*
X141378735Y-51772375D01*
X141267125Y-51677022D01*
X141154940Y-51649426D01*
X141086092Y-51651441D01*
X140949034Y-51587713D01*
X140865254Y-51538620D01*
X140757476Y-51574220D01*
X140715618Y-51654845D01*
X140599590Y-51654845D01*
X140588194Y-51609673D01*
X140652686Y-51470500D01*
X140793116Y-51398941D01*
X140978626Y-51434090D01*
X141054943Y-51462889D01*
X141184906Y-51468485D01*
X141244448Y-51470246D01*
X141357441Y-51548375D01*
X141424064Y-51601444D01*
X141553635Y-51617412D01*
X141613328Y-51612856D01*
X141702889Y-51691406D01*
X141712016Y-51711627D01*
X141800103Y-51772455D01*
X141905168Y-51722501D01*
X141974176Y-51594531D01*
X142085381Y-51594531D01*
X142101307Y-51679436D01*
X142201416Y-51838179D01*
X142232894Y-51881332D01*
X142256895Y-51921810D01*
X142355803Y-52088623D01*
X142408021Y-52226015D01*
X142422923Y-52265225D01*
X142450936Y-52375341D01*
X142472646Y-52358032D01*
X142484240Y-52195542D01*
X142485451Y-51889474D01*
X142485263Y-51869600D01*
X142489811Y-51657409D01*
X142509871Y-51581151D01*
X142548168Y-51629532D01*
X142549859Y-51633345D01*
X142600760Y-51814192D01*
X142630625Y-52038012D01*
X142635908Y-52109559D01*
X142653893Y-52196675D01*
X142677438Y-52136241D01*
X142685304Y-52113202D01*
X142848538Y-52113202D01*
X142851251Y-52132245D01*
X142921956Y-52223158D01*
X142955371Y-52230793D01*
X142953224Y-52158691D01*
X142954384Y-52082163D01*
X143065479Y-52089227D01*
X143073559Y-52091286D01*
X143189430Y-52087367D01*
X143219883Y-51972405D01*
X143205908Y-51877813D01*
X143150919Y-51815205D01*
X143135403Y-51817081D01*
X143018949Y-51885212D01*
X142901870Y-52005066D01*
X142848538Y-52113202D01*
X142685304Y-52113202D01*
X142713735Y-52029928D01*
X142815862Y-51885773D01*
X142906868Y-51780831D01*
X142907599Y-51709224D01*
X142811404Y-51714078D01*
X142732515Y-51731363D01*
X142707322Y-51674425D01*
X142776882Y-51513246D01*
X142783554Y-51500574D01*
X142813908Y-51396582D01*
X142739748Y-51369591D01*
X142673369Y-51343010D01*
X142625731Y-51221053D01*
X142625701Y-51215837D01*
X142591737Y-51091613D01*
X142521402Y-51093478D01*
X142455594Y-51221359D01*
X142402423Y-51319279D01*
X142279826Y-51321832D01*
X142257282Y-51314063D01*
X142186295Y-51304003D01*
X142235819Y-51373514D01*
X142255212Y-51396925D01*
X142314293Y-51518481D01*
X142331748Y-51637426D01*
X142307014Y-51707270D01*
X142239532Y-51681520D01*
X142148532Y-51604450D01*
X142085381Y-51594531D01*
X141974176Y-51594531D01*
X141982127Y-51579787D01*
X142025220Y-51490197D01*
X142119416Y-51487778D01*
X142134510Y-51496699D01*
X142179756Y-51510617D01*
X142123326Y-51430627D01*
X142118547Y-51424617D01*
X142082626Y-51339059D01*
X142134733Y-51247016D01*
X142294066Y-51112743D01*
X142403810Y-51037365D01*
X142600186Y-50958561D01*
X142728390Y-50994568D01*
X142774269Y-51144453D01*
X142792825Y-51230970D01*
X142867105Y-51276754D01*
X142918792Y-51292274D01*
X142947690Y-51399778D01*
X142957477Y-51497578D01*
X143020709Y-51624133D01*
X143108914Y-51693061D01*
X143184938Y-51663124D01*
X143224765Y-51627700D01*
X143356778Y-51609556D01*
X143431227Y-51607322D01*
X143561921Y-51527332D01*
X143626754Y-51472627D01*
X143784728Y-51478981D01*
X143903570Y-51515614D01*
X144109747Y-51546750D01*
X144181567Y-51560192D01*
X144299682Y-51651297D01*
X144324860Y-51763165D01*
G37*
G04 #@! TO.C,R4*
X144977500Y-103362742D02*
X144977500Y-103837258D01*
X146022500Y-103362742D02*
X146022500Y-103837258D01*
G04 #@! TO.C,R3*
X146277500Y-105062742D02*
X146277500Y-105537258D01*
X147322500Y-105062742D02*
X147322500Y-105537258D01*
G04 #@! TO.C,JP6*
X142227258Y-66522500D02*
X141752742Y-66522500D01*
X142227258Y-65477500D02*
X141752742Y-65477500D01*
G04 #@! TO.C,JP13*
X138737258Y-74522500D02*
X138262742Y-74522500D01*
X138737258Y-73477500D02*
X138262742Y-73477500D01*
D11*
G04 #@! TO.C,PS1*
X154200000Y-111000000D02*
X154200000Y-109200000D01*
X147850000Y-108850000D02*
X154350000Y-108850000D01*
X154350000Y-108850000D02*
X154350000Y-105350000D01*
X147850000Y-105350000D02*
X147850000Y-108850000D01*
X154350000Y-105350000D02*
X147850000Y-105350000D01*
D12*
G04 #@! TO.C,JP7*
X138747258Y-68522500D02*
X138272742Y-68522500D01*
X138747258Y-67477500D02*
X138272742Y-67477500D01*
G04 #@! TO.C,JP15*
X138757258Y-76522500D02*
X138282742Y-76522500D01*
X138757258Y-75477500D02*
X138282742Y-75477500D01*
G04 #@! TO.C,C6*
X148011252Y-113410000D02*
X146588748Y-113410000D01*
X148011252Y-111590000D02*
X146588748Y-111590000D01*
G04 #@! TO.C,JP14*
X142227258Y-74522500D02*
X141752742Y-74522500D01*
X142227258Y-73477500D02*
X141752742Y-73477500D01*
G04 #@! TO.C,JP12*
X142227258Y-72522500D02*
X141752742Y-72522500D01*
X142227258Y-71477500D02*
X141752742Y-71477500D01*
G04 #@! TO.C,JP3*
X138737258Y-64522500D02*
X138262742Y-64522500D01*
X138737258Y-63477500D02*
X138262742Y-63477500D01*
G04 #@! TO.C,JP5*
X138747258Y-66522500D02*
X138272742Y-66522500D01*
X138747258Y-65477500D02*
X138272742Y-65477500D01*
G04 #@! TO.C,JP8*
X142237258Y-68522500D02*
X141762742Y-68522500D01*
X142237258Y-67477500D02*
X141762742Y-67477500D01*
G04 #@! TO.C,JP11*
X138757258Y-72522500D02*
X138282742Y-72522500D01*
X138757258Y-71477500D02*
X138282742Y-71477500D01*
G04 #@! TO.C,JP9*
X138747258Y-70522500D02*
X138272742Y-70522500D01*
X138747258Y-69477500D02*
X138272742Y-69477500D01*
G04 #@! TO.C,C5*
X151888748Y-111490000D02*
X153311252Y-111490000D01*
X151888748Y-113310000D02*
X153311252Y-113310000D01*
G04 #@! TO.C,JP1*
X138747258Y-62522500D02*
X138272742Y-62522500D01*
X138747258Y-61477500D02*
X138272742Y-61477500D01*
G04 #@! TO.C,JP10*
X142227258Y-70522500D02*
X141752742Y-70522500D01*
X142227258Y-69477500D02*
X141752742Y-69477500D01*
G04 #@! TO.C,JP4*
X142237258Y-64522500D02*
X141762742Y-64522500D01*
X142237258Y-63477500D02*
X141762742Y-63477500D01*
G04 #@! TO.C,JP2*
X142227258Y-62522500D02*
X141752742Y-62522500D01*
X142227258Y-61477500D02*
X141752742Y-61477500D01*
G04 #@! TO.C,JP16*
X142237258Y-76522500D02*
X141762742Y-76522500D01*
X142237258Y-75477500D02*
X141762742Y-75477500D01*
G04 #@! TD*
M02*
